<svg width="204" height="64" viewBox="0 0 204 64" fill="none" xmlns="http://www.w3.org/2000/svg">
<path fill-rule="evenodd" clip-rule="evenodd" d="M34.5938 0.126465C35.9021 1.05966 37.6066 0.962282 39.0014 1.69291C41.1261 2.67977 41.8844 5.19725 41.396 7.33533C40.0842 7.56468 38.6302 7.41586 37.5439 6.60026C35.5649 5.07974 34.7349 2.51082 34.5938 0.126465Z" fill="#A9896A"/>
<path fill-rule="evenodd" clip-rule="evenodd" d="M35.2891 1.21631C36.6792 1.88983 38.2983 2.18303 39.4564 3.25708C40.3868 4.14097 40.6896 5.47577 40.6223 6.70883C37.58 6.8196 35.6875 3.85459 35.2891 1.21631Z" fill="#A9896A"/>
<path fill-rule="evenodd" clip-rule="evenodd" d="M31.161 2.41357C33.3313 3.4015 35.2374 5.31367 35.6645 7.69014C35.899 9.11894 35.316 10.6384 34.2479 11.6185C32.0708 10.9001 30.5998 8.49687 30.9607 6.23792C31.1508 4.97018 31.5812 3.69018 31.161 2.41357Z" fill="#A9896A"/>
<path fill-rule="evenodd" clip-rule="evenodd" d="M37.3125 3.02441C38.5571 3.77296 39.9848 4.75752 40.2832 6.24894C38.8792 5.66047 38.0264 4.28648 37.3125 3.02441Z" fill="#A9896A"/>
<path fill-rule="evenodd" clip-rule="evenodd" d="M23.4375 3.0625C24.7482 3.58613 26.2807 3.01443 27.5162 3.80546C28.5718 4.3839 28.9749 5.66051 28.91 6.78502C26.3036 7.793 23.827 5.49944 23.4375 3.0625Z" fill="#A9896A"/>
<path fill-rule="evenodd" clip-rule="evenodd" d="M32.0005 3.45508C34.3699 4.94428 35.9515 8.28525 34.0262 10.7233C33.0742 9.9702 32.2919 8.96107 32.0176 7.77395C31.6463 6.35073 32.0517 4.89399 32.0005 3.45508Z" fill="#A9896A"/>
<path fill-rule="evenodd" clip-rule="evenodd" d="M24.0547 3.66455C24.9576 3.90056 25.8947 4.00468 26.7793 4.30348C27.7039 4.59989 28.2426 5.54648 28.3235 6.45724C26.3876 6.84775 24.6388 5.38648 24.0547 3.66455Z" fill="#A9896A"/>
<path fill-rule="evenodd" clip-rule="evenodd" d="M46.8907 3.76172C48.2515 5.0316 48.9961 6.8251 49.356 8.60529C49.7829 10.844 48.3516 13.1702 46.2145 13.9768C45.9433 14.0373 45.5301 14.3886 45.3524 14.0272C44.4314 12.5615 44.0237 10.7266 44.4927 9.04272C44.9289 7.11379 46.6971 5.77899 46.8907 3.76172Z" fill="#A9896A"/>
<path fill-rule="evenodd" clip-rule="evenodd" d="M19.7031 9.71444C19.7669 7.55509 21.4247 5.84548 23.1009 4.6416C23.8158 6.30527 24.3784 8.23979 23.7453 10.0121C23.2488 11.2853 22.0248 12.1692 20.7176 12.5206C20.0357 11.8 19.8021 10.689 19.7031 9.71444Z" fill="#A9896A"/>
<path fill-rule="evenodd" clip-rule="evenodd" d="M25.6953 4.68066C26.6744 4.75676 27.6456 5.3979 28.1136 6.23922C27.172 5.9853 26.3613 5.36314 25.6953 4.68066Z" fill="#A9896A"/>
<path fill-rule="evenodd" clip-rule="evenodd" d="M47.281 4.90527C48.1077 6.18748 48.6588 7.69459 48.6667 9.22292C48.6679 10.9292 47.4198 12.3625 45.9897 13.1882C45.852 13.2553 45.6083 13.403 45.5343 13.1804C45.0708 12.132 45.0914 10.9359 45.2883 9.82832C45.5948 8.05708 46.8336 6.63057 47.281 4.90527Z" fill="#A9896A"/>
<path fill-rule="evenodd" clip-rule="evenodd" d="M20.8355 11.8857C19.6832 9.58524 20.9028 6.89436 22.9647 5.55957C24.0044 7.81975 23.3859 10.9435 20.8355 11.8857Z" fill="#A9896A"/>
<path fill-rule="evenodd" clip-rule="evenodd" d="M50.6797 9.11365C50.7548 7.3715 52.4308 5.68992 54.2924 5.90251C55.3582 6.05577 56.3887 6.45967 57.4875 6.34002C56.2727 8.66496 53.2677 10.5849 50.6797 9.11365Z" fill="#A9896A"/>
<path fill-rule="evenodd" clip-rule="evenodd" d="M33.1618 6.11816C33.82 7.24596 34.5202 8.71725 34.0374 10.005C33.139 8.92984 33.1162 7.44178 33.1618 6.11816Z" fill="#A9896A"/>
<path fill-rule="evenodd" clip-rule="evenodd" d="M52.9245 6.80507C54.0379 6.22663 55.3018 6.60924 56.4563 6.82643C55.4271 8.53143 53.184 9.55421 51.2188 8.91191C51.3474 8.06048 52.1375 7.23929 52.9245 6.80507Z" fill="#A9896A"/>
<path fill-rule="evenodd" clip-rule="evenodd" d="M25.2126 10.2224C25.9526 9.39782 26.3911 8.38417 26.6949 7.33691C27.9953 8.70409 28.7206 10.557 28.9142 12.402C29.1237 14.614 27.4692 16.666 25.3674 17.3048C23.6355 15.3602 23.5706 12.2465 25.2126 10.2224Z" fill="#A9896A"/>
<path fill-rule="evenodd" clip-rule="evenodd" d="M51.6484 8.39419C52.0698 7.41505 53.3212 7.54382 54.2114 7.51465C53.4885 8.02266 52.5492 8.37405 51.6484 8.39419Z" fill="#A9896A"/>
<path fill-rule="evenodd" clip-rule="evenodd" d="M21.2711 11.2917C20.908 10.0654 21.696 8.85262 22.4132 7.90381C22.5043 9.10761 22.148 10.4145 21.2711 11.2917Z" fill="#A9896A"/>
<path fill-rule="evenodd" clip-rule="evenodd" d="M38.9866 10.7773C39.886 9.72781 40.8927 8.73092 42.0963 8.02051C41.7567 9.72675 42.3512 11.3893 42.5618 13.0643C42.7748 15.6153 40.6022 17.8184 38.1679 18.3208C36.7036 15.9576 37.1853 12.8316 38.9866 10.7773Z" fill="#A9896A"/>
<path fill-rule="evenodd" clip-rule="evenodd" d="M27.0045 8.45312C27.8778 9.94224 28.4369 11.7683 28.0681 13.4846C27.6411 14.7803 26.5433 15.7862 25.3842 16.4731C24.5258 14.9089 24.7649 12.9588 25.4857 11.389C26.0242 10.4268 26.6652 9.51156 27.0045 8.45312Z" fill="#A9896A"/>
<path fill-rule="evenodd" clip-rule="evenodd" d="M12.6569 8.64233C13.7934 8.50025 14.9787 8.58974 16.041 9.03177C17.4552 9.60782 18.4515 11.1139 18.4254 12.6009C16.9816 13.3292 15.0674 13.3405 13.8036 12.2484C12.7117 11.36 12.3256 9.93456 11.3828 8.93546C11.6811 8.73749 12.2493 8.73519 12.6569 8.64233Z" fill="#A9896A"/>
<path fill-rule="evenodd" clip-rule="evenodd" d="M46.2296 12.7375C46.0326 11.2774 46.7193 9.76579 47.4162 8.57422C47.5117 10.0075 47.4547 11.7474 46.2296 12.7375Z" fill="#A9896A"/>
<path fill-rule="evenodd" clip-rule="evenodd" d="M12.2422 9.15836C14.4556 8.68954 17.2682 9.64731 17.7223 12.0684C16.5269 12.4421 15.0966 12.3236 14.1449 11.461C13.4276 10.7639 12.8661 9.93254 12.2422 9.15836Z" fill="#A9896A"/>
<path fill-rule="evenodd" clip-rule="evenodd" d="M34.3854 16.0785C34.6734 13.2779 36.0647 10.4013 38.628 8.97363C36.3166 11.6119 35.1973 15.2191 35.9829 18.6563C36.5625 20.7375 36.14 22.8845 35.837 24.9667C37.6271 20.6645 41.1397 16.7363 45.766 15.3634C43.1461 17.4647 40.6421 19.8031 38.9218 22.6965C36.4271 26.8811 35.0229 31.6284 34.1383 36.3711C35.3829 33.1287 37.7024 30.467 40.1196 28.0087C42.2193 25.8448 43.7325 22.4861 42.2603 19.5996C44.8393 20.4129 44.4122 23.8792 43.1746 25.6592C44.5568 24.3883 46.1795 23.4216 47.9067 22.6729C50.6315 21.3974 52.3555 18.4181 51.9046 15.4541C53.5749 18.2155 52.0457 21.9065 49.345 23.4215C48.7254 23.8187 47.9945 23.9821 47.3466 24.3143C50.2388 23.624 53.2163 24.3512 55.8852 25.488C57.1252 26.0654 58.5553 25.9502 59.8043 25.4633C58.7933 26.9906 56.6788 27.0052 55.0871 26.5063C52.9886 25.9066 50.8115 25.2978 48.6038 25.5853C46.7067 25.8093 44.9873 26.7424 43.4877 27.8623C40.3781 30.1582 37.9152 33.2195 36.057 36.5603C34.5368 39.3239 33.3709 42.4109 33.2137 45.5413C33.7534 41.7763 35.925 38.355 39.0241 36.1028C42.4584 33.5875 46.5085 31.7894 50.7546 31.154C53.7481 30.6773 57.6683 31.5914 58.6806 34.7692C57.0091 32.7663 54.2466 31.8287 51.669 32.3343C47.7917 33.0985 44.1266 34.8037 40.9486 37.1007C39.507 38.196 38.0609 39.4359 37.3129 41.1073C40.5659 37.3591 46.0076 35.3229 50.9515 36.3801C52.7142 36.9172 54.3822 37.7811 56.2472 37.9656C54.1739 38.7946 52.048 37.9275 50.0043 37.5157C46.2285 37.1196 42.2079 38.5361 39.6345 41.3019C36.0228 45.6834 36.0262 52.4851 39.4523 56.9717C40.7902 58.7418 42.7168 59.9981 44.7903 60.7948C49.8198 62.6432 55.2474 62.9553 60.516 63.7172C60.516 63.7362 60.5149 63.7767 60.5149 63.7957C57.6637 63.8226 54.8126 63.8191 51.9614 63.827C49.3107 63.7888 46.6144 63.7229 44.0593 62.9542C40.2267 61.9573 36.9258 59.4343 34.8579 56.1314C36.7708 60.6013 41.5076 63.2026 46.2386 63.8067C44.8996 63.8181 43.5594 63.8045 42.2215 63.8291C40.0819 64.0137 38.2157 62.6992 36.6661 61.4102C37.1876 62.4429 38.1259 63.1948 39.0596 63.8571C38.4503 63.8124 37.7523 64.0273 37.2262 63.6278C35.7746 62.6623 34.7043 61.2256 33.9242 59.7018C33.7877 61.1361 33.5315 62.5806 32.8642 63.8796C32.1662 63.9121 31.4683 63.9086 30.7713 63.9155C32.8632 60.6863 33.158 56.693 33.1911 52.965C32.7389 55.9894 32.1435 59.0953 30.4868 61.7347C29.7341 62.8736 28.6101 64.2566 27.0446 63.8416C28.1423 63.1926 29.1135 62.2213 29.43 60.9694C28.2368 62.2372 26.7531 63.3425 25.0201 63.7532C23.3803 63.8705 21.7249 63.8527 20.0828 63.7789C24.7 63.0571 29.3889 60.6403 31.4124 56.3059C29.315 59.3648 26.0335 61.5031 22.4717 62.5828C19.6548 63.4365 16.6909 63.705 13.7555 63.7832C11.074 63.8416 8.39251 63.8181 5.71094 63.7934C5.71094 63.7755 5.71094 63.7408 5.71211 63.7241C9.37742 63.338 13.0473 62.9151 16.6738 62.2493C20.1696 61.5791 23.8028 60.4647 26.3648 57.9083C30.5664 53.6889 30.9682 46.5775 27.6138 41.753C26.4024 40.0533 24.4553 38.4904 22.2167 38.7365C19.0604 39.4974 15.7447 38.572 12.9083 37.1846C10.68 35.9874 8.44603 34.0394 8.24792 31.3912C10.7085 35.4951 15.7435 37.2472 20.3607 37.499C21.6908 37.4619 23.041 37.1913 24.3585 37.5338C25.8911 37.8211 27.147 38.7879 28.3335 39.7188C25.1341 35.5958 20.5508 32.8133 16.9323 29.084C21.7853 30.7074 26.1473 33.7407 29.4472 37.584C31.2736 39.6919 32.4349 42.2766 33.1376 44.9293C32.5933 40.1798 29.9709 35.8207 26.3922 32.6465C22.6699 29.3256 17.9081 26.6202 12.7341 26.7545C11.3165 26.7947 9.82716 26.0744 9.41721 24.6578C10.3452 25.3 11.5044 25.4568 12.6134 25.4052C18.343 25.0058 23.7926 27.7446 28.1012 31.2367C26.1723 28.4116 23.6117 25.9647 20.4815 24.4597C18.7109 23.5693 16.7444 23.1787 14.9089 22.4549C13.8841 22.0552 12.8799 21.2464 12.7922 20.0941C13.8899 21.299 15.5489 21.6123 17.093 21.8652C21.2945 22.7345 25.2227 24.9218 28.0886 28.0715C30.5458 30.7623 32.0967 34.1503 32.9838 37.6333C32.7685 31.3093 30.3181 24.7832 25.2535 20.6644C23.6458 19.2235 21.6475 18.1863 20.3505 16.4264C19.2484 14.9225 18.3136 12.8068 19.2893 11.0255C19.7334 13.4188 21.1066 15.6431 23.0856 17.1101C25.0634 18.4884 27.229 19.6699 28.8357 21.4948C27.9669 20.0156 28.0374 18.1416 28.9485 16.697C30.0802 14.9729 31.8156 13.6247 32.3985 11.5715C32.5192 13.317 31.4592 14.7558 30.5198 16.1231C29.0486 18.7245 29.8672 21.9076 31.3316 24.3288C32.5282 26.3741 33.437 28.5884 33.9072 30.9065C34.629 27.8443 34.957 24.6757 34.7566 21.5351C34.6416 19.7159 34.1452 17.9089 34.3854 16.0785Z" fill="#A9896A"/>
<path fill-rule="evenodd" clip-rule="evenodd" d="M38.0392 15.4115C38.0211 13.0495 39.5103 11.0311 41.2866 9.58105C41.4507 10.9774 41.9004 12.3648 41.7091 13.7813C41.4711 15.5032 40.0227 16.8403 38.4605 17.4892C37.914 16.9934 38.0768 16.0884 38.0392 15.4115Z" fill="#A9896A"/>
<path fill-rule="evenodd" clip-rule="evenodd" d="M14.4141 10.0352C15.4799 10.2086 16.7597 10.6943 17.2084 11.7337C16.1357 11.464 15.2146 10.7614 14.4141 10.0352Z" fill="#A9896A"/>
<path fill-rule="evenodd" clip-rule="evenodd" d="M55.227 10.418C56.5956 10.9025 57.8959 12.0168 58.0531 13.5117C58.1352 14.7961 57.7115 16.0671 57.1183 17.1971C55.9113 16.5717 54.5984 15.7975 54.1498 14.447C53.7262 13.0372 54.299 11.5112 55.227 10.418Z" fill="#A9896A"/>
<path fill-rule="evenodd" clip-rule="evenodd" d="M55.4485 11.2539C57.6414 12.0796 58.0137 14.7794 56.9014 16.5997C54.9475 15.5839 54.27 13.0944 55.4485 11.2539Z" fill="#A9896A"/>
<path fill-rule="evenodd" clip-rule="evenodd" d="M72.4312 20.6386C74.0011 18.899 76.6503 19.5391 77.9382 21.2397C76.2786 22.6871 73.7137 22.4081 72.4312 20.6386Z" fill="#A9896A"/>
<path fill-rule="evenodd" clip-rule="evenodd" d="M65.0142 16.0959C65.308 12.8866 68.7518 11.4066 71.5718 12.2166C70.9385 15.1784 67.8851 16.9862 65.0142 16.0959Z" fill="#A9896A"/>
<path fill-rule="evenodd" clip-rule="evenodd" d="M55.563 11.7026C56.5832 12.5272 56.3807 13.9885 56.1733 15.1218C55.8045 14.0254 55.5495 12.8618 55.563 11.7026Z" fill="#A9896A"/>
<path fill-rule="evenodd" clip-rule="evenodd" d="M25.9774 15.7603C25.6395 14.374 26.3509 12.9777 27.033 11.813C27.1379 13.1757 26.9317 14.7018 25.9774 15.7603Z" fill="#A9896A"/>
<path fill-rule="evenodd" clip-rule="evenodd" d="M8.97664 11.9014C10.9648 13.479 12.2445 16.162 11.7265 18.6772C11.3666 20.2412 10.0367 21.3692 8.60432 22.0047C6.80528 20.1015 6.75628 17.0796 8.14653 14.9368C8.7853 14.0507 8.96066 12.9632 8.97664 11.9014Z" fill="#A9896A"/>
<path fill-rule="evenodd" clip-rule="evenodd" d="M45.4308 17.5621C46.3497 15.1979 48.5825 13.6304 50.7677 12.4712C50.3053 14.1462 50.7812 15.858 50.6354 17.5531C50.3099 19.9966 47.8571 21.7577 45.4398 21.8093C45.0493 20.4275 44.9355 18.9338 45.4308 17.5621Z" fill="#A9896A"/>
<path fill-rule="evenodd" clip-rule="evenodd" d="M75.8102 1.74664C78.0918 0.638353 80.7947 1.00779 83.1851 1.64416C81.7069 2.55763 80.8915 4.13626 79.6318 5.27977C77.7313 6.84968 74.7354 6.47259 72.9281 4.86635C73.5817 3.58773 74.5142 2.41533 75.8102 1.74664Z" fill="#A9896A"/>
<path fill-rule="evenodd" clip-rule="evenodd" d="M38.9453 16.9006C38.9942 15.4181 39.7231 14.053 40.4881 12.811C40.6396 14.2745 40.2662 16.0412 38.9453 16.9006Z" fill="#A9896A"/>
<path fill-rule="evenodd" clip-rule="evenodd" d="M9.47089 13.0381C10.5901 14.2733 11.1298 16.0143 11.0604 17.6534C10.893 19.0901 9.77488 20.2212 8.63852 21.0357C7.9132 20.0634 7.88594 18.7119 8.05328 17.5483C8.22757 15.9572 9.3012 14.6302 9.47089 13.0381Z" fill="#A9896A"/>
<path fill-rule="evenodd" clip-rule="evenodd" d="M45.8524 21.1714C45.0631 18.1371 47.3805 15.4462 49.8534 13.9648C49.956 15.1486 50.0015 16.3547 49.8126 17.5318C49.4209 19.4148 47.6445 20.6871 45.8524 21.1714Z" fill="#A9896A"/>
<path fill-rule="evenodd" clip-rule="evenodd" d="M11.9766 14.1641C13.615 15.3377 15.8183 14.6104 17.5172 15.6297C19.1421 16.5416 19.8036 18.4694 19.7842 20.2227C18.4815 20.6826 16.9433 20.7776 15.6965 20.1075C13.5832 18.8633 12.3968 16.4812 11.9766 14.1641Z" fill="#A9896A"/>
<path fill-rule="evenodd" clip-rule="evenodd" d="M12.8906 15.2427C14.0987 15.7137 15.4161 15.8077 16.6151 16.2967C17.9939 16.836 18.8194 18.2715 18.9139 19.6813C18.6703 19.9766 18.2057 19.8189 17.8665 19.8456C15.3534 19.707 13.6318 17.4033 12.8906 15.2427Z" fill="#A9896A"/>
<path fill-rule="evenodd" clip-rule="evenodd" d="M9.84102 16.1855C10.2556 17.5213 10.153 19.2377 9.10324 20.2705C8.68869 18.8697 9.46185 17.5056 9.84102 16.1855Z" fill="#A9896A"/>
<path fill-rule="evenodd" clip-rule="evenodd" d="M15.3281 16.8584C16.5693 17.2892 17.9982 17.9907 18.4856 19.2684C17.1045 19.0132 16.1775 17.8598 15.3281 16.8584Z" fill="#A9896A"/>
<path fill-rule="evenodd" clip-rule="evenodd" d="M46.4609 20.5705C46.7363 19.1729 47.6689 18.005 48.6162 16.9722C48.5788 18.4055 47.7668 19.8825 46.4609 20.5705Z" fill="#A9896A"/>
<path fill-rule="evenodd" clip-rule="evenodd" d="M53.6562 22.8651C53.851 20.4776 56.1614 17.9847 58.8042 18.496C60.2411 18.8371 61.6873 19.1651 63.18 18.9994C62.2017 20.6284 60.8195 22.0528 59.1139 22.9502C57.4469 23.8643 55.3039 23.7525 53.6562 22.8651Z" fill="#A9896A"/>
<path fill-rule="evenodd" clip-rule="evenodd" d="M57.3522 19.5321C58.8882 18.919 60.4777 19.652 62.0411 19.6921C60.3161 21.9769 57.1824 23.7333 54.2812 22.5777C55.0031 21.3245 55.8639 19.9764 57.3522 19.5321Z" fill="#A9896A"/>
<path fill-rule="evenodd" clip-rule="evenodd" d="M55.6999 21.178C56.7519 20.8949 57.903 20.7417 58.9802 20.9364C57.7256 21.3873 56.4959 22.0854 55.127 22.0865C54.8174 21.7978 55.4015 21.3158 55.6999 21.178Z" fill="#A9896A"/>
<path fill-rule="evenodd" clip-rule="evenodd" d="M2.79688 21.562C4.68356 21.6884 6.63864 22.3059 7.9799 23.6699C9.01389 24.7215 9.27005 26.2723 9.17095 27.6799C7.49486 28.1555 5.4226 27.7951 4.36811 26.3272C3.27282 24.9532 3.55523 23.0792 2.79688 21.562Z" fill="#A9896A"/>
<path fill-rule="evenodd" clip-rule="evenodd" d="M3.6875 22.2207C6.12413 22.4534 8.6075 24.4474 8.37418 27.0273C7.04531 27.1806 5.57418 26.6379 4.89896 25.4566C4.33078 24.4462 4.07914 23.3006 3.6875 22.2207Z" fill="#A9896A"/>
<path fill-rule="evenodd" clip-rule="evenodd" d="M59.375 23.7237C60.7811 23.0368 62.5609 22.6731 63.9432 23.6142C65.2594 24.4868 66.0816 25.8831 66.6942 27.2874C65.2093 26.6083 63.5844 27.3377 62.0644 26.908C60.6662 26.4359 59.6654 25.1202 59.375 23.7237Z" fill="#A9896A"/>
<path fill-rule="evenodd" clip-rule="evenodd" d="M5.625 23.8521C6.68057 24.4483 7.66548 25.4061 8.02533 26.5686C6.82174 26.1692 6.15914 24.907 5.625 23.8521Z" fill="#A9896A"/>
<path fill-rule="evenodd" clip-rule="evenodd" d="M60.2031 24.1811C62.4564 23.1382 64.7167 24.7225 65.8006 26.6201C64.6039 26.4378 63.3536 26.6124 62.1946 26.2128C61.2972 25.8336 60.4786 25.1286 60.2031 24.1811Z" fill="#A9896A"/>
<path fill-rule="evenodd" clip-rule="evenodd" d="M60.3906 24.2339C61.4962 24.0873 62.6771 24.7318 63.4376 25.4678C62.7977 25.4366 62.1737 25.2766 61.5691 25.0798C61.4894 25.1345 61.4119 25.1905 61.3346 25.2474C60.9769 24.9532 60.592 24.659 60.3906 24.2339Z" fill="#A9896A"/>
<path fill-rule="evenodd" clip-rule="evenodd" d="M45.6797 29.2888C46.3889 27.7951 47.8614 26.4805 49.6263 26.5286C51.3035 26.5912 52.6927 27.6452 54.2413 28.1543C53.0832 29.3336 51.5939 30.2386 49.9634 30.6214C48.4263 30.9917 46.7397 30.4255 45.6797 29.2888Z" fill="#A9896A"/>
<path fill-rule="evenodd" clip-rule="evenodd" d="M0.09375 26.7378C1.90534 27.9796 4.48212 27.4627 6.07159 29.1187C7.37538 30.3383 7.63956 32.2827 7.3344 33.9534C5.5934 34.2307 3.5985 33.8861 2.4404 32.4696C1.00465 30.9077 0.307764 28.8022 0.09375 26.7378Z" fill="#A9896A"/>
<path fill-rule="evenodd" clip-rule="evenodd" d="M46.4141 29.1935C47.3466 28.0444 48.7743 27.1751 50.3161 27.306C51.3534 27.4894 52.3087 27.9616 53.2868 28.3319C51.7143 29.7327 49.3484 30.6883 47.2759 29.8155C46.9777 29.6588 46.454 29.5739 46.4141 29.1935Z" fill="#A9896A"/>
<path fill-rule="evenodd" clip-rule="evenodd" d="M0.890625 27.937C2.25587 28.5837 3.85571 28.728 5.07737 29.6577C6.20469 30.4981 6.60211 31.9682 6.56222 33.302C3.47186 33.5727 1.42468 30.5843 0.890625 27.937Z" fill="#A9896A"/>
<path fill-rule="evenodd" clip-rule="evenodd" d="M7.60938 28.8501C9.99925 29.2305 12.2652 27.2905 14.6188 28.3411C15.9942 28.9207 16.8152 30.2544 17.3617 31.5599C16.0603 32.7181 14.1542 33.3882 12.4325 32.8221C10.3842 32.1832 8.6489 30.684 7.60938 28.8501Z" fill="#A9896A"/>
<path fill-rule="evenodd" clip-rule="evenodd" d="M47.0156 28.9675C48.0814 28.1451 49.7061 28.3767 50.9029 28.7807C49.6356 28.9071 48.2316 29.4744 47.0156 28.9675Z" fill="#A9896A"/>
<path fill-rule="evenodd" clip-rule="evenodd" d="M57.9688 31.0969C59.2566 29.2272 61.674 27.945 63.9682 28.7271C65.2106 29.2248 66.4915 29.696 67.8635 29.5225C66.4403 31.4974 64.2291 33.1644 61.6945 33.2932C60.1744 33.2898 58.7431 32.3532 57.9688 31.0969Z" fill="#A9896A"/>
<path fill-rule="evenodd" clip-rule="evenodd" d="M8.8125 29.5192C10.361 29.5741 11.8753 29.1041 13.4227 29.1802C14.73 29.2452 15.6363 30.3384 16.3002 31.332C13.9454 33.386 10.468 31.6171 8.8125 29.5192Z" fill="#A9896A"/>
<path fill-rule="evenodd" clip-rule="evenodd" d="M58.9297 31.1095C60.1948 30.0062 61.9335 29.3236 63.6335 29.6436C64.631 29.8373 65.6147 30.1091 66.6327 30.2009C65.394 31.4561 63.7416 32.4351 61.9279 32.5191C60.7664 32.5874 59.6221 32.0156 58.9297 31.1095Z" fill="#A9896A"/>
<path fill-rule="evenodd" clip-rule="evenodd" d="M3.03125 29.7451C4.35209 30.3997 5.69226 31.3384 6.25701 32.7325C4.77116 32.3264 3.75548 31.0073 3.03125 29.7451Z" fill="#A9896A"/>
<path fill-rule="evenodd" clip-rule="evenodd" d="M11.6719 30.1845C13.0451 30.0503 14.6289 30.2842 15.7073 31.1771C14.3021 31.458 12.8231 30.9724 11.6719 30.1845Z" fill="#A9896A"/>
<path fill-rule="evenodd" clip-rule="evenodd" d="M59.5156 31.0708C60.552 30.1164 62.4717 30.6166 63.6649 31.1323C62.3179 31.4368 60.8182 31.6167 59.5156 31.0708Z" fill="#A9896A"/>
<path fill-rule="evenodd" clip-rule="evenodd" d="M49.8438 34.7712C50.1877 33.5794 51.4014 32.5848 52.6962 32.5738C53.9714 32.567 55.0281 33.3715 56.1724 33.8077C54.7537 35.6852 51.6372 36.7816 49.8438 34.7712Z" fill="#A9896A"/>
<path fill-rule="evenodd" clip-rule="evenodd" d="M50.3516 34.6592C51.4515 32.8768 53.8518 33.0525 55.4151 34.1031C54.0693 35.2779 51.857 35.9213 50.3516 34.6592Z" fill="#A9896A"/>
<path fill-rule="evenodd" clip-rule="evenodd" d="M50.7344 34.5205C51.4641 33.7091 52.6084 34.2038 53.5114 34.3784C52.6131 34.5831 51.6213 34.9635 50.7344 34.5205Z" fill="#A9896A"/>
<path fill-rule="evenodd" clip-rule="evenodd" d="M59.3565 34.4968C60.6706 34.0313 62.3182 34.0258 63.3942 35.0126C64.4144 35.9625 64.9165 37.3264 65.207 38.6489C63.9133 38.6365 62.5549 38.5951 61.3845 37.9921C60.1091 37.3421 59.2793 35.8764 59.3565 34.4968Z" fill="#A9896A"/>
<path fill-rule="evenodd" clip-rule="evenodd" d="M59.8594 34.8863C62.1071 34.1356 64.0802 36.0555 64.447 38.1109C62.3029 38.3212 60.438 36.8667 59.8594 34.8863Z" fill="#A9896A"/>
<path fill-rule="evenodd" clip-rule="evenodd" d="M60.1094 35.0005C61.2106 35.2266 62.2148 35.9493 62.864 36.8356C61.8469 36.4472 60.5592 36.0847 60.1094 35.0005Z" fill="#A9896A"/>
<path fill-rule="evenodd" clip-rule="evenodd" d="M0.734375 37.8278C2.79074 37.8064 4.3654 36.0342 6.45145 36.1673C8.12755 36.2423 9.38919 37.5614 10.1419 38.9243C9.19442 39.8629 7.98513 40.6428 6.61419 40.7547C4.31765 40.8363 2.15649 39.5261 0.734375 37.8278Z" fill="#A9896A"/>
<path fill-rule="evenodd" clip-rule="evenodd" d="M1.98438 38.264C3.93487 37.9832 6.06868 36.3732 7.95878 37.67C8.35962 38.0448 9.57 38.7039 8.69205 39.1916C6.64254 40.7334 3.68782 39.9233 1.98438 38.264Z" fill="#A9896A"/>
<path fill-rule="evenodd" clip-rule="evenodd" d="M4.70312 38.4541C5.8736 37.9451 7.44157 37.9517 8.51538 38.6981C7.29355 39.2003 5.90671 38.8457 4.70312 38.4541Z" fill="#A9896A"/>
<path fill-rule="evenodd" clip-rule="evenodd" d="M47.859 38.8707C51.4535 37.7564 55.317 40.5458 55.8305 44.0869C54.0667 43.1672 51.983 44.1642 50.2351 43.2366C48.599 42.45 47.7631 40.6039 47.859 38.8707Z" fill="#A9896A"/>
<path fill-rule="evenodd" clip-rule="evenodd" d="M56.2031 39.6137C57.5559 38.5351 59.7614 38.2106 61.0743 39.5231C61.8415 40.2907 62.2448 41.3447 63.1032 42.0384C61.5557 42.5218 59.751 42.845 58.2332 42.1044C57.2551 41.5795 56.5834 40.623 56.2031 39.6137Z" fill="#A9896A"/>
<path fill-rule="evenodd" clip-rule="evenodd" d="M57.1651 39.5968C58.0749 39.1873 59.2079 39.0709 60.0981 39.5934C60.943 40.0891 61.4783 40.9372 62.0226 41.7148C60.4694 42.0123 58.6284 41.9362 57.5147 40.6754C57.2916 40.3945 56.5935 39.8497 57.1651 39.5968Z" fill="#A9896A"/>
<path fill-rule="evenodd" clip-rule="evenodd" d="M43.6948 39.3384C45.332 39.4659 46.9512 40.588 47.2848 42.2271C47.5354 43.5374 47.229 44.9226 47.7972 46.1779C46.2145 45.7807 44.6853 44.9158 43.7334 43.5878C42.8589 42.3257 43.0217 40.6463 43.6948 39.3384Z" fill="#A9896A"/>
<path fill-rule="evenodd" clip-rule="evenodd" d="M48.625 39.3661C51.4396 38.9522 53.9195 40.8476 55.1379 43.2005C53.7022 42.7967 52.0943 43.15 50.7598 42.3883C49.6087 41.7795 48.8857 40.6015 48.625 39.3661Z" fill="#A9896A"/>
<path fill-rule="evenodd" clip-rule="evenodd" d="M48.8984 39.6216C50.3844 39.8365 51.4479 40.9731 52.5934 41.8168C51.1621 41.5729 49.346 41.2149 48.8984 39.6216Z" fill="#A9896A"/>
<path fill-rule="evenodd" clip-rule="evenodd" d="M11.884 40.4303C13.2584 39.5072 15.0699 39.6918 16.5718 40.1818C16.4591 41.7314 15.7166 43.3997 14.1682 44.0195C12.5467 44.8049 10.6897 43.855 9.0625 44.6193C9.51795 42.98 10.4584 41.4238 11.884 40.4303Z" fill="#A9896A"/>
<path fill-rule="evenodd" clip-rule="evenodd" d="M57.125 39.9314C58.0872 39.7255 59.1961 39.8721 59.9727 40.5019C59.0243 40.5793 57.9016 40.5389 57.125 39.9314Z" fill="#A9896A"/>
<path fill-rule="evenodd" clip-rule="evenodd" d="M20.0159 40.3611C21.3947 39.569 23.1028 40.0391 24.3678 40.8243C24.0821 42.5283 22.8841 44.2571 21.0418 44.5322C19.738 44.6958 18.3341 44.4137 17.1328 45.0928C17.3525 43.2266 18.3512 41.3535 20.0159 40.3611Z" fill="#A9896A"/>
<path fill-rule="evenodd" clip-rule="evenodd" d="M43.9667 40.0308C45.3411 40.3453 46.4124 41.5592 46.589 42.9299C46.6811 43.7689 46.7917 44.607 47.0306 45.4215C44.8114 44.7446 43.1353 42.2998 43.9667 40.0308Z" fill="#A9896A"/>
<path fill-rule="evenodd" clip-rule="evenodd" d="M44.0391 40.1396C45.1594 40.8635 45.3234 42.2329 45.476 43.4323C44.6185 42.5687 44.0924 41.3501 44.0391 40.1396Z" fill="#A9896A"/>
<path fill-rule="evenodd" clip-rule="evenodd" d="M9.96875 43.7218C10.7521 41.4875 13.2298 39.8572 15.6506 40.553C15.5084 42.0502 14.1646 43.3962 12.6183 43.5104C11.7337 43.5673 10.8466 43.5886 9.96875 43.7218Z" fill="#A9896A"/>
<path fill-rule="evenodd" clip-rule="evenodd" d="M17.75 44.2077C18.365 41.9465 20.961 39.8935 23.3431 41.1432C23.3293 41.8658 22.7055 42.5551 22.1886 43.0687C20.9416 44.1025 19.2051 43.721 17.75 44.2077Z" fill="#A9896A"/>
<path fill-rule="evenodd" clip-rule="evenodd" d="M12.0078 42.3727C12.8493 41.4618 14.1144 40.8534 15.376 40.9138C14.5607 41.8783 13.2194 42.1947 12.0078 42.3727Z" fill="#A9896A"/>
<path fill-rule="evenodd" clip-rule="evenodd" d="M19.6406 42.7777C20.3967 41.7674 21.7859 41.4699 23.0009 41.5292C22.255 42.4948 20.745 42.4153 19.6406 42.7777Z" fill="#A9896A"/>
<path d="M130.2 45.4C128.333 45.4 126.52 44.8133 124.76 43.64C123.027 42.4933 121.547 40.5733 120.32 37.88C119.787 36.68 119.347 35.4667 119 34.24C118.68 33.0133 118.44 31.8667 118.28 30.8C118.12 29.7333 118.04 28.8533 118.04 28.16C118.04 27.3067 118.133 26.8267 118.32 26.72C118.827 26.7733 119.667 26.56 120.84 26.08C122.04 25.6 123.453 24.8933 125.08 23.96C126.733 23.0267 128.507 21.9067 130.4 20.6C132.32 19.2667 134.24 17.7733 136.16 16.12C138.107 14.4667 139.973 12.68 141.76 10.76C143.547 8.84 145.12 6.82667 146.48 4.72C146.667 4.42666 146.813 4.21333 146.92 4.08C147.027 3.94666 147.133 3.88 147.24 3.88C147.373 3.88 147.493 3.94666 147.6 4.08C147.707 4.18666 147.76 4.30666 147.76 4.44C147.76 4.65333 147.667 4.90667 147.48 5.2C146.2 7.33333 144.68 9.42667 142.92 11.48C141.187 13.5067 139.333 15.4133 137.36 17.2C135.387 18.9867 133.4 20.6 131.4 22.04C129.4 23.48 127.493 24.68 125.68 25.64C123.867 26.6 122.267 27.2533 120.88 27.6C120.8 27.5467 120.76 27.68 120.76 28C120.76 28.4533 120.853 29.1867 121.04 30.2C121.227 31.1867 121.507 32.32 121.88 33.6C122.28 34.8533 122.76 36.1333 123.32 37.44C124.333 39.8133 125.52 41.44 126.88 42.32C128.267 43.2267 129.693 43.68 131.16 43.68C132.093 43.68 133.053 43.4933 134.04 43.12C135.027 42.7467 135.933 42.2267 136.76 41.56C137.587 40.92 138.227 40.16 138.68 39.28C138.84 39.0133 138.96 38.88 139.04 38.88C139.227 38.88 139.32 38.9867 139.32 39.2C139.32 39.28 139.293 39.36 139.24 39.44C139.213 39.5467 139.133 39.7467 139 40.04C138.627 40.7867 138 41.5733 137.12 42.4C136.267 43.2533 135.24 43.96 134.04 44.52C132.867 45.1067 131.587 45.4 130.2 45.4ZM96.24 44.88C94.4267 44.88 92.6667 44.6267 90.96 44.12C89.28 43.64 87.76 42.92 86.4 41.96C85.0667 41 84 39.8267 83.2 38.44C82.4267 37.0533 82.04 35.48 82.04 33.72C82.04 32.44 82.2267 31.3067 82.6 30.32C83 29.3067 83.48 28.4667 84.04 27.8C84.6267 27.1333 85.2 26.6267 85.76 26.28C86.3467 25.9333 86.8267 25.76 87.2 25.76C87.4667 25.76 87.6 25.84 87.6 26C87.6 26.1333 87.5333 26.24 87.4 26.32C86.7867 26.64 86.16 27.1067 85.52 27.72C84.88 28.3333 84.3467 29.1333 83.92 30.12C83.4933 31.1067 83.28 32.3333 83.28 33.8C83.28 35.4 83.6133 36.7733 84.28 37.92C84.9733 39.04 85.8667 39.96 86.96 40.68C88.08 41.4 89.28 41.92 90.56 42.24C91.84 42.5867 93.0667 42.76 94.24 42.76C96.8533 42.76 99.2933 42.2533 101.56 41.24C103.827 40.2267 105.893 38.88 107.76 37.2C109.653 35.4933 111.32 33.6 112.76 31.52C114.2 29.44 115.387 27.3333 116.32 25.2C116.667 24.4267 117.08 23.5067 117.56 22.44C118.04 21.3467 118.56 20.1867 119.12 18.96C119.68 17.7333 120.227 16.5333 120.76 15.36C121.293 14.1867 121.773 13.1333 122.2 12.2C122.653 11.24 123.013 10.5067 123.28 10C121.493 10.2133 119.56 10.4133 117.48 10.6C115.427 10.76 113.467 11.1067 111.6 11.64C109.52 12.2267 107.813 13.08 106.48 14.2C105.173 15.32 104.2 16.5333 103.56 17.84C102.947 19.1467 102.64 20.3733 102.64 21.52C102.64 22.9067 102.987 24.0533 103.68 24.96C104.373 25.84 105.373 26.28 106.68 26.28C107.667 26.28 108.547 26 109.32 25.44C110.093 24.8533 110.707 24.1067 111.16 23.2C111.613 22.2667 111.84 21.28 111.84 20.24C111.84 19.8133 111.8 19.4533 111.72 19.16C111.64 18.8667 111.6 18.64 111.6 18.48C111.6 18.2933 111.667 18.2 111.8 18.2C111.987 18.2 112.16 18.36 112.32 18.68C112.587 19.2933 112.72 19.8933 112.72 20.48C112.72 21.7333 112.413 22.8667 111.8 23.88C111.187 24.8667 110.4 25.6533 109.44 26.24C108.48 26.8267 107.467 27.12 106.4 27.12C105.147 27.12 104.053 26.8267 103.12 26.24C102.213 25.6267 101.507 24.8267 101 23.84C100.493 22.8533 100.24 21.7867 100.24 20.64C100.24 19.3333 100.6 18.0133 101.32 16.68C102.04 15.32 103.2 14.0933 104.8 13C106.4 11.88 108.507 11.0267 111.12 10.44C113.307 9.96 115.533 9.65333 117.8 9.52C120.067 9.36 122.067 9.2 123.8 9.04C124.733 7.6 125.493 6.69333 126.08 6.32C126.667 5.92 127.2 5.72 127.68 5.72C128.16 5.72 128.533 5.85333 128.8 6.12C129.093 6.38666 129.24 6.70666 129.24 7.08C129.24 7.61333 128.867 8.18667 128.12 8.8C127.4 9.38667 126.173 9.77333 124.44 9.96C123.587 11.5333 122.8 13.2933 122.08 15.24C121.36 17.16 120.64 19.1733 119.92 21.28C119.2 23.3867 118.413 25.48 117.56 27.56C116.12 31.0267 114.413 34.0667 112.44 36.68C110.467 39.2667 108.147 41.28 105.48 42.72C102.813 44.16 99.7333 44.88 96.24 44.88ZM125.2 8.96C125.867 8.90667 126.507 8.72 127.12 8.4C127.733 8.05333 128.04 7.68 128.04 7.28C128.04 7.01333 127.907 6.88 127.64 6.88C127.4 6.88 127.067 7.04 126.64 7.36C126.213 7.65333 125.733 8.18667 125.2 8.96ZM131.165 37.4C131.138 37.6667 130.978 37.8533 130.685 37.96C130.418 38.04 130.152 38.08 129.885 38.08C129.458 38.08 129.138 38.1467 128.925 38.28C128.925 37.7467 129.072 37 129.365 36.04C129.658 35.0533 130.005 34 130.405 32.88C130.832 31.7333 131.258 30.6667 131.685 29.68C132.138 28.6667 132.512 27.88 132.805 27.32C133.445 26.1467 133.978 25.4 134.405 25.08C134.858 24.76 135.378 24.6 135.965 24.6C136.498 24.6 136.872 24.6267 137.085 24.68C137.325 24.7067 137.498 24.72 137.605 24.72C137.018 25.04 136.325 25.7867 135.525 26.96C134.752 28.1333 134.018 29.44 133.325 30.88C133.538 30.6667 133.778 30.4933 134.045 30.36C134.338 30.2267 134.672 30.16 135.045 30.16C135.552 30.16 135.992 30.2533 136.365 30.44C136.738 30.6 137.258 30.68 137.925 30.68C138.432 30.68 138.765 30.52 138.925 30.2C139.352 29.24 139.792 28.3067 140.245 27.4C140.698 26.4667 141.072 25.6933 141.365 25.08C141.525 24.7333 141.738 24.5067 142.005 24.4C142.298 24.2933 142.618 24.24 142.965 24.24H145.125C144.672 24.6133 144.285 24.96 143.965 25.28C143.672 25.5733 143.378 25.9333 143.085 26.36C142.818 26.7867 142.472 27.4 142.045 28.2C141.698 28.8667 141.285 29.7333 140.805 30.8C140.325 31.8667 139.965 32.8133 139.725 33.64C139.618 33.9333 139.525 34.28 139.445 34.68C139.392 35.08 139.365 35.4533 139.365 35.8C139.365 36.2267 139.432 36.5867 139.565 36.88C139.698 37.1733 139.925 37.32 140.245 37.32C140.752 37.32 141.272 37.1067 141.805 36.68C142.338 36.2267 142.858 35.6533 143.365 34.96C143.872 34.24 144.338 33.4667 144.765 32.64C145.218 31.8133 145.605 31.0267 145.925 30.28C146.138 30.28 146.272 30.3067 146.325 30.36C146.378 30.4133 146.405 30.5067 146.405 30.64C146.085 31.44 145.685 32.2933 145.205 33.2C144.752 34.08 144.218 34.9067 143.605 35.68C143.018 36.4533 142.365 37.0933 141.645 37.6C140.952 38.08 140.205 38.32 139.405 38.32C138.605 38.32 138.032 38.08 137.685 37.6C137.365 37.12 137.205 36.52 137.205 35.8C137.205 35.4267 137.245 35.0267 137.325 34.6C137.432 34.1733 137.552 33.7467 137.685 33.32C137.792 33 137.912 32.6667 138.045 32.32C138.178 31.9467 138.325 31.5867 138.485 31.24C138.325 31.4533 138.125 31.6267 137.885 31.76C137.645 31.8667 137.338 31.92 136.965 31.92C136.592 31.92 136.285 31.8667 136.045 31.76C135.805 31.6533 135.552 31.5467 135.285 31.44C135.018 31.3333 134.672 31.28 134.245 31.28C133.978 31.28 133.698 31.3333 133.405 31.44C133.138 31.5467 132.925 31.7867 132.765 32.16C132.365 33.0933 132.018 34.0133 131.725 34.92C131.458 35.8267 131.272 36.6533 131.165 37.4ZM147.098 38C146.805 38 146.445 37.9333 146.018 37.8C145.618 37.6667 145.258 37.4267 144.938 37.08C144.645 36.7067 144.498 36.16 144.498 35.44C144.498 34.7467 144.725 33.9467 145.178 33.04C145.631 32.1333 146.031 31.3333 146.378 30.64C146.085 30.64 145.938 30.52 145.938 30.28C145.965 30.2 146.085 29.9467 146.298 29.52C146.511 29.0933 146.765 28.5867 147.058 28C147.351 27.4133 147.631 26.8533 147.898 26.32C148.191 25.76 148.418 25.3333 148.578 25.04C148.898 24.4533 149.405 24.16 150.098 24.16H152.578C152.125 24.5067 151.711 24.8933 151.338 25.32C150.991 25.72 150.551 26.4667 150.018 27.56C150.018 27.56 149.925 27.7467 149.738 28.12C149.551 28.4933 149.311 28.9733 149.018 29.56C148.751 30.12 148.471 30.6933 148.178 31.28C147.911 31.8667 147.685 32.36 147.498 32.76C147.151 33.5067 146.925 34.1067 146.818 34.56C146.711 34.9867 146.658 35.3867 146.658 35.76C146.658 36.64 146.951 37.08 147.538 37.08C148.178 37.08 148.951 36.56 149.858 35.52C150.605 34.64 151.338 33.5867 152.058 32.36C152.778 31.1333 153.458 29.8667 154.098 28.56C154.765 27.2533 155.351 26.08 155.858 25.04C156.151 24.4533 156.671 24.16 157.418 24.16H159.618C159.031 24.64 158.431 25.36 157.818 26.32C157.231 27.28 156.578 28.5067 155.858 30C155.671 30.4 155.431 30.9067 155.138 31.52C154.845 32.1333 154.578 32.7867 154.338 33.48C154.125 34.1733 154.018 34.8667 154.018 35.56C154.018 36.4933 154.351 36.96 155.018 36.96C155.925 36.96 156.805 36.3333 157.658 35.08C158.511 33.8267 159.351 32.2267 160.178 30.28C160.391 30.28 160.511 30.2933 160.538 30.32C160.591 30.3467 160.631 30.4533 160.658 30.64C160.365 31.36 160.005 32.1467 159.578 33C159.178 33.8267 158.711 34.6267 158.178 35.4C157.671 36.1733 157.098 36.8 156.458 37.28C155.845 37.76 155.165 38 154.418 38C153.751 38 153.205 37.76 152.778 37.28C152.351 36.7733 152.138 36.0667 152.138 35.16C152.138 34.44 152.271 33.6667 152.538 32.84C152.085 33.64 151.565 34.44 150.978 35.24C150.391 36.04 149.765 36.7067 149.098 37.24C148.431 37.7467 147.765 38 147.098 38ZM160.196 30.28C160.703 29.1867 161.249 28.16 161.836 27.2C162.423 26.24 163.089 25.4667 163.836 24.88C164.609 24.2933 165.516 24 166.556 24C167.489 24 168.183 24.2267 168.636 24.68C169.089 25.1067 169.316 25.6933 169.316 26.44C169.316 27.2667 169.103 28.04 168.676 28.76C168.249 29.48 167.716 30.16 167.076 30.8C166.436 31.44 165.796 32.0533 165.156 32.64C164.516 33.2267 163.983 33.8 163.556 34.36C163.129 34.92 162.916 35.4933 162.916 36.08C162.916 36.56 163.103 36.9067 163.476 37.12C163.876 37.3067 164.236 37.4 164.556 37.4C165.169 37.4 165.796 37.1467 166.436 36.64C167.076 36.1333 167.689 35.5067 168.276 34.76C168.863 33.9867 169.396 33.2 169.876 32.4C170.356 31.6 170.729 30.8933 170.996 30.28C171.369 30.28 171.529 30.4 171.476 30.64C170.249 33.0667 169.023 34.96 167.796 36.32C166.569 37.6533 165.289 38.32 163.956 38.32C163.583 38.32 163.156 38.2267 162.676 38.04C162.223 37.88 161.836 37.6 161.516 37.2C161.196 36.8 161.036 36.28 161.036 35.64C161.036 34.8933 161.249 34.1867 161.676 33.52C162.103 32.8533 162.623 32.2133 163.236 31.6C163.876 30.96 164.516 30.36 165.156 29.8C165.796 29.2133 166.329 28.6533 166.756 28.12C167.183 27.56 167.396 27.0133 167.396 26.48C167.396 26.0267 167.276 25.6667 167.036 25.4C166.796 25.1067 166.369 24.96 165.756 24.96C164.796 24.96 163.889 25.5067 163.036 26.6C162.183 27.6667 161.396 29.0133 160.676 30.64L160.196 30.28ZM179.657 38.12C179.044 38.12 178.497 37.9467 178.017 37.6C177.564 37.2533 177.337 36.5467 177.337 35.48C177.337 35.0267 177.364 34.6 177.417 34.2C177.497 33.8 177.591 33.3733 177.697 32.92C177.457 33.32 177.124 33.8133 176.697 34.4C176.271 34.9867 175.791 35.56 175.257 36.12C174.751 36.68 174.217 37.1467 173.657 37.52C173.124 37.8933 172.617 38.08 172.137 38.08C171.444 38.08 170.884 37.7733 170.457 37.16C170.031 36.52 169.817 35.6933 169.817 34.68C169.817 33.5867 170.071 32.4133 170.577 31.16C171.084 29.9067 171.777 28.7067 172.657 27.56C173.537 26.4133 174.551 25.48 175.697 24.76C176.844 24.04 178.044 23.68 179.297 23.68C179.911 23.68 180.497 23.7867 181.057 24C181.617 24.1867 182.111 24.5067 182.537 24.96C182.724 25.1467 182.817 25.36 182.817 25.6C182.817 25.76 182.751 25.8933 182.617 26C182.484 26.1067 182.311 26.1333 182.097 26.08C181.804 25.1467 181.177 24.68 180.217 24.68C179.764 24.68 179.244 24.8267 178.657 25.12C177.937 25.4933 177.164 26.0933 176.337 26.92C175.537 27.72 174.777 28.64 174.057 29.68C173.364 30.6933 172.791 31.72 172.337 32.76C171.884 33.8 171.657 34.7467 171.657 35.6C171.657 36.48 171.991 36.92 172.657 36.92C173.244 36.92 173.844 36.64 174.457 36.08C175.097 35.52 175.697 34.8267 176.257 34C176.844 33.1467 177.377 32.3067 177.857 31.48C178.337 30.6533 178.711 29.9867 178.977 29.48C179.377 28.76 179.751 28.16 180.097 27.68C180.444 27.2 180.937 26.96 181.577 26.96C181.871 26.96 182.164 27 182.457 27.08C182.751 27.16 183.057 27.1733 183.377 27.12C182.577 27.92 181.871 28.8667 181.257 29.96C180.671 31.0533 180.217 32.1333 179.897 33.2C179.577 34.24 179.417 35.12 179.417 35.84C179.417 36.64 179.684 37.04 180.217 37.04C180.644 37.04 181.097 36.8 181.577 36.32C182.084 35.84 182.564 35.24 183.017 34.52C183.497 33.7733 183.937 33.0267 184.337 32.28C184.737 31.5067 185.057 30.84 185.297 30.28C185.431 30.28 185.537 30.2933 185.617 30.32C185.724 30.3467 185.777 30.4533 185.777 30.64C185.751 30.7467 185.697 30.8667 185.617 31C185.564 31.1067 185.471 31.3067 185.337 31.6C185.124 32.0267 184.831 32.6 184.457 33.32C184.084 34.04 183.644 34.7733 183.137 35.52C182.631 36.24 182.084 36.8533 181.497 37.36C180.911 37.8667 180.297 38.12 179.657 38.12Z" fill="#5C4F45"/>
<path d="M79.52 63.32C80.48 61.3733 81.4 59.4533 82.28 57.56C83.16 55.64 84.0667 53.8133 85 52.08C85.5333 51.12 85.9867 50.4533 86.36 50.08C86.7333 49.68 87.2267 49.48 87.84 49.48C88.0533 49.48 88.28 49.52 88.52 49.6C88.76 49.6533 89 49.68 89.24 49.68C89.4 49.68 89.52 49.6667 89.6 49.64C89.2267 49.8533 88.7333 50.3867 88.12 51.24C87.5333 52.0667 86.9333 53.0267 86.32 54.12C85.7067 55.2133 85.16 56.24 84.68 57.2C85.1867 56.5867 85.72 55.9733 86.28 55.36C86.84 54.7467 87.4533 54.16 88.12 53.6C88.76 53.04 89.52 52.4667 90.4 51.88C91.3067 51.2667 92.1867 50.76 93.04 50.36C93.8933 49.96 94.5733 49.76 95.08 49.76C95.2667 49.76 95.4 49.7733 95.48 49.8C95.48 49.8 95.3333 50.0667 95.04 50.6C94.7467 51.1067 94.3733 51.7867 93.92 52.64C93.4933 53.4667 93.0533 54.36 92.6 55.32C92.1467 56.2533 91.7333 57.16 91.36 58.04C91.0133 58.8933 90.7867 59.6133 90.68 60.2C90.6 60.5467 90.56 60.8667 90.56 61.16C90.56 61.5867 90.64 61.8667 90.8 62C90.96 62.1333 91.1333 62.2 91.32 62.2C91.8267 62.2 92.3467 61.9733 92.88 61.52C93.4133 61.0667 93.92 60.4933 94.4 59.8C94.9067 59.08 95.3733 58.32 95.8 57.52C96.2267 56.72 96.5867 55.9733 96.88 55.28C97.2 55.28 97.36 55.4 97.36 55.64C97.0667 56.36 96.6933 57.16 96.24 58.04C95.8133 58.8933 95.32 59.7067 94.76 60.48C94.2267 61.2533 93.6267 61.8933 92.96 62.4C92.2933 62.9067 91.5733 63.16 90.8 63.16C90.2667 63.16 89.7067 62.9733 89.12 62.6C88.56 62.2267 88.28 61.5333 88.28 60.52C88.28 60.2267 88.3067 59.92 88.36 59.6C88.4133 59.2533 88.5067 58.88 88.64 58.48C88.8533 57.9467 89.1067 57.3733 89.4 56.76C89.6933 56.1467 90.1733 55.3067 90.84 54.24C91.0267 53.9467 91.1333 53.72 91.16 53.56C91.2133 53.4 91.24 53.2667 91.24 53.16C91.24 52.84 91.0933 52.68 90.8 52.68C90.56 52.68 90.2 52.8133 89.72 53.08C89.2667 53.3467 88.6933 53.8133 88 54.48C87.3333 55.12 86.5333 56.0267 85.6 57.2C84.6933 58.3733 83.64 60.1067 82.44 62.4C82.2533 62.7467 82.04 62.9333 81.8 62.96C81.5867 62.9867 81.28 63.0133 80.88 63.04C80.6133 63.0667 80.36 63.08 80.12 63.08C79.88 63.1067 79.68 63.1867 79.52 63.32ZM105.556 63.12C104.942 63.12 104.396 62.9467 103.916 62.6C103.462 62.2533 103.236 61.5467 103.236 60.48C103.236 60.0267 103.262 59.6 103.316 59.2C103.396 58.8 103.489 58.3733 103.596 57.92C103.356 58.32 103.022 58.8133 102.596 59.4C102.169 59.9867 101.689 60.56 101.156 61.12C100.649 61.68 100.116 62.1467 99.5556 62.52C99.0223 62.8933 98.5156 63.08 98.0356 63.08C97.3423 63.08 96.7823 62.7733 96.3556 62.16C95.929 61.52 95.7156 60.6933 95.7156 59.68C95.7156 58.5867 95.969 57.4133 96.4756 56.16C96.9823 54.9067 97.6756 53.7067 98.5556 52.56C99.4356 51.4133 100.449 50.48 101.596 49.76C102.742 49.04 103.942 48.68 105.196 48.68C105.809 48.68 106.396 48.7867 106.956 49C107.516 49.1867 108.009 49.5067 108.436 49.96C108.622 50.1467 108.716 50.36 108.716 50.6C108.716 50.76 108.649 50.8933 108.516 51C108.382 51.1067 108.209 51.1333 107.996 51.08C107.702 50.1467 107.076 49.68 106.116 49.68C105.662 49.68 105.142 49.8267 104.556 50.12C103.836 50.4933 103.062 51.0933 102.236 51.92C101.436 52.72 100.676 53.64 99.9556 54.68C99.2623 55.6933 98.689 56.72 98.2356 57.76C97.7823 58.8 97.5556 59.7467 97.5556 60.6C97.5556 61.48 97.889 61.92 98.5556 61.92C99.1423 61.92 99.7423 61.64 100.356 61.08C100.996 60.52 101.596 59.8267 102.156 59C102.742 58.1467 103.276 57.3067 103.756 56.48C104.236 55.6533 104.609 54.9867 104.876 54.48C105.276 53.76 105.649 53.16 105.996 52.68C106.342 52.2 106.836 51.96 107.476 51.96C107.769 51.96 108.062 52 108.356 52.08C108.649 52.16 108.956 52.1733 109.276 52.12C108.476 52.92 107.769 53.8667 107.156 54.96C106.569 56.0533 106.116 57.1333 105.796 58.2C105.476 59.24 105.316 60.12 105.316 60.84C105.316 61.64 105.582 62.04 106.116 62.04C106.649 62.04 107.222 61.68 107.836 60.96C108.449 60.2133 109.022 59.3867 109.556 58.48C109.689 58.48 109.782 58.5333 109.836 58.64C109.916 58.7467 109.956 58.8533 109.956 58.96C109.582 59.6267 109.156 60.28 108.676 60.92C108.222 61.56 107.729 62.0933 107.196 62.52C106.689 62.92 106.142 63.12 105.556 63.12ZM130.612 53.76C130.372 54.24 130.078 54.84 129.732 55.56C129.412 56.2533 129.092 56.9733 128.772 57.72C128.478 58.44 128.238 59.1333 128.052 59.8C127.892 60.44 127.838 60.96 127.892 61.36C127.972 61.76 128.238 61.96 128.692 61.96C129.278 61.96 129.852 61.6933 130.412 61.16C130.972 60.6267 131.505 59.9733 132.012 59.2C132.412 59.2 132.612 59.3333 132.612 59.6C132.025 60.56 131.345 61.36 130.572 62C129.825 62.64 128.972 62.96 128.012 62.96C127.132 62.96 126.532 62.6933 126.212 62.16C125.892 61.6267 125.785 60.92 125.892 60.04C126.025 59.1333 126.292 58.1333 126.692 57.04C127.118 55.92 127.625 54.7867 128.212 53.64C128.798 52.4933 129.398 51.4133 130.012 50.4C130.118 50.2133 130.118 50.12 130.012 50.12C129.932 50.12 129.758 50.2667 129.492 50.56C129.225 50.8533 129.065 51.0267 129.012 51.08C128.318 51.8533 127.665 52.76 127.052 53.8C126.465 54.8133 125.878 55.8533 125.292 56.92C124.732 57.9867 124.158 58.9867 123.572 59.92C122.985 60.8267 122.372 61.56 121.732 62.12C121.092 62.68 120.385 62.96 119.612 62.96C118.758 62.96 118.212 62.6133 117.972 61.92C117.758 61.2 117.785 60.24 118.052 59.04C118.345 57.84 118.838 56.4933 119.532 55C120.225 53.5067 121.052 51.9733 122.012 50.4C122.118 50.2133 122.105 50.12 121.972 50.12C121.838 50.12 121.558 50.3333 121.132 50.76C120.838 51.0533 120.545 51.3867 120.252 51.76C119.985 52.1333 119.625 52.6933 119.172 53.44C118.718 54.16 118.078 55.24 117.252 56.68C116.638 57.7467 115.998 58.7733 115.332 59.76C114.692 60.7467 114.012 61.56 113.292 62.2C112.572 62.8133 111.785 63.12 110.932 63.12C110.292 63.12 109.718 62.9333 109.212 62.56C108.705 62.16 108.452 61.5867 108.452 60.84C108.452 60.3867 108.558 59.8933 108.772 59.36C108.958 58.8267 109.238 58.3733 109.612 58C110.012 57.6267 110.492 57.4667 111.052 57.52C111.425 57.5467 111.758 57.6933 112.052 57.96C111.572 58.4133 111.198 58.9467 110.932 59.56C110.665 60.1733 110.532 60.7067 110.532 61.16C110.532 61.4267 110.585 61.68 110.692 61.92C110.825 62.1333 111.038 62.24 111.332 62.24C111.865 62.24 112.412 61.96 112.972 61.4C113.532 60.8133 114.105 60.0667 114.692 59.16C115.305 58.2267 115.905 57.2667 116.492 56.28C117.425 54.7067 118.238 53.4 118.932 52.36C119.652 51.32 120.318 50.5467 120.932 50.04C121.332 49.6933 121.678 49.48 121.972 49.4C122.265 49.2933 122.558 49.24 122.852 49.24H123.132C124.225 49.24 124.532 49.7467 124.052 50.76L122.612 53.76C122.372 54.24 122.078 54.84 121.732 55.56C121.412 56.2533 121.092 56.9733 120.772 57.72C120.452 58.44 120.198 59.1333 120.012 59.8C119.825 60.44 119.758 60.96 119.812 61.36C119.865 61.76 120.105 61.96 120.532 61.96C120.878 61.96 121.292 61.6667 121.772 61.08C122.278 60.4667 122.812 59.6933 123.372 58.76C123.958 57.8267 124.545 56.84 125.132 55.8C125.745 54.76 126.345 53.7733 126.932 52.84C127.545 51.9067 128.118 51.16 128.652 50.6C128.785 50.4667 129.078 50.2133 129.532 49.84C129.985 49.44 130.425 49.24 130.852 49.24H131.132C131.612 49.24 131.945 49.36 132.132 49.6C132.318 49.8133 132.278 50.2 132.012 50.76L130.612 53.76ZM133.676 62.4C134.13 62.4 134.69 62.1467 135.356 61.64C136.05 61.1067 136.77 60.44 137.516 59.64C138.263 58.8133 138.956 57.9467 139.596 57.04C139.276 57.12 138.943 57.16 138.596 57.16C137.636 57.16 136.93 56.9067 136.476 56.4C136.05 55.8933 135.836 55.2667 135.836 54.52C135.836 53.72 136.063 52.8933 136.516 52.04C136.97 51.16 137.596 50.4267 138.396 49.84C139.223 49.2533 140.143 48.96 141.156 48.96C142.49 48.96 143.29 49.5333 143.556 50.68C143.636 50.4667 143.73 50.2667 143.836 50.08C143.996 49.76 144.21 49.5467 144.476 49.44C144.743 49.3067 145.063 49.24 145.436 49.24H147.596C147.356 49.4267 146.903 49.8667 146.236 50.56C145.596 51.2267 144.85 52.4267 143.996 54.16C143.703 54.7467 143.383 55.44 143.036 56.24C142.69 57.04 142.396 57.8533 142.156 58.68C141.916 59.5067 141.796 60.24 141.796 60.88C141.796 61.76 142.103 62.2 142.716 62.2C143.223 62.2 143.73 61.9733 144.236 61.52C144.77 61.04 145.276 60.44 145.756 59.72C146.263 59 146.73 58.2533 147.156 57.48C147.583 56.68 147.93 55.9467 148.196 55.28C148.516 55.28 148.676 55.4 148.676 55.64C148.383 56.3333 148.01 57.12 147.556 58C147.13 58.88 146.623 59.7333 146.036 60.56C145.45 61.36 144.796 62.0267 144.076 62.56C143.383 63.0667 142.61 63.32 141.756 63.32C141.01 63.32 140.476 63.1067 140.156 62.68C139.863 62.2533 139.716 61.6933 139.716 61C139.716 60.3333 139.823 59.6133 140.036 58.84C140.25 58.0667 140.503 57.3067 140.796 56.56V56.6C139.996 57.6933 139.17 58.7467 138.316 59.76C137.463 60.7733 136.596 61.6133 135.716 62.28C134.836 62.9467 133.996 63.28 133.196 63.28C132.423 63.28 131.823 63.0533 131.396 62.6C130.97 62.1467 130.756 61.5733 130.756 60.88C130.756 60.3467 130.89 59.84 131.156 59.36C131.423 58.88 131.756 58.48 132.156 58.16C132.556 57.84 132.97 57.68 133.396 57.68C133.583 57.68 133.756 57.7067 133.916 57.76C134.103 57.8133 134.276 57.9067 134.436 58.04C133.93 58.4667 133.543 58.9867 133.276 59.6C133.01 60.2133 132.876 60.7467 132.876 61.2C132.876 61.52 132.93 61.8 133.036 62.04C133.17 62.28 133.383 62.4 133.676 62.4ZM138.996 56.56C139.663 56.56 140.25 56.2933 140.756 55.76C141.263 55.2 141.663 54.52 141.956 53.72C142.276 52.8933 142.436 52.1067 142.436 51.36C142.436 50.2133 142.09 49.64 141.396 49.64C140.97 49.64 140.543 49.8267 140.116 50.2C139.69 50.5467 139.29 51.0133 138.916 51.6C138.543 52.16 138.236 52.7467 137.996 53.36C137.783 53.9733 137.676 54.5333 137.676 55.04C137.676 55.4667 137.77 55.8267 137.956 56.12C138.17 56.4133 138.516 56.56 138.996 56.56ZM161.643 47.28C160.976 47.28 160.269 47.1867 159.523 47C158.803 46.8133 158.069 46.6267 157.323 46.44C156.603 46.2533 155.923 46.16 155.283 46.16C154.749 46.16 154.256 46.2533 153.803 46.44C153.349 46.6 152.976 46.9333 152.683 47.44L152.563 47.64C152.483 47.7467 152.416 47.8 152.363 47.8C152.309 47.8 152.256 47.76 152.203 47.68C152.149 47.6 152.136 47.5067 152.163 47.4C152.456 46.6533 152.989 46.0667 153.763 45.64C154.536 45.1867 155.416 44.96 156.403 44.96C157.096 44.96 157.976 45.0533 159.043 45.24C160.136 45.4267 161.123 45.52 162.003 45.52C162.563 45.52 163.189 45.4933 163.883 45.44C164.603 45.36 165.283 45.1867 165.923 44.92C166.589 44.6267 167.096 44.16 167.443 43.52C167.709 43.52 167.843 43.6133 167.843 43.8C167.336 45 166.643 45.88 165.763 46.44C164.883 47 163.509 47.28 161.643 47.28ZM145.723 63C145.429 63 145.189 63 145.003 63C144.789 63.0267 144.576 63.0933 144.363 63.2C145.349 61.3067 146.283 59.4133 147.163 57.52C148.043 55.6 148.936 53.7867 149.843 52.08C150.376 51.12 150.816 50.4533 151.163 50.08C151.536 49.68 152.029 49.48 152.643 49.48C152.856 49.48 153.083 49.52 153.323 49.6C153.563 49.6533 153.803 49.68 154.043 49.68C154.203 49.68 154.323 49.6667 154.403 49.64C154.029 49.8533 153.549 50.3867 152.963 51.24C152.376 52.0667 151.776 53.0267 151.163 54.12C150.549 55.2133 150.003 56.24 149.523 57.2C150.029 56.5867 150.549 55.9733 151.083 55.36C151.643 54.7467 152.256 54.16 152.923 53.6C153.509 53.0933 154.123 52.5467 154.763 51.96C155.429 51.3467 156.083 50.8267 156.723 50.4C157.363 49.9733 157.923 49.76 158.403 49.76C158.589 49.76 158.709 49.7733 158.763 49.8C159.269 50.0133 159.523 50.36 159.523 50.84C159.523 51 159.456 51.24 159.323 51.56C158.976 52.4667 158.523 53.4 157.963 54.36C157.429 55.2933 156.923 56.24 156.443 57.2C156.843 56.72 157.336 56.1333 157.923 55.44C158.536 54.7467 159.149 54.1333 159.763 53.6C160.349 53.0667 161.096 52.5067 162.003 51.92C162.909 51.3333 163.803 50.8267 164.683 50.4C165.563 49.9733 166.269 49.76 166.803 49.76C166.989 49.76 167.123 49.7733 167.203 49.8C167.203 49.8 167.056 50.0667 166.763 50.6C166.469 51.1067 166.096 51.7867 165.643 52.64C165.216 53.4667 164.776 54.36 164.323 55.32C163.869 56.2533 163.456 57.16 163.083 58.04C162.736 58.8933 162.509 59.6133 162.403 60.2C162.323 60.5467 162.283 60.8667 162.283 61.16C162.283 61.5867 162.363 61.8667 162.523 62C162.683 62.1333 162.856 62.2 163.043 62.2C163.576 62.2 164.096 61.9733 164.603 61.52C165.136 61.0667 165.656 60.4933 166.163 59.8C166.669 59.08 167.123 58.32 167.523 57.52C167.949 56.72 168.309 55.9733 168.603 55.28C168.923 55.28 169.083 55.4 169.083 55.64C168.789 56.36 168.416 57.16 167.963 58.04C167.536 58.8933 167.043 59.7067 166.483 60.48C165.923 61.2533 165.309 61.8933 164.643 62.4C163.976 62.9067 163.256 63.16 162.483 63.16C161.923 63.16 161.389 62.9733 160.883 62.6C160.403 62.2267 160.163 61.5333 160.163 60.52C160.163 59.4267 160.416 58.3333 160.923 57.24C161.456 56.1467 162.003 55.1467 162.563 54.24C162.829 53.7867 162.963 53.4267 162.963 53.16C162.963 52.84 162.803 52.68 162.483 52.68C162.216 52.68 161.843 52.8133 161.363 53.08C160.909 53.3467 160.336 53.8133 159.643 54.48C159.216 54.88 158.709 55.44 158.123 56.16C157.563 56.8533 156.989 57.6133 156.403 58.44C155.816 59.2667 155.309 60.08 154.883 60.88C154.456 61.68 154.176 62.3867 154.043 63C153.643 63 153.323 62.84 153.083 62.52C152.843 62.1733 152.723 61.7733 152.723 61.32C152.723 61.24 152.723 61.16 152.723 61.08C152.723 61 152.736 60.9067 152.763 60.8C152.896 59.9733 153.109 59.28 153.403 58.72C153.696 58.1333 154.029 57.4533 154.403 56.68C154.589 56.3333 154.803 55.9333 155.043 55.48C155.283 55 155.496 54.5467 155.683 54.12C155.869 53.6667 155.963 53.2933 155.963 53C155.963 52.7333 155.856 52.6 155.643 52.6C155.403 52.6 155.083 52.72 154.683 52.96C154.309 53.2 153.949 53.48 153.603 53.8C153.256 54.0933 152.989 54.32 152.803 54.48C152.136 55.12 151.323 56.04 150.363 57.24C149.429 58.44 148.403 60.1467 147.283 62.36C147.123 62.6533 146.936 62.84 146.723 62.92C146.509 62.9733 146.176 63 145.723 63ZM169.754 63C169.461 63 169.101 62.9333 168.674 62.8C168.274 62.6667 167.914 62.4267 167.594 62.08C167.301 61.7067 167.154 61.16 167.154 60.44C167.154 59.7467 167.381 58.9467 167.834 58.04C168.288 57.1333 168.688 56.3333 169.034 55.64C168.741 55.64 168.594 55.52 168.594 55.28C168.621 55.2 168.741 54.9467 168.954 54.52C169.168 54.0933 169.421 53.5867 169.714 53C170.008 52.4133 170.288 51.8533 170.554 51.32C170.848 50.76 171.074 50.3333 171.234 50.04C171.554 49.4533 172.061 49.16 172.754 49.16H175.234C174.781 49.5067 174.368 49.8933 173.994 50.32C173.648 50.72 173.208 51.4667 172.674 52.56C172.674 52.56 172.581 52.7467 172.394 53.12C172.208 53.4933 171.968 53.9733 171.674 54.56C171.408 55.12 171.128 55.6933 170.834 56.28C170.568 56.8667 170.341 57.36 170.154 57.76C169.808 58.5067 169.581 59.1067 169.474 59.56C169.368 59.9867 169.314 60.3867 169.314 60.76C169.314 61.64 169.608 62.08 170.194 62.08C170.834 62.08 171.608 61.56 172.514 60.52C173.261 59.64 173.994 58.5867 174.714 57.36C175.434 56.1333 176.114 54.8667 176.754 53.56C177.421 52.2533 178.008 51.08 178.514 50.04C178.808 49.4533 179.328 49.16 180.074 49.16H182.274C181.688 49.64 181.088 50.36 180.474 51.32C179.888 52.28 179.234 53.5067 178.514 55C178.328 55.4 178.088 55.9067 177.794 56.52C177.501 57.1333 177.234 57.7867 176.994 58.48C176.781 59.1733 176.674 59.8667 176.674 60.56C176.674 61.4933 177.008 61.96 177.674 61.96C178.581 61.96 179.461 61.3333 180.314 60.08C181.168 58.8267 182.008 57.2267 182.834 55.28C183.048 55.28 183.168 55.2933 183.194 55.32C183.248 55.3467 183.288 55.4533 183.314 55.64C183.021 56.36 182.661 57.1467 182.234 58C181.834 58.8267 181.368 59.6267 180.834 60.4C180.328 61.1733 179.754 61.8 179.114 62.28C178.501 62.76 177.821 63 177.074 63C176.408 63 175.861 62.76 175.434 62.28C175.008 61.7733 174.794 61.0667 174.794 60.16C174.794 59.44 174.928 58.6667 175.194 57.84C174.741 58.64 174.221 59.44 173.634 60.24C173.048 61.04 172.421 61.7067 171.754 62.24C171.088 62.7467 170.421 63 169.754 63Z" fill="#5C4F45"/>
<path d="M165.621 16V1.80078H174.078V3.7832H167.857V16H165.621ZM176.285 16V1.80078H178.521V12.8359L186.109 1.80078H188.209V16H185.963V5.17969L178.463 16H176.285ZM197.477 1.72266C198.72 1.72266 199.811 2.00586 200.748 2.57227C201.692 3.13216 202.402 3.88086 202.877 4.81836L201.119 6C200.93 5.58984 200.693 5.23503 200.406 4.93555C200.12 4.62956 199.807 4.39518 199.469 4.23242C199.13 4.06315 198.788 3.93945 198.443 3.86133C198.105 3.7832 197.757 3.74414 197.398 3.74414C196.826 3.74414 196.292 3.84505 195.797 4.04688C195.302 4.24219 194.879 4.50586 194.527 4.83789C194.176 5.16992 193.873 5.55729 193.619 6C193.365 6.44271 193.176 6.9082 193.053 7.39648C192.936 7.88477 192.877 8.37956 192.877 8.88086C192.877 9.79883 193.069 10.6549 193.453 11.4492C193.844 12.2435 194.394 12.8848 195.104 13.373C195.813 13.8548 196.598 14.0957 197.457 14.0957C197.945 14.0957 198.421 14.0208 198.883 13.8711C199.352 13.7148 199.801 13.4577 200.23 13.0996C200.667 12.735 201.002 12.2891 201.236 11.7617L203.102 12.8164C202.822 13.4935 202.366 14.0892 201.734 14.6035C201.103 15.1178 200.41 15.4987 199.654 15.7461C198.899 15.9935 198.141 16.1172 197.379 16.1172C196.415 16.1172 195.504 15.9056 194.645 15.4824C193.792 15.0592 193.072 14.5026 192.486 13.8125C191.907 13.1224 191.448 12.3411 191.109 11.4688C190.771 10.5898 190.602 9.70117 190.602 8.80273C190.602 8.11263 190.699 7.42904 190.895 6.75195C191.09 6.06836 191.383 5.42708 191.773 4.82812C192.171 4.22266 192.639 3.6888 193.18 3.22656C193.72 2.76432 194.361 2.39974 195.104 2.13281C195.846 1.85938 196.637 1.72266 197.477 1.72266Z" fill="#A9896A"/>
</svg>
