<svg width="203" height="79" viewBox="0 0 203 79" fill="none" xmlns="http://www.w3.org/2000/svg">
<path fill-rule="evenodd" clip-rule="evenodd" d="M34.5938 0.126648C35.9021 1.05985 37.6066 0.962465 39.0014 1.6931C41.1261 2.67996 41.8844 5.19743 41.396 7.33551C40.0842 7.56487 38.6302 7.41604 37.5439 6.60044C35.5649 5.07993 34.7349 2.511 34.5938 0.126648Z" fill="#A9896A"/>
<path fill-rule="evenodd" clip-rule="evenodd" d="M35.2891 1.21643C36.6792 1.88995 38.2983 2.18316 39.4564 3.2572C40.3868 4.14109 40.6896 5.47589 40.6223 6.70895C37.58 6.81973 35.6875 3.85471 35.2891 1.21643Z" fill="#A9896A"/>
<path fill-rule="evenodd" clip-rule="evenodd" d="M31.161 2.41357C33.3313 3.4015 35.2374 5.31367 35.6645 7.69014C35.899 9.11894 35.316 10.6384 34.2479 11.6185C32.0708 10.9001 30.5998 8.49687 30.9607 6.23792C31.1508 4.97018 31.5812 3.69018 31.161 2.41357Z" fill="#A9896A"/>
<path fill-rule="evenodd" clip-rule="evenodd" d="M37.3125 3.02448C38.5571 3.77302 39.9848 4.75758 40.2832 6.249C38.8792 5.66053 38.0264 4.28654 37.3125 3.02448Z" fill="#A9896A"/>
<path fill-rule="evenodd" clip-rule="evenodd" d="M23.4375 3.06253C24.7482 3.58616 26.2807 3.01446 27.5162 3.80549C28.5718 4.38393 28.9749 5.66054 28.91 6.78505C26.3036 7.79303 23.827 5.49947 23.4375 3.06253Z" fill="#A9896A"/>
<path fill-rule="evenodd" clip-rule="evenodd" d="M32.0005 3.45526C34.3699 4.94447 35.9515 8.28543 34.0262 10.7235C33.0742 9.97038 32.2919 8.96126 32.0176 7.77413C31.6463 6.35091 32.0517 4.89417 32.0005 3.45526Z" fill="#A9896A"/>
<path fill-rule="evenodd" clip-rule="evenodd" d="M24.0547 3.66455C24.9576 3.90056 25.8947 4.00468 26.7793 4.30348C27.7039 4.59989 28.2426 5.54648 28.3235 6.45724C26.3876 6.84775 24.6388 5.38648 24.0547 3.66455Z" fill="#A9896A"/>
<path fill-rule="evenodd" clip-rule="evenodd" d="M46.8907 3.76184C48.2515 5.03172 48.9961 6.82522 49.356 8.60541C49.7829 10.8442 48.3516 13.1703 46.2145 13.977C45.9433 14.0374 45.5301 14.3888 45.3524 14.0273C44.4314 12.5616 44.0237 10.7267 44.4927 9.04284C44.9289 7.11391 46.6971 5.77912 46.8907 3.76184Z" fill="#A9896A"/>
<path fill-rule="evenodd" clip-rule="evenodd" d="M19.7031 9.7142C19.7669 7.55485 21.4247 5.84524 23.1009 4.64136C23.8158 6.30503 24.3784 8.23955 23.7453 10.0118C23.2488 11.2851 22.0248 12.169 20.7176 12.5204C20.0357 11.7998 19.8021 10.6887 19.7031 9.7142Z" fill="#A9896A"/>
<path fill-rule="evenodd" clip-rule="evenodd" d="M25.6953 4.68045C26.6744 4.75655 27.6456 5.39769 28.1136 6.23901C27.172 5.98508 26.3613 5.36293 25.6953 4.68045Z" fill="#A9896A"/>
<path fill-rule="evenodd" clip-rule="evenodd" d="M47.281 4.9054C48.1077 6.1876 48.6588 7.69471 48.6667 9.22304C48.6679 10.9293 47.4198 12.3626 45.9897 13.1883C45.852 13.2554 45.6083 13.4031 45.5343 13.1805C45.0708 12.1321 45.0914 10.936 45.2883 9.82844C45.5948 8.0572 46.8336 6.6307 47.281 4.9054Z" fill="#A9896A"/>
<path fill-rule="evenodd" clip-rule="evenodd" d="M20.8355 11.8859C19.6832 9.58549 20.9028 6.8946 22.9647 5.55981C24.0044 7.82 23.3859 10.9438 20.8355 11.8859Z" fill="#A9896A"/>
<path fill-rule="evenodd" clip-rule="evenodd" d="M50.6797 9.11346C50.7548 7.37132 52.4308 5.68974 54.2924 5.90233C55.3582 6.05559 56.3887 6.45948 57.4875 6.33983C56.2727 8.66477 53.2677 10.5848 50.6797 9.11346Z" fill="#A9896A"/>
<path fill-rule="evenodd" clip-rule="evenodd" d="M33.1618 6.11816C33.82 7.24596 34.5202 8.71725 34.0374 10.005C33.139 8.92984 33.1162 7.44178 33.1618 6.11816Z" fill="#A9896A"/>
<path fill-rule="evenodd" clip-rule="evenodd" d="M52.9244 6.80508C54.0378 6.22664 55.3017 6.60926 56.4562 6.82645C55.427 8.53145 53.1839 9.55422 51.2187 8.91193C51.3473 8.0605 52.1374 7.2393 52.9244 6.80508Z" fill="#A9896A"/>
<path fill-rule="evenodd" clip-rule="evenodd" d="M25.2126 10.2221C25.9526 9.39758 26.3911 8.38393 26.6949 7.33667C27.9953 8.70384 28.7206 10.5568 28.9142 12.4017C29.1237 14.6137 27.4692 16.6658 25.3674 17.3045C23.6355 15.36 23.5706 12.2462 25.2126 10.2221Z" fill="#A9896A"/>
<path fill-rule="evenodd" clip-rule="evenodd" d="M51.6484 8.39394C52.0698 7.41481 53.3212 7.54358 54.2114 7.5144C53.4885 8.02242 52.5492 8.37381 51.6484 8.39394Z" fill="#A9896A"/>
<path fill-rule="evenodd" clip-rule="evenodd" d="M21.2711 11.2918C20.908 10.0654 21.696 8.85268 22.4132 7.90387C22.5043 9.10767 22.148 10.4145 21.2711 11.2918Z" fill="#A9896A"/>
<path fill-rule="evenodd" clip-rule="evenodd" d="M38.9866 10.777C39.886 9.72757 40.8927 8.73068 42.0963 8.02026C41.7567 9.7265 42.3512 11.3891 42.5618 13.0641C42.7748 15.615 40.6022 17.8181 38.1679 18.3205C36.7036 15.9574 37.1853 12.8314 38.9866 10.777Z" fill="#A9896A"/>
<path fill-rule="evenodd" clip-rule="evenodd" d="M27.0045 8.45331C27.8778 9.94243 28.4369 11.7685 28.0681 13.4848C27.6411 14.7805 26.5433 15.7863 25.3842 16.4733C24.5258 14.9091 24.7649 12.959 25.4857 11.3891C26.0242 10.4269 26.6652 9.51174 27.0045 8.45331Z" fill="#A9896A"/>
<path fill-rule="evenodd" clip-rule="evenodd" d="M12.6569 8.64233C13.7934 8.50025 14.9787 8.58974 16.041 9.03177C17.4552 9.60782 18.4515 11.1139 18.4254 12.6009C16.9816 13.3292 15.0674 13.3405 13.8036 12.2484C12.7117 11.36 12.3256 9.93456 11.3828 8.93546C11.6811 8.73749 12.2493 8.73519 12.6569 8.64233Z" fill="#A9896A"/>
<path fill-rule="evenodd" clip-rule="evenodd" d="M46.2296 12.7374C46.0326 11.2773 46.7193 9.76564 47.4162 8.57407C47.5117 10.0073 47.4547 11.7472 46.2296 12.7374Z" fill="#A9896A"/>
<path fill-rule="evenodd" clip-rule="evenodd" d="M12.2422 9.15817C14.4556 8.68936 17.2682 9.64712 17.7223 12.0682C16.5269 12.442 15.0966 12.3235 14.1449 11.4608C13.4276 10.7637 12.8661 9.93236 12.2422 9.15817Z" fill="#A9896A"/>
<path fill-rule="evenodd" clip-rule="evenodd" d="M34.3854 16.0783C34.6734 13.2778 36.0647 10.4012 38.628 8.97351C36.3166 11.6118 35.1973 15.2189 35.9829 18.6561C36.5625 20.7373 36.14 22.8844 35.837 24.9666C37.6271 20.6644 41.1397 16.7362 45.766 15.3633C43.1461 17.4646 40.6421 19.803 38.9218 22.6963C36.4271 26.8809 35.0229 31.6283 34.1383 36.371C35.3829 33.1286 37.7024 30.4668 40.1196 28.0086C42.2193 25.8447 43.7325 22.486 42.2603 19.5995C44.8393 20.4128 44.4122 23.8791 43.1746 25.6591C44.5568 24.3882 46.1795 23.4214 47.9067 22.6728C50.6315 21.3973 52.3555 18.4179 51.9046 15.454C53.5749 18.2154 52.0457 21.9064 49.345 23.4214C48.7254 23.8186 47.9945 23.9819 47.3466 24.3142C50.2388 23.6239 53.2163 24.3511 55.8852 25.4879C57.1252 26.0653 58.5553 25.9501 59.8043 25.4632C58.7933 26.9905 56.6788 27.0051 55.0871 26.5062C52.9886 25.9065 50.8115 25.2977 48.6038 25.5852C46.7067 25.8091 44.9873 26.7423 43.4877 27.8622C40.3781 30.1581 37.9152 33.2193 36.057 36.5602C34.5368 39.3238 33.3709 42.4108 33.2137 45.5412C33.7534 41.7762 35.925 38.3549 39.0241 36.1027C42.4584 33.5873 46.5085 31.7893 50.7546 31.1538C53.7481 30.6772 57.6683 31.5913 58.6806 34.769C57.0091 32.7661 54.2466 31.8286 51.669 32.3341C47.7917 33.0984 44.1266 34.8036 40.9486 37.1005C39.507 38.1959 38.0609 39.4358 37.3129 41.1071C40.5659 37.359 46.0076 35.3227 50.9515 36.38C52.7142 36.917 54.3822 37.781 56.2472 37.9654C54.1739 38.7945 52.048 37.9274 50.0043 37.5156C46.2285 37.1195 42.2079 38.536 39.6345 41.3018C36.0228 45.6833 36.0262 52.485 39.4523 56.9716C40.7902 58.7417 42.7168 59.998 44.7903 60.7947C49.8198 62.6431 55.2474 62.9552 60.516 63.7171C60.516 63.7361 60.5149 63.7765 60.5149 63.7956C57.6637 63.8225 54.8126 63.8189 51.9614 63.8268C49.3107 63.7887 46.6144 63.7228 44.0593 62.954C40.2267 61.9571 36.9258 59.4342 34.8579 56.1313C36.7708 60.6012 41.5076 63.2024 46.2386 63.8066C44.8996 63.818 43.5594 63.8044 42.2215 63.829C40.0819 64.0136 38.2157 62.699 36.6661 61.4101C37.1876 62.4427 38.1259 63.1946 39.0596 63.857C38.4503 63.8123 37.7523 64.0272 37.2262 63.6276C35.7746 62.6622 34.7043 61.2255 33.9242 59.7017C33.7877 61.136 33.5315 62.5805 32.8642 63.8794C32.1662 63.912 31.4683 63.9085 30.7713 63.9154C32.8632 60.6861 33.158 56.6929 33.1911 52.9649C32.7389 55.9893 32.1435 59.0952 30.4868 61.7346C29.7341 62.8735 28.6101 64.2565 27.0446 63.8415C28.1423 63.1924 29.1135 62.2212 29.43 60.9693C28.2368 62.237 26.7531 63.3424 25.0201 63.753C23.3803 63.8704 21.7249 63.8526 20.0828 63.7788C24.7 63.057 29.3889 60.6402 31.4124 56.3058C29.315 59.3647 26.0335 61.503 22.4717 62.5827C19.6548 63.4364 16.6909 63.7049 13.7555 63.783C11.074 63.8415 8.39251 63.818 5.71094 63.7932C5.71094 63.7754 5.71094 63.7406 5.71211 63.724C9.37742 63.3379 13.0473 62.9149 16.6738 62.2492C20.1696 61.579 23.8028 60.4646 26.3648 57.9082C30.5664 53.6888 30.9682 46.5774 27.6138 41.7528C26.4024 40.0532 24.4553 38.4903 22.2167 38.7364C19.0604 39.4973 15.7447 38.5719 12.9083 37.1845C10.68 35.9872 8.44603 34.0393 8.24792 31.391C10.7085 35.495 15.7435 37.2471 20.3607 37.4989C21.6908 37.4618 23.041 37.1911 24.3585 37.5336C25.8911 37.821 27.147 38.7878 28.3335 39.7187C25.1341 35.5957 20.5508 32.8132 16.9323 29.0839C21.7853 30.7072 26.1473 33.7405 29.4472 37.5839C31.2736 39.6918 32.4349 42.2765 33.1376 44.9292C32.5933 40.1797 29.9709 35.8206 26.3922 32.6464C22.6699 29.3255 17.9081 26.6201 12.7341 26.7544C11.3165 26.7946 9.82716 26.0743 9.41721 24.6576C10.3452 25.2999 11.5044 25.4566 12.6134 25.405C18.343 25.0057 23.7926 27.7445 28.1012 31.2365C26.1723 28.4115 23.6117 25.9646 20.4815 24.4596C18.7109 23.5691 16.7444 23.1785 14.9089 22.4547C13.8841 22.0551 12.8799 21.2463 12.7922 20.094C13.8899 21.2988 15.5489 21.6122 17.093 21.8651C21.2945 22.7344 25.2227 24.9217 28.0886 28.0713C30.5458 30.7621 32.0967 34.1502 32.9838 37.6332C32.7685 31.3092 30.3181 24.7831 25.2535 20.6643C23.6458 19.2234 21.6475 18.1862 20.3505 16.4262C19.2484 14.9224 18.3136 12.8067 19.2893 11.0254C19.7334 13.4186 21.1066 15.643 23.0856 17.1099C25.0634 18.4883 27.229 19.6698 28.8357 21.4947C27.9669 20.0155 28.0374 18.1415 28.9485 16.6969C30.0802 14.9728 31.8156 13.6246 32.3985 11.5714C32.5192 13.3168 31.4592 14.7557 30.5198 16.123C29.0486 18.7244 29.8672 21.9075 31.3316 24.3287C32.5282 26.374 33.437 28.5883 33.9072 30.9064C34.629 27.8442 34.957 24.6756 34.7566 21.535C34.6416 19.7158 34.1452 17.9087 34.3854 16.0783Z" fill="#A9896A"/>
<path fill-rule="evenodd" clip-rule="evenodd" d="M38.0392 15.4115C38.0211 13.0495 39.5103 11.0312 41.2866 9.58112C41.4507 10.9775 41.9004 12.3648 41.7091 13.7813C41.4711 15.5033 40.0227 16.8404 38.4605 17.4892C37.914 16.9935 38.0768 16.0884 38.0392 15.4115Z" fill="#A9896A"/>
<path fill-rule="evenodd" clip-rule="evenodd" d="M14.4141 10.0353C15.4799 10.2088 16.7597 10.6944 17.2084 11.7338C16.1357 11.4641 15.2146 10.7616 14.4141 10.0353Z" fill="#A9896A"/>
<path fill-rule="evenodd" clip-rule="evenodd" d="M55.227 10.4179C56.5956 10.9024 57.8959 12.0167 58.0531 13.5116C58.1352 14.796 57.7115 16.0671 57.1183 17.1971C55.9113 16.5716 54.5984 15.7974 54.1498 14.4469C53.7262 13.0371 54.299 11.5111 55.227 10.4179Z" fill="#A9896A"/>
<path fill-rule="evenodd" clip-rule="evenodd" d="M55.4485 11.2537C57.6414 12.0794 58.0137 14.7793 56.9014 16.5996C54.9475 15.5837 54.27 13.0942 55.4485 11.2537Z" fill="#A9896A"/>
<path fill-rule="evenodd" clip-rule="evenodd" d="M72.4312 20.6387C74.0011 18.8992 76.6503 19.5392 77.9382 21.2398C76.2786 22.6873 73.7137 22.4083 72.4312 20.6387Z" fill="#A9896A"/>
<path fill-rule="evenodd" clip-rule="evenodd" d="M65.0142 16.0959C65.308 12.8865 68.7518 11.4066 71.5718 12.2166C70.9385 15.1784 67.8851 16.9862 65.0142 16.0959Z" fill="#A9896A"/>
<path fill-rule="evenodd" clip-rule="evenodd" d="M55.563 11.7025C56.5832 12.527 56.3807 13.9883 56.1733 15.1217C55.8045 14.0252 55.5495 12.8616 55.563 11.7025Z" fill="#A9896A"/>
<path fill-rule="evenodd" clip-rule="evenodd" d="M25.9774 15.7604C25.6395 14.3742 26.3509 12.9779 27.033 11.8132C27.1379 13.1759 26.9317 14.702 25.9774 15.7604Z" fill="#A9896A"/>
<path fill-rule="evenodd" clip-rule="evenodd" d="M8.97664 11.9016C10.9648 13.4792 12.2445 16.1622 11.7265 18.6773C11.3666 20.2414 10.0367 21.3694 8.60432 22.0049C6.80528 20.1017 6.75628 17.0797 8.14653 14.937C8.7853 14.0509 8.96066 12.9634 8.97664 11.9016Z" fill="#A9896A"/>
<path fill-rule="evenodd" clip-rule="evenodd" d="M45.4308 17.562C46.3497 15.1978 48.5825 13.6303 50.7677 12.4711C50.3053 14.1461 50.7812 15.8579 50.6354 17.553C50.3099 19.9965 47.8571 21.7576 45.4398 21.8092C45.0493 20.4273 44.9355 18.9337 45.4308 17.562Z" fill="#A9896A"/>
<path fill-rule="evenodd" clip-rule="evenodd" d="M75.8102 1.74655C78.0918 0.638261 80.7947 1.0077 83.1851 1.64407C81.7069 2.55754 80.8915 4.13617 79.6318 5.27968C77.7313 6.84959 74.7354 6.47249 72.9281 4.86626C73.5817 3.58764 74.5142 2.41524 75.8102 1.74655Z" fill="#A9896A"/>
<path fill-rule="evenodd" clip-rule="evenodd" d="M38.9453 16.9007C38.9942 15.4183 39.7231 14.0532 40.4881 12.8112C40.6396 14.2747 40.2662 16.0414 38.9453 16.9007Z" fill="#A9896A"/>
<path fill-rule="evenodd" clip-rule="evenodd" d="M9.47089 13.0383C10.5901 14.2735 11.1298 16.0145 11.0604 17.6536C10.893 19.0903 9.77488 20.2215 8.63852 21.0359C7.9132 20.0636 7.88594 18.7121 8.05328 17.5486C8.22757 15.9574 9.3012 14.6305 9.47089 13.0383Z" fill="#A9896A"/>
<path fill-rule="evenodd" clip-rule="evenodd" d="M45.8524 21.1713C45.0631 18.137 47.3805 15.4461 49.8534 13.9647C49.956 15.1485 50.0015 16.3546 49.8126 17.5317C49.4209 19.4147 47.6445 20.6869 45.8524 21.1713Z" fill="#A9896A"/>
<path fill-rule="evenodd" clip-rule="evenodd" d="M11.9766 14.1639C13.615 15.3376 15.8183 14.6103 17.5172 15.6296C19.1421 16.5415 19.8036 18.4693 19.7842 20.2226C18.4815 20.6824 16.9433 20.7774 15.6965 20.1074C13.5832 18.8631 12.3968 16.4811 11.9766 14.1639Z" fill="#A9896A"/>
<path fill-rule="evenodd" clip-rule="evenodd" d="M12.8906 15.2425C14.0987 15.7135 15.4161 15.8075 16.6151 16.2965C17.9939 16.8358 18.8194 18.2714 18.9139 19.6811C18.6703 19.9764 18.2057 19.8187 17.8665 19.8455C15.3534 19.7068 13.6318 17.4031 12.8906 15.2425Z" fill="#A9896A"/>
<path fill-rule="evenodd" clip-rule="evenodd" d="M9.84102 16.1857C10.2556 17.5215 10.153 19.2379 9.10324 20.2706C8.68869 18.8699 9.46185 17.5058 9.84102 16.1857Z" fill="#A9896A"/>
<path fill-rule="evenodd" clip-rule="evenodd" d="M15.3281 16.8582C16.5693 17.2889 17.9982 17.9905 18.4856 19.2681C17.1045 19.013 16.1775 17.8596 15.3281 16.8582Z" fill="#A9896A"/>
<path fill-rule="evenodd" clip-rule="evenodd" d="M46.4609 20.5705C46.7363 19.1729 47.6689 18.005 48.6162 16.9722C48.5788 18.4055 47.7668 19.8825 46.4609 20.5705Z" fill="#A9896A"/>
<path fill-rule="evenodd" clip-rule="evenodd" d="M53.6562 22.8654C53.851 20.4778 56.1614 17.985 58.8042 18.4963C60.2411 18.8373 61.6873 19.1654 63.18 18.9997C62.2017 20.6287 60.8195 22.053 59.1139 22.9504C57.4469 23.8645 55.3039 23.7527 53.6562 22.8654Z" fill="#A9896A"/>
<path fill-rule="evenodd" clip-rule="evenodd" d="M57.3522 19.5322C58.8882 18.9192 60.4777 19.6521 62.0411 19.6923C60.3161 21.977 57.1824 23.7335 54.2812 22.5778C55.0031 21.3246 55.8639 19.9765 57.3522 19.5322Z" fill="#A9896A"/>
<path fill-rule="evenodd" clip-rule="evenodd" d="M55.6999 21.178C56.7519 20.895 57.903 20.7417 58.9802 20.9364C57.7256 21.3873 56.4959 22.0854 55.127 22.0866C54.8174 21.7979 55.4015 21.3158 55.6999 21.178Z" fill="#A9896A"/>
<path fill-rule="evenodd" clip-rule="evenodd" d="M2.79688 21.5619C4.68356 21.6883 6.63864 22.3058 7.9799 23.6698C9.01389 24.7214 9.27005 26.2722 9.17095 27.6798C7.49486 28.1553 5.4226 27.795 4.36811 26.3271C3.27282 24.9531 3.55523 23.079 2.79688 21.5619Z" fill="#A9896A"/>
<path fill-rule="evenodd" clip-rule="evenodd" d="M3.6875 22.2208C6.12413 22.4535 8.6075 24.4474 8.37418 27.0274C7.04531 27.1806 5.57418 26.638 4.89896 25.4566C4.33078 24.4463 4.07914 23.3006 3.6875 22.2208Z" fill="#A9896A"/>
<path fill-rule="evenodd" clip-rule="evenodd" d="M59.375 23.7235C60.7811 23.0366 62.5609 22.6728 63.9432 23.6139C65.2594 24.4866 66.0816 25.8828 66.6942 27.2871C65.2093 26.608 63.5844 27.3374 62.0644 26.9077C60.6662 26.4357 59.6654 25.12 59.375 23.7235Z" fill="#A9896A"/>
<path fill-rule="evenodd" clip-rule="evenodd" d="M5.625 23.8522C6.68057 24.4484 7.66548 25.4062 8.02533 26.5688C6.82174 26.1693 6.15914 24.9072 5.625 23.8522Z" fill="#A9896A"/>
<path fill-rule="evenodd" clip-rule="evenodd" d="M60.2031 24.1811C62.4564 23.1382 64.7167 24.7225 65.8006 26.6201C64.6039 26.4378 63.3536 26.6124 62.1946 26.2128C61.2972 25.8336 60.4786 25.1286 60.2031 24.1811Z" fill="#A9896A"/>
<path fill-rule="evenodd" clip-rule="evenodd" d="M60.3906 24.2337C61.4962 24.0871 62.6771 24.7316 63.4376 25.4676C62.7977 25.4364 62.1737 25.2764 61.5691 25.0796C61.4894 25.1343 61.4119 25.1903 61.3346 25.2472C60.9769 24.9531 60.592 24.6588 60.3906 24.2337Z" fill="#A9896A"/>
<path fill-rule="evenodd" clip-rule="evenodd" d="M45.6797 29.2887C46.3889 27.7951 47.8614 26.4805 49.6263 26.5286C51.3035 26.5912 52.6927 27.6452 54.2413 28.1543C53.0832 29.3336 51.5939 30.2386 49.9634 30.6214C48.4263 30.9917 46.7397 30.4255 45.6797 29.2887Z" fill="#A9896A"/>
<path fill-rule="evenodd" clip-rule="evenodd" d="M0.09375 26.7377C1.90534 27.9795 4.48212 27.4626 6.07159 29.1186C7.37538 30.3382 7.63956 32.2827 7.3344 33.9533C5.5934 34.2307 3.5985 33.886 2.4404 32.4696C1.00465 30.9076 0.307764 28.8021 0.09375 26.7377Z" fill="#A9896A"/>
<path fill-rule="evenodd" clip-rule="evenodd" d="M46.4141 29.1936C47.3466 28.0445 48.7743 27.1752 50.3161 27.3061C51.3534 27.4895 52.3087 27.9616 53.2868 28.332C51.7143 29.7328 49.3484 30.6884 47.2759 29.8156C46.9777 29.6589 46.454 29.5739 46.4141 29.1936Z" fill="#A9896A"/>
<path fill-rule="evenodd" clip-rule="evenodd" d="M0.89061 27.9371C2.25585 28.5839 3.85569 28.7282 5.07735 29.6578C6.20468 30.4983 6.60209 31.9683 6.5622 33.3021C3.47184 33.5728 1.42466 30.5845 0.89061 27.9371Z" fill="#A9896A"/>
<path fill-rule="evenodd" clip-rule="evenodd" d="M7.60938 28.85C9.99925 29.2305 12.2652 27.2905 14.6188 28.3411C15.9942 28.9206 16.8152 30.2543 17.3617 31.5599C16.0603 32.7181 14.1542 33.3881 12.4325 32.8221C10.3842 32.1832 8.6489 30.6839 7.60938 28.85Z" fill="#A9896A"/>
<path fill-rule="evenodd" clip-rule="evenodd" d="M47.0156 28.9674C48.0814 28.1451 49.7061 28.3767 50.9029 28.7807C49.6356 28.9071 48.2316 29.4744 47.0156 28.9674Z" fill="#A9896A"/>
<path fill-rule="evenodd" clip-rule="evenodd" d="M57.9688 31.0969C59.2566 29.2272 61.674 27.945 63.9682 28.727C65.2106 29.2248 66.4915 29.6959 67.8635 29.5224C66.4403 31.4974 64.2291 33.1643 61.6945 33.2931C60.1744 33.2897 58.7431 32.3532 57.9688 31.0969Z" fill="#A9896A"/>
<path fill-rule="evenodd" clip-rule="evenodd" d="M8.8125 29.5191C10.361 29.574 11.8753 29.104 13.4227 29.1801C14.73 29.245 15.6363 30.3383 16.3002 31.3318C13.9454 33.3859 10.468 31.617 8.8125 29.5191Z" fill="#A9896A"/>
<path fill-rule="evenodd" clip-rule="evenodd" d="M58.9297 31.1092C60.1948 30.006 61.9335 29.3234 63.6335 29.6434C64.631 29.837 65.6147 30.1089 66.6327 30.2007C65.394 31.4558 63.7416 32.4349 61.9279 32.5189C60.7664 32.5872 59.6221 32.0154 58.9297 31.1092Z" fill="#A9896A"/>
<path fill-rule="evenodd" clip-rule="evenodd" d="M3.03125 29.7452C4.35209 30.3997 5.69226 31.3385 6.25701 32.7325C4.77116 32.3265 3.75548 31.0074 3.03125 29.7452Z" fill="#A9896A"/>
<path fill-rule="evenodd" clip-rule="evenodd" d="M11.6719 30.1848C13.0451 30.0505 14.6289 30.2844 15.7073 31.1773C14.3021 31.4582 12.8231 30.9726 11.6719 30.1848Z" fill="#A9896A"/>
<path fill-rule="evenodd" clip-rule="evenodd" d="M59.5156 31.0709C60.552 30.1166 62.4717 30.6168 63.6649 31.1325C62.3179 31.437 60.8182 31.6169 59.5156 31.0709Z" fill="#A9896A"/>
<path fill-rule="evenodd" clip-rule="evenodd" d="M49.8438 34.7712C50.1877 33.5794 51.4014 32.5848 52.6962 32.5738C53.9714 32.567 55.0281 33.3715 56.1724 33.8077C54.7537 35.6852 51.6372 36.7816 49.8438 34.7712Z" fill="#A9896A"/>
<path fill-rule="evenodd" clip-rule="evenodd" d="M50.3516 34.6592C51.4515 32.8768 53.8518 33.0525 55.4151 34.1031C54.0693 35.2779 51.857 35.9213 50.3516 34.6592Z" fill="#A9896A"/>
<path fill-rule="evenodd" clip-rule="evenodd" d="M50.7344 34.5205C51.4641 33.7092 52.6084 34.2038 53.5114 34.3785C52.6131 34.5832 51.6213 34.9636 50.7344 34.5205Z" fill="#A9896A"/>
<path fill-rule="evenodd" clip-rule="evenodd" d="M59.3565 34.497C60.6706 34.0315 62.3182 34.026 63.3942 35.0128C64.4144 35.9627 64.9165 37.3266 65.207 38.6491C63.9133 38.6367 62.5549 38.5953 61.3845 37.9923C60.1091 37.3423 59.2793 35.8766 59.3565 34.497Z" fill="#A9896A"/>
<path fill-rule="evenodd" clip-rule="evenodd" d="M59.8594 34.8863C62.1071 34.1356 64.0802 36.0555 64.447 38.1109C62.3029 38.3212 60.438 36.8667 59.8594 34.8863Z" fill="#A9896A"/>
<path fill-rule="evenodd" clip-rule="evenodd" d="M60.1094 35.0004C61.2106 35.2265 62.2148 35.9492 62.864 36.8355C61.8469 36.4471 60.5592 36.0847 60.1094 35.0004Z" fill="#A9896A"/>
<path fill-rule="evenodd" clip-rule="evenodd" d="M0.734375 37.8279C2.79074 37.8065 4.3654 36.0344 6.45145 36.1674C8.12755 36.2425 9.38919 37.5616 10.1419 38.9245C9.19442 39.863 7.98513 40.6429 6.61419 40.7549C4.31765 40.8365 2.15649 39.5262 0.734375 37.8279Z" fill="#A9896A"/>
<path fill-rule="evenodd" clip-rule="evenodd" d="M1.98438 38.2641C3.93487 37.9833 6.06868 36.3733 7.95878 37.67C8.35962 38.0448 9.57 38.704 8.69205 39.1917C6.64254 40.7334 3.68782 39.9234 1.98438 38.2641Z" fill="#A9896A"/>
<path fill-rule="evenodd" clip-rule="evenodd" d="M4.70312 38.4543C5.8736 37.9453 7.44157 37.9519 8.51538 38.6983C7.29355 39.2005 5.90671 38.8459 4.70312 38.4543Z" fill="#A9896A"/>
<path fill-rule="evenodd" clip-rule="evenodd" d="M47.859 38.8705C51.4535 37.7562 55.317 40.5456 55.8305 44.0867C54.0667 43.167 51.983 44.164 50.2351 43.2364C48.599 42.4498 47.7631 40.6037 47.859 38.8705Z" fill="#A9896A"/>
<path fill-rule="evenodd" clip-rule="evenodd" d="M56.2031 39.6135C57.5559 38.5349 59.7614 38.2104 61.0743 39.5229C61.8415 40.2905 62.2448 41.3445 63.1032 42.0382C61.5557 42.5217 59.751 42.8448 58.2332 42.1042C57.2551 41.5793 56.5834 40.6228 56.2031 39.6135Z" fill="#A9896A"/>
<path fill-rule="evenodd" clip-rule="evenodd" d="M57.1651 39.5969C58.0749 39.1873 59.2079 39.0709 60.0981 39.5934C60.943 40.0891 61.4783 40.9373 62.0226 41.7148C60.4694 42.0124 58.6284 41.9363 57.5147 40.6754C57.2916 40.3946 56.5935 39.8497 57.1651 39.5969Z" fill="#A9896A"/>
<path fill-rule="evenodd" clip-rule="evenodd" d="M43.6946 39.3384C45.3318 39.4659 46.9509 40.588 47.2846 42.2271C47.5352 43.5373 47.2288 44.9226 47.797 46.1779C46.2143 45.7807 44.6851 44.9158 43.7331 43.5878C42.8587 42.3257 43.0214 40.6463 43.6946 39.3384Z" fill="#A9896A"/>
<path fill-rule="evenodd" clip-rule="evenodd" d="M48.6248 39.3662C51.4394 38.9522 53.9194 40.8476 55.1377 43.2005C53.7021 42.7967 52.0941 43.1501 50.7597 42.3883C49.6086 41.7795 48.8855 40.6015 48.6248 39.3662Z" fill="#A9896A"/>
<path fill-rule="evenodd" clip-rule="evenodd" d="M48.8984 39.6214C50.3844 39.8363 51.4479 40.973 52.5934 41.8167C51.1621 41.5727 49.346 41.2147 48.8984 39.6214Z" fill="#A9896A"/>
<path fill-rule="evenodd" clip-rule="evenodd" d="M11.884 40.4304C13.2584 39.5074 15.0699 39.6919 16.5718 40.1819C16.4591 41.7315 15.7166 43.3998 14.1682 44.0196C12.5467 44.805 10.6897 43.8552 9.0625 44.6194C9.51795 42.9801 10.4584 41.424 11.884 40.4304Z" fill="#A9896A"/>
<path fill-rule="evenodd" clip-rule="evenodd" d="M57.125 39.9312C58.0872 39.7254 59.1961 39.872 59.9727 40.5018C59.0243 40.5791 57.9016 40.5387 57.125 39.9312Z" fill="#A9896A"/>
<path fill-rule="evenodd" clip-rule="evenodd" d="M20.0159 40.3609C21.3947 39.5688 23.1028 40.0389 24.3678 40.8241C24.0821 42.5282 22.8841 44.2569 21.0418 44.532C19.738 44.6956 18.3341 44.4135 17.1328 45.0927C17.3525 43.2264 18.3512 41.3533 20.0159 40.3609Z" fill="#A9896A"/>
<path fill-rule="evenodd" clip-rule="evenodd" d="M43.9667 40.0308C45.3411 40.3454 46.4124 41.5592 46.589 42.9299C46.6811 43.769 46.7917 44.6071 47.0306 45.4215C44.8114 44.7446 43.1353 42.2999 43.9667 40.0308Z" fill="#A9896A"/>
<path fill-rule="evenodd" clip-rule="evenodd" d="M44.0391 40.1395C45.1594 40.8634 45.3234 42.2328 45.476 43.4322C44.6185 42.5686 44.0924 41.35 44.0391 40.1395Z" fill="#A9896A"/>
<path fill-rule="evenodd" clip-rule="evenodd" d="M9.96875 43.722C10.7521 41.4877 13.2298 39.8575 15.6506 40.5533C15.5084 42.0504 14.1646 43.3964 12.6183 43.5106C11.7337 43.5676 10.8466 43.5888 9.96875 43.722Z" fill="#A9896A"/>
<path fill-rule="evenodd" clip-rule="evenodd" d="M17.75 44.2075C18.365 41.9464 20.961 39.8934 23.3431 41.143C23.3293 41.8657 22.7055 42.555 22.1886 43.0686C20.9416 44.1024 19.2051 43.7208 17.75 44.2075Z" fill="#A9896A"/>
<path fill-rule="evenodd" clip-rule="evenodd" d="M12.0078 42.3726C12.8493 41.4617 14.1144 40.8533 15.376 40.9137C14.5607 41.8782 13.2194 42.1946 12.0078 42.3726Z" fill="#A9896A"/>
<path fill-rule="evenodd" clip-rule="evenodd" d="M19.6406 42.7776C20.3967 41.7673 21.7859 41.4698 23.0009 41.5291C22.255 42.4948 20.745 42.4152 19.6406 42.7776Z" fill="#A9896A"/>
<path d="M88.12 39.56C87.5333 39.56 86.8533 39.4933 86.08 39.36C85.3333 39.2533 84.6 39.0533 83.88 38.76C83.1867 38.4667 82.6 38.0533 82.12 37.52C81.6667 36.96 81.44 36.2667 81.44 35.44C81.44 34.4533 81.88 33.56 82.76 32.76C83.64 31.9333 84.88 31.52 86.48 31.52C87.6533 31.52 88.7467 31.72 89.76 32.12C90.7733 32.4933 91.76 32.96 92.72 33.52C93.7067 34.0533 94.72 34.5867 95.76 35.12C97.0933 33.84 98.3067 32.2533 99.4 30.36C100.52 28.4667 101.627 26.44 102.72 24.28C103.84 22.0933 105.04 19.9067 106.32 17.72C107.627 15.5333 109.133 13.48 110.84 11.56L113.16 8.96C112.173 8.8 111.147 8.68 110.08 8.6C109.013 8.49333 107.907 8.44 106.76 8.44C105.187 8.44 103.467 8.57333 101.6 8.84C99.76 9.10667 97.92 9.52 96.08 10.08C94.2667 10.64 92.6 11.3467 91.08 12.2C89.5867 13.0533 88.3867 14.0667 87.48 15.24C86.5733 16.4133 86.12 17.76 86.12 19.28C86.12 20.32 86.3467 21.1467 86.8 21.76C87.28 22.3733 87.8667 22.8267 88.56 23.12C89.28 23.3867 90 23.52 90.72 23.52C91.92 23.52 92.9333 23.2533 93.76 22.72C94.5867 22.16 95.2 21.52 95.6 20.8C96.0267 20.08 96.24 19.44 96.24 18.88C96.24 18.6933 96.3733 18.6 96.64 18.6C96.9067 18.6 97.04 18.8133 97.04 19.24C97.04 20.3333 96.7067 21.28 96.04 22.08C95.3733 22.88 94.5333 23.4933 93.52 23.92C92.5333 24.3467 91.5333 24.56 90.52 24.56C89.5867 24.56 88.6267 24.3333 87.64 23.88C86.68 23.4267 85.88 22.7467 85.24 21.84C84.6 20.9333 84.28 19.8133 84.28 18.48C84.28 16.88 84.7333 15.4667 85.64 14.24C86.5467 12.9867 87.76 11.92 89.28 11.04C90.8 10.16 92.4933 9.44 94.36 8.88C96.2267 8.29333 98.1067 7.86666 100 7.6C101.92 7.33333 103.72 7.2 105.4 7.2C106.947 7.2 108.453 7.28 109.92 7.44C111.413 7.57333 112.813 7.78666 114.12 8.08C114.493 7.76 114.867 7.48 115.24 7.24C115.64 7 116 6.81333 116.32 6.68C116.613 6.54666 116.853 6.48 117.04 6.48C117.253 6.48 117.36 6.56 117.36 6.72C117.36 6.8 117.213 6.94667 116.92 7.16C116.573 7.42667 116.267 7.68 116 7.92C115.76 8.13333 115.613 8.29333 115.56 8.4C118.28 9.09333 120.48 10.0533 122.16 11.28C123.867 12.48 124.72 13.9067 124.72 15.56C124.72 16.92 124.253 18.12 123.32 19.16C122.387 20.1733 121.16 20.9733 119.64 21.56C118.147 22.1467 116.547 22.48 114.84 22.56C117.24 23.3333 119.147 24.3333 120.56 25.56C122 26.7867 122.72 28.3467 122.72 30.24C122.72 31.6533 122.307 32.9333 121.48 34.08C120.68 35.2267 119.6 36.2133 118.24 37.04C116.907 37.84 115.44 38.4533 113.84 38.88C112.24 39.3333 110.653 39.56 109.08 39.56C106.6 39.56 104.4 39.3067 102.48 38.8C100.587 38.2933 98.6133 37.5733 96.56 36.64C93.9733 38.5867 91.16 39.56 88.12 39.56ZM108.52 38.4C110.173 38.4 111.68 38.1467 113.04 37.64C114.4 37.1333 115.573 36.4667 116.56 35.64C117.573 34.8133 118.347 33.8933 118.88 32.88C119.44 31.8667 119.72 30.8667 119.72 29.88C119.72 28.9467 119.44 28.0533 118.88 27.2C118.32 26.32 117.44 25.5867 116.24 25C114.693 24.2267 113.333 23.6933 112.16 23.4C110.987 23.08 110.053 22.7867 109.36 22.52C109.093 22.3867 108.92 22.2933 108.84 22.24C108.76 22.1867 108.72 22.1333 108.72 22.08C108.72 21.8133 108.853 21.6 109.12 21.44C109.387 21.28 109.693 21.2 110.04 21.2C110.573 21.2 111.147 21.24 111.76 21.32C112.373 21.4 113.027 21.44 113.72 21.44C115.453 21.44 116.947 21.0933 118.2 20.4C119.453 19.7067 120.413 18.84 121.08 17.8C121.773 16.76 122.12 15.7333 122.12 14.72C122.12 13.5733 121.613 12.5733 120.6 11.72C119.587 10.84 117.747 10.0533 115.08 9.36C113.747 11.2 112.413 13.2667 111.08 15.56C109.747 17.8267 108.413 20.1333 107.08 22.48C105.747 24.8 104.4 27 103.04 29.08C101.68 31.16 100.32 32.9467 98.96 34.44C98.64 34.7867 98.3867 35.0533 98.2 35.24C98.0133 35.4 97.76 35.6267 97.44 35.92C99.04 36.5867 100.8 37.1733 102.72 37.68C104.64 38.16 106.573 38.4 108.52 38.4ZM87.32 38.32C88.8133 38.4 90.1733 38.2267 91.4 37.8C92.6533 37.3467 93.8133 36.72 94.88 35.92C94.24 35.6 93.4267 35.1867 92.44 34.68C91.4533 34.1733 90.4533 33.7333 89.44 33.36C88.4267 32.96 87.5467 32.76 86.8 32.76C85.8133 32.76 85.0667 33.0267 84.56 33.56C84.0533 34.0667 83.8 34.6533 83.8 35.32C83.8 36.0133 84.0933 36.68 84.68 37.32C85.2667 37.9333 86.1467 38.2667 87.32 38.32ZM127.713 38C126.62 38 125.806 37.6133 125.273 36.84C124.766 36.04 124.513 35.08 124.513 33.96C124.513 32.92 124.713 31.84 125.113 30.72C125.54 29.4933 126.126 28.3733 126.873 27.36C127.646 26.3467 128.486 25.5333 129.393 24.92C130.326 24.28 131.246 23.96 132.153 23.96C133.246 23.96 134.046 24.3333 134.553 25.08C135.086 25.8267 135.353 26.7733 135.353 27.92C135.353 28.72 135.22 29.56 134.953 30.44C134.686 31.32 134.326 32.1867 133.873 33.04C134.22 33.3867 134.713 33.56 135.353 33.56C136.1 33.56 136.74 33.32 137.273 32.84C137.806 32.36 138.326 31.5067 138.833 30.28C139.153 30.28 139.313 30.4 139.313 30.64C138.806 31.8667 138.22 32.7733 137.553 33.36C136.913 33.92 136.086 34.1867 135.073 34.16C134.46 34.16 133.953 33.9867 133.553 33.64C132.806 34.8667 131.913 35.9067 130.873 36.76C129.86 37.5867 128.806 38 127.713 38ZM128.273 37.12C128.886 37.12 129.5 36.8667 130.113 36.36C130.726 35.8267 131.286 35.2267 131.793 34.56C132.3 33.8933 132.66 33.32 132.873 32.84C132.446 32.0667 132.193 31.4933 132.113 31.12C132.06 30.72 132.033 30.4267 132.033 30.24C132.033 29.7333 132.166 29.3467 132.433 29.08C132.7 28.8133 132.966 28.68 133.233 28.68C133.606 28.68 133.926 28.84 134.193 29.16C134.246 28.8667 134.286 28.6 134.313 28.36C134.34 28.0933 134.353 27.84 134.353 27.6C134.353 26.9067 134.22 26.3467 133.953 25.92C133.713 25.4667 133.326 25.24 132.793 25.24C132.233 25.24 131.646 25.48 131.033 25.96C130.42 26.44 129.833 27.08 129.273 27.88C128.74 28.68 128.273 29.5733 127.873 30.56C127.526 31.3867 127.26 32.1733 127.073 32.92C126.886 33.64 126.793 34.3067 126.793 34.92C126.793 35.5867 126.913 36.12 127.153 36.52C127.393 36.92 127.766 37.12 128.273 37.12ZM141.229 38C140.135 38 139.322 37.6133 138.789 36.84C138.282 36.04 138.029 35.08 138.029 33.96C138.029 32.92 138.229 31.84 138.629 30.72C139.055 29.4933 139.642 28.3733 140.389 27.36C141.162 26.3467 142.002 25.5333 142.909 24.92C143.842 24.28 144.762 23.96 145.669 23.96C146.762 23.96 147.562 24.3333 148.069 25.08C148.602 25.8267 148.869 26.7733 148.869 27.92C148.869 28.72 148.735 29.56 148.469 30.44C148.202 31.32 147.842 32.1867 147.389 33.04C147.735 33.3867 148.229 33.56 148.869 33.56C149.615 33.56 150.255 33.32 150.789 32.84C151.322 32.36 151.842 31.5067 152.349 30.28C152.669 30.28 152.829 30.4 152.829 30.64C152.322 31.8667 151.735 32.7733 151.069 33.36C150.429 33.92 149.602 34.1867 148.589 34.16C147.975 34.16 147.469 33.9867 147.069 33.64C146.322 34.8667 145.429 35.9067 144.389 36.76C143.375 37.5867 142.322 38 141.229 38ZM141.789 37.12C142.402 37.12 143.015 36.8667 143.629 36.36C144.242 35.8267 144.802 35.2267 145.309 34.56C145.815 33.8933 146.175 33.32 146.389 32.84C145.962 32.0667 145.709 31.4933 145.629 31.12C145.575 30.72 145.549 30.4267 145.549 30.24C145.549 29.7333 145.682 29.3467 145.949 29.08C146.215 28.8133 146.482 28.68 146.749 28.68C147.122 28.68 147.442 28.84 147.709 29.16C147.762 28.8667 147.802 28.6 147.829 28.36C147.855 28.0933 147.869 27.84 147.869 27.6C147.869 26.9067 147.735 26.3467 147.469 25.92C147.229 25.4667 146.842 25.24 146.309 25.24C145.749 25.24 145.162 25.48 144.549 25.96C143.935 26.44 143.349 27.08 142.789 27.88C142.255 28.68 141.789 29.5733 141.389 30.56C141.042 31.3867 140.775 32.1733 140.589 32.92C140.402 33.64 140.309 34.3067 140.309 34.92C140.309 35.5867 140.429 36.12 140.669 36.52C140.909 36.92 141.282 37.12 141.789 37.12ZM159.304 38.28C158.558 38.2 157.944 37.92 157.464 37.44C156.984 36.9333 156.638 36.3467 156.424 35.68C156.211 35.0133 156.104 34.4 156.104 33.84C156.104 32.7733 156.344 31.92 156.824 31.28C157.304 30.6133 157.744 30.2667 158.144 30.24C158.571 30.2667 159.091 30.1733 159.704 29.96C160.318 29.72 160.851 29.4 161.304 29C162.078 28.3867 162.464 27.76 162.464 27.12C162.464 26.4533 162.078 26.12 161.304 26.12C160.878 26.12 160.331 26.2667 159.664 26.56C159.024 26.8533 158.278 27.36 157.424 28.08C156.358 28.9867 155.251 30.2 154.104 31.72C153.944 32.0667 153.758 32.5867 153.544 33.28C153.331 33.9467 153.144 34.64 152.984 35.36C152.851 36.08 152.784 36.6933 152.784 37.2C152.784 37.6 152.851 37.8667 152.984 38H150.464C150.171 38 150.024 37.88 150.024 37.64C150.024 37.56 150.038 37.4933 150.064 37.44C150.091 37.3867 150.118 37.28 150.144 37.12C150.518 35.7333 150.958 34.5067 151.464 33.44C151.998 32.3733 152.438 31.44 152.784 30.64C152.544 30.72 152.411 30.7067 152.384 30.6C152.358 30.4667 152.344 30.36 152.344 30.28C152.531 29.8533 152.838 29.1733 153.264 28.24C153.718 27.28 154.238 26.1867 154.824 24.96C155.438 23.7067 156.091 22.4 156.784 21.04C157.478 19.68 158.171 18.3733 158.864 17.12C159.558 15.84 160.118 14.9333 160.544 14.4C160.998 13.8667 161.544 13.6 162.184 13.6C162.424 13.6 162.704 13.64 163.024 13.72C163.371 13.8 163.678 13.8133 163.944 13.76C163.358 14.2667 162.624 15.2 161.744 16.56C160.864 17.8933 159.931 19.4533 158.944 21.24C157.958 23.0267 157.011 24.8533 156.104 26.72C155.838 27.2533 155.584 27.8133 155.344 28.4C155.104 28.9867 154.878 29.5733 154.664 30.16C155.224 29.4667 155.864 28.7467 156.584 28C157.304 27.2533 158.051 26.5733 158.824 25.96C159.624 25.32 160.411 24.8533 161.184 24.56C162.064 24.24 162.798 24.08 163.384 24.08C163.998 24.08 164.438 24.2267 164.704 24.52C164.998 24.8133 165.144 25.1867 165.144 25.64C165.144 26.1467 164.944 26.76 164.544 27.48C164.144 28.1733 163.598 28.7733 162.904 29.28C162.318 29.68 161.704 30.0267 161.064 30.32C160.424 30.6133 159.664 30.8 158.784 30.88C158.624 31.2533 158.504 31.64 158.424 32.04C158.371 32.4133 158.344 32.7867 158.344 33.16C158.344 34.2 158.584 35.12 159.064 35.92C159.544 36.6933 160.171 37.08 160.944 37.08C161.318 37.08 161.718 36.9733 162.144 36.76C162.598 36.5467 163.064 36.1867 163.544 35.68C164.078 35.1467 164.611 34.4133 165.144 33.48C165.678 32.52 166.211 31.4533 166.744 30.28C167.064 30.28 167.224 30.4 167.224 30.64C166.264 32.96 165.331 34.68 164.424 35.8C163.518 36.92 162.638 37.64 161.784 37.96C160.958 38.2533 160.131 38.36 159.304 38.28Z" fill="#5C4F45"/>
<path d="M85.76 64C84.6667 64 83.8533 63.6133 83.32 62.84C82.8133 62.04 82.56 61.08 82.56 59.96C82.56 58.92 82.76 57.84 83.16 56.72C83.5867 55.4933 84.1733 54.3733 84.92 53.36C85.6933 52.3467 86.5333 51.5333 87.44 50.92C88.3733 50.28 89.2933 49.96 90.2 49.96C91.2933 49.96 92.0933 50.3333 92.6 51.08C93.1333 51.8267 93.4 52.7733 93.4 53.92C93.4 54.72 93.2667 55.56 93 56.44C92.7333 57.32 92.3733 58.1867 91.92 59.04C92.2667 59.3867 92.76 59.56 93.4 59.56C94.1467 59.56 94.7867 59.32 95.32 58.84C95.8533 58.36 96.3733 57.5067 96.88 56.28C97.2 56.28 97.36 56.4 97.36 56.64C96.8533 57.8667 96.2667 58.7733 95.6 59.36C94.96 59.92 94.1333 60.1867 93.12 60.16C92.5067 60.16 92 59.9867 91.6 59.64C90.8533 60.8667 89.96 61.9067 88.92 62.76C87.9067 63.5867 86.8533 64 85.76 64ZM86.32 63.12C86.9333 63.12 87.5467 62.8667 88.16 62.36C88.7733 61.8267 89.3333 61.2267 89.84 60.56C90.3467 59.8933 90.7067 59.32 90.92 58.84C90.4933 58.0667 90.24 57.4933 90.16 57.12C90.1067 56.72 90.08 56.4267 90.08 56.24C90.08 55.7333 90.2133 55.3467 90.48 55.08C90.7467 54.8133 91.0133 54.68 91.28 54.68C91.6533 54.68 91.9733 54.84 92.24 55.16C92.2933 54.8667 92.3333 54.6 92.36 54.36C92.3867 54.0933 92.4 53.84 92.4 53.6C92.4 52.9067 92.2667 52.3467 92 51.92C91.76 51.4667 91.3733 51.24 90.84 51.24C90.28 51.24 89.6933 51.48 89.08 51.96C88.4667 52.44 87.88 53.08 87.32 53.88C86.7867 54.68 86.32 55.5733 85.92 56.56C85.5733 57.3867 85.3067 58.1733 85.12 58.92C84.9333 59.64 84.84 60.3067 84.84 60.92C84.84 61.5867 84.96 62.12 85.2 62.52C85.44 62.92 85.8133 63.12 86.32 63.12ZM91.9156 78.04C91.329 78.04 90.8223 77.8933 90.3956 77.6C89.9423 77.3067 89.7156 76.7333 89.7156 75.88C89.7156 74.5467 90.1156 72.7333 90.9156 70.44C91.7156 68.1467 92.689 65.6267 93.8356 62.88C93.5156 62.3467 93.3556 61.7867 93.3556 61.2C93.3556 60.2667 93.6223 59.6267 94.1556 59.28C94.609 58.9067 95.089 58.76 95.5956 58.84C96.5556 56.68 97.529 54.56 98.5156 52.48C99.5023 50.3733 100.449 48.3867 101.356 46.52C102.289 44.6533 103.129 43.0133 103.876 41.6C104.329 40.72 104.796 40.04 105.276 39.56C105.782 39.08 106.436 38.84 107.236 38.84C107.476 38.84 107.756 38.8933 108.076 39C108.422 39.08 108.729 39.1067 108.996 39.08C108.382 39.6667 107.609 40.6533 106.676 42.04C105.769 43.4 104.782 45.0267 103.716 46.92C102.649 48.8133 101.556 50.8667 100.436 53.08C99.3423 55.2667 98.289 57.4933 97.2756 59.76C97.7023 60.2933 97.9956 60.8267 98.1556 61.36C98.3156 61.8933 98.489 62.5333 98.6756 63.28C99.4756 63.3333 100.236 63 100.956 62.28C101.702 61.56 102.382 60.6533 102.996 59.56C103.636 58.4667 104.182 57.3733 104.636 56.28C104.956 56.28 105.116 56.4 105.116 56.64C104.662 57.76 104.116 58.8933 103.476 60.04C102.862 61.1867 102.156 62.16 101.356 62.96C100.582 63.7333 99.7156 64.1467 98.7556 64.2V65.24C98.7556 66.6267 98.5823 68.0667 98.2356 69.56C97.9156 71.0533 97.449 72.44 96.8356 73.72C96.2223 75 95.5023 76.04 94.6756 76.84C93.849 77.64 92.929 78.04 91.9156 78.04ZM97.5956 63.44H97.7956C97.769 62.9067 97.6623 62.3867 97.4756 61.88C97.289 61.3467 97.0756 60.9467 96.8356 60.68L95.9956 62.72C96.2356 63.2 96.769 63.44 97.5956 63.44ZM92.5156 76.96C92.7823 76.96 93.1023 76.8 93.4756 76.48C93.849 76.1867 94.209 75.8 94.5556 75.32C95.2223 74.44 95.809 73.36 96.3156 72.08C96.8223 70.8 97.2223 69.4667 97.5156 68.08C97.809 66.6933 97.9423 65.4133 97.9156 64.24C97.409 64.24 96.9423 64.1733 96.5156 64.04C96.1156 63.9067 95.7956 63.7467 95.5556 63.56C94.8623 65.3467 94.2223 67.1067 93.6356 68.84C93.0223 70.6 92.5556 72.1467 92.2356 73.48C92.129 73.9867 92.049 74.4267 91.9956 74.8C91.9423 75.1733 91.9156 75.4933 91.9156 75.76C91.9156 76.56 92.1156 76.96 92.5156 76.96ZM107.605 64.2C108.592 62.3067 109.525 60.4133 110.405 58.52C111.285 56.6 112.178 54.7867 113.085 53.08C113.618 52.12 114.058 51.4533 114.405 51.08C114.778 50.68 115.272 50.48 115.885 50.48C116.098 50.48 116.325 50.52 116.565 50.6C116.805 50.6533 117.045 50.68 117.285 50.68C117.445 50.68 117.565 50.6667 117.645 50.64C117.272 50.8533 116.792 51.3867 116.205 52.24C115.618 53.0667 115.018 54.0267 114.405 55.12C113.792 56.2133 113.245 57.24 112.765 58.2C113.272 57.5867 113.792 56.9733 114.325 56.36C114.885 55.7467 115.498 55.16 116.165 54.6C116.752 54.0933 117.365 53.5467 118.005 52.96C118.672 52.3467 119.325 51.8267 119.965 51.4C120.605 50.9733 121.165 50.76 121.645 50.76C121.832 50.76 121.952 50.7733 122.005 50.8C122.512 51.0133 122.765 51.36 122.765 51.84C122.765 52 122.698 52.24 122.565 52.56C122.218 53.4667 121.765 54.4 121.205 55.36C120.672 56.2933 120.165 57.24 119.685 58.2C120.085 57.72 120.578 57.1333 121.165 56.44C121.778 55.7467 122.392 55.1333 123.005 54.6C123.592 54.0667 124.338 53.5067 125.245 52.92C126.152 52.3333 127.045 51.8267 127.925 51.4C128.805 50.9733 129.512 50.76 130.045 50.76C130.232 50.76 130.365 50.7733 130.445 50.8C130.445 50.8 130.298 51.0667 130.005 51.6C129.712 52.1067 129.338 52.7867 128.885 53.64C128.458 54.4667 128.018 55.36 127.565 56.32C127.112 57.2533 126.698 58.16 126.325 59.04C125.978 59.8933 125.752 60.6133 125.645 61.2C125.565 61.5467 125.525 61.8667 125.525 62.16C125.525 62.5867 125.605 62.8667 125.765 63C125.925 63.1333 126.098 63.2 126.285 63.2C126.818 63.2 127.338 62.9733 127.845 62.52C128.378 62.0667 128.898 61.4933 129.405 60.8C129.912 60.08 130.365 59.32 130.765 58.52C131.192 57.72 131.552 56.9733 131.845 56.28C132.165 56.28 132.325 56.4 132.325 56.64C132.032 57.36 131.658 58.16 131.205 59.04C130.778 59.8933 130.285 60.7067 129.725 61.48C129.165 62.2533 128.552 62.8933 127.885 63.4C127.218 63.9067 126.498 64.16 125.725 64.16C125.165 64.16 124.632 63.9733 124.125 63.6C123.645 63.2267 123.405 62.5333 123.405 61.52C123.405 60.4267 123.658 59.3333 124.165 58.24C124.698 57.1467 125.245 56.1467 125.805 55.24C126.072 54.7867 126.205 54.4267 126.205 54.16C126.205 53.84 126.045 53.68 125.725 53.68C125.458 53.68 125.085 53.8133 124.605 54.08C124.152 54.3467 123.578 54.8133 122.885 55.48C122.458 55.88 121.952 56.44 121.365 57.16C120.805 57.8533 120.232 58.6133 119.645 59.44C119.058 60.2667 118.552 61.08 118.125 61.88C117.698 62.68 117.418 63.3867 117.285 64C116.885 64 116.565 63.84 116.325 63.52C116.085 63.1733 115.965 62.7733 115.965 62.32C115.965 62.24 115.965 62.16 115.965 62.08C115.965 62 115.978 61.9067 116.005 61.8C116.138 60.9733 116.352 60.28 116.645 59.72C116.938 59.1333 117.272 58.4533 117.645 57.68C117.832 57.3333 118.045 56.9333 118.285 56.48C118.525 56 118.738 55.5467 118.925 55.12C119.112 54.6667 119.205 54.2933 119.205 54C119.205 53.7333 119.098 53.6 118.885 53.6C118.645 53.6 118.325 53.72 117.925 53.96C117.552 54.2 117.192 54.48 116.845 54.8C116.498 55.0933 116.232 55.32 116.045 55.48C115.378 56.12 114.565 57.04 113.605 58.24C112.672 59.44 111.645 61.1467 110.525 63.36C110.365 63.6533 110.178 63.84 109.965 63.92C109.752 63.9733 109.418 64 108.965 64C108.672 64 108.432 64 108.245 64C108.032 64.0267 107.818 64.0933 107.605 64.2ZM134.717 64.16C133.73 64.16 132.837 63.84 132.037 63.2C131.263 62.56 130.877 61.5867 130.877 60.28C130.877 59.08 131.17 57.8 131.757 56.44C132.343 55.0533 133.09 53.84 133.997 52.8C134.77 51.8933 135.637 51.1467 136.597 50.56C137.557 49.9733 138.463 49.68 139.317 49.68C139.903 49.68 140.41 49.84 140.837 50.16C141.29 50.5067 141.517 51 141.517 51.64C141.517 52.3067 141.263 53.04 140.757 53.84C140.25 54.64 139.53 55.3867 138.597 56.08C138.197 56.3733 137.69 56.6533 137.077 56.92C136.463 57.1867 135.85 57.4133 135.237 57.6C134.623 57.76 134.117 57.84 133.717 57.84C133.583 58.16 133.45 58.5867 133.317 59.12C133.21 59.6533 133.157 60.2 133.157 60.76C133.157 61.4267 133.29 62.0267 133.557 62.56C133.823 63.0933 134.317 63.36 135.037 63.36C135.97 63.36 136.93 63.0533 137.917 62.44C138.903 61.8 139.837 61.0133 140.717 60.08C141.597 59.12 142.33 58.1733 142.917 57.24C143.263 56.52 143.61 55.8133 143.957 55.12C144.303 54.4267 144.65 53.7467 144.997 53.08C145.53 52.12 145.97 51.4533 146.317 51.08C146.69 50.68 147.183 50.48 147.797 50.48C148.01 50.48 148.237 50.52 148.477 50.6C148.717 50.6533 148.957 50.68 149.197 50.68C149.357 50.68 149.477 50.6667 149.557 50.64C149.183 50.8533 148.703 51.3867 148.117 52.24C147.53 53.0667 146.93 54.0267 146.317 55.12C145.703 56.2133 145.157 57.24 144.677 58.2C145.183 57.5867 145.703 56.9733 146.237 56.36C146.797 55.7467 147.41 55.16 148.077 54.6C148.663 54.0933 149.277 53.5467 149.917 52.96C150.583 52.3467 151.237 51.8267 151.877 51.4C152.517 50.9733 153.077 50.76 153.557 50.76C153.743 50.76 153.863 50.7733 153.917 50.8C154.423 51.0133 154.677 51.36 154.677 51.84C154.677 52 154.61 52.24 154.477 52.56C154.13 53.4667 153.677 54.4 153.117 55.36C152.583 56.2933 152.077 57.24 151.597 58.2C151.997 57.72 152.49 57.1333 153.077 56.44C153.69 55.7467 154.303 55.1333 154.917 54.6C155.503 54.0667 156.25 53.5067 157.157 52.92C158.063 52.3333 158.957 51.8267 159.837 51.4C160.717 50.9733 161.423 50.76 161.957 50.76C162.143 50.76 162.277 50.7733 162.357 50.8C162.357 50.8 162.21 51.0667 161.917 51.6C161.623 52.1067 161.25 52.7867 160.797 53.64C160.37 54.4667 159.93 55.36 159.477 56.32C159.023 57.2533 158.61 58.16 158.237 59.04C157.89 59.8933 157.663 60.6133 157.557 61.2C157.477 61.5467 157.437 61.8667 157.437 62.16C157.437 62.5867 157.517 62.8667 157.677 63C157.837 63.1333 158.01 63.2 158.197 63.2C158.73 63.2 159.25 62.9733 159.757 62.52C160.29 62.0667 160.81 61.4933 161.317 60.8C161.823 60.08 162.277 59.32 162.677 58.52C163.103 57.72 163.463 56.9733 163.757 56.28C164.077 56.28 164.237 56.4 164.237 56.64C163.943 57.36 163.57 58.16 163.117 59.04C162.69 59.8933 162.197 60.7067 161.637 61.48C161.077 62.2533 160.463 62.8933 159.797 63.4C159.13 63.9067 158.41 64.16 157.637 64.16C157.077 64.16 156.543 63.9733 156.037 63.6C155.557 63.2267 155.317 62.5333 155.317 61.52C155.317 60.4267 155.57 59.3333 156.077 58.24C156.61 57.1467 157.157 56.1467 157.717 55.24C157.983 54.7867 158.117 54.4267 158.117 54.16C158.117 53.84 157.957 53.68 157.637 53.68C157.37 53.68 156.997 53.8133 156.517 54.08C156.063 54.3467 155.49 54.8133 154.797 55.48C154.37 55.88 153.863 56.44 153.277 57.16C152.717 57.8533 152.143 58.6133 151.557 59.44C150.97 60.2667 150.463 61.08 150.037 61.88C149.61 62.68 149.33 63.3867 149.197 64C148.797 64 148.477 63.84 148.237 63.52C147.997 63.1733 147.877 62.7733 147.877 62.32C147.877 62.24 147.877 62.16 147.877 62.08C147.877 62 147.89 61.9067 147.917 61.8C148.05 60.9733 148.263 60.28 148.557 59.72C148.85 59.1333 149.183 58.4533 149.557 57.68C149.743 57.3333 149.957 56.9333 150.197 56.48C150.437 56 150.65 55.5467 150.837 55.12C151.023 54.6667 151.117 54.2933 151.117 54C151.117 53.7333 151.01 53.6 150.797 53.6C150.557 53.6 150.237 53.72 149.837 53.96C149.463 54.2 149.103 54.48 148.757 54.8C148.41 55.0933 148.143 55.32 147.957 55.48C147.29 56.12 146.477 57.04 145.517 58.24C144.583 59.44 143.557 61.1467 142.437 63.36C142.277 63.6533 142.09 63.84 141.877 63.92C141.663 63.9733 141.33 64 140.877 64C140.583 64 140.33 64 140.117 64C139.93 64.0267 139.73 64.0933 139.517 64.2L141.317 60.6C140.41 61.5867 139.383 62.4267 138.237 63.12C137.117 63.8133 135.943 64.16 134.717 64.16ZM133.997 57.12C134.37 57.12 134.997 56.9867 135.877 56.72C136.757 56.4267 137.557 55.9733 138.277 55.36C138.97 54.7467 139.503 54.08 139.877 53.36C140.25 52.6133 140.437 51.9867 140.437 51.48C140.437 50.8933 140.223 50.6 139.797 50.6C139.477 50.6 139.037 50.8133 138.477 51.24C137.917 51.6667 137.223 52.3867 136.397 53.4C135.89 54.04 135.41 54.7333 134.957 55.48C134.503 56.2267 134.183 56.7733 133.997 57.12ZM170.591 49.96C171.604 49.96 172.364 50.2933 172.871 50.96C173.404 51.6267 173.711 52.4667 173.791 53.48C173.871 54.7067 173.671 55.96 173.191 57.24C173.111 57.4533 173.031 57.6667 172.951 57.88C173.831 58.0133 174.604 57.7067 175.271 56.96C175.937 56.1867 176.497 55.1333 176.951 53.8C177.404 52.6267 177.777 51.48 178.071 50.36C178.391 49.2133 178.644 48.1467 178.831 47.16C178.911 46.7333 179.057 46.4267 179.271 46.24C179.484 46.0267 179.711 45.92 179.951 45.92C180.297 45.92 180.617 46.0933 180.911 46.44C181.204 46.76 181.351 47.2267 181.351 47.84C181.351 47.9467 181.337 48.0667 181.311 48.2C181.311 48.3333 181.297 48.4667 181.271 48.6C181.164 49.16 180.844 49.6933 180.311 50.2C179.804 50.68 179.391 51.04 179.071 51.28C179.337 51.3067 179.617 51.3333 179.911 51.36C180.204 51.36 180.524 51.36 180.871 51.36C182.124 51.36 183.364 51.28 184.591 51.12C184.644 51.28 184.671 51.4 184.671 51.48C184.671 51.8267 184.564 52.2667 184.351 52.8C184.164 53.3333 183.964 53.8133 183.751 54.24C183.644 54.48 183.431 54.92 183.111 55.56C182.791 56.1733 182.444 56.88 182.071 57.68C181.697 58.4533 181.377 59.2267 181.111 60C180.871 60.7467 180.751 61.3867 180.751 61.92C180.751 62.6133 181.017 62.96 181.551 62.96C181.951 62.96 182.391 62.7067 182.871 62.2C183.351 61.6933 183.831 61.0667 184.311 60.32C184.791 59.5733 185.217 58.84 185.591 58.12C185.991 57.3733 186.284 56.76 186.471 56.28C186.791 56.28 186.951 56.4 186.951 56.64C186.577 57.4933 186.097 58.4533 185.511 59.52C184.951 60.5867 184.297 61.5467 183.551 62.4C182.804 63.2533 181.991 63.7867 181.111 64C181.031 64.0267 180.884 64.04 180.671 64.04C180.164 64.04 179.657 63.84 179.151 63.44C178.644 63.0133 178.391 62.3333 178.391 61.4C178.391 60.68 178.564 59.8533 178.911 58.92C179.231 58.0133 179.657 57.1333 180.191 56.28C180.751 55.4267 181.151 54.7333 181.391 54.2C181.471 53.9867 181.511 53.8 181.511 53.64C181.511 53.16 181.204 52.8133 180.591 52.6C180.004 52.3867 179.231 52.2667 178.271 52.24L177.791 53.56C177.231 55.4 176.511 56.7867 175.631 57.72C174.777 58.6267 173.751 58.9467 172.551 58.68C172.097 59.56 171.524 60.4133 170.831 61.24C170.137 62.04 169.391 62.7067 168.591 63.24C167.791 63.7467 166.977 64 166.151 64C165.137 64 164.364 63.6667 163.831 63C163.324 62.3067 163.031 61.4667 162.951 60.48C162.871 59.3067 163.071 58.0533 163.551 56.72C163.977 55.4933 164.564 54.3733 165.311 53.36C166.084 52.3467 166.924 51.5333 167.831 50.92C168.764 50.28 169.684 49.96 170.591 49.96ZM172.631 55.16C172.791 54.4667 172.844 53.8133 172.791 53.2C172.764 52.5867 172.617 52.1067 172.351 51.76C172.084 51.4133 171.711 51.24 171.231 51.24C170.671 51.24 170.084 51.48 169.471 51.96C168.857 52.44 168.271 53.08 167.711 53.88C167.177 54.68 166.711 55.5733 166.311 56.56C165.937 57.4667 165.657 58.3467 165.471 59.2C165.284 60.0267 165.217 60.7467 165.271 61.36C165.324 61.8933 165.457 62.32 165.671 62.64C165.911 62.96 166.257 63.12 166.711 63.12C167.324 63.12 167.951 62.8533 168.591 62.32C169.231 61.7867 169.817 61.1467 170.351 60.4C170.884 59.6533 171.297 58.96 171.591 58.32C171.217 57.9467 170.937 57.56 170.751 57.16C170.564 56.7333 170.471 56.4133 170.471 56.2C170.444 55.7733 170.524 55.4133 170.711 55.12C170.897 54.8267 171.217 54.68 171.671 54.68C172.044 54.68 172.364 54.84 172.631 55.16ZM180.965 76.76C179.578 76.76 178.592 76.48 178.005 75.92C177.418 75.3867 177.125 74.7467 177.125 74C177.125 72.8533 177.552 71.7867 178.405 70.8C179.232 69.84 180.258 69.0667 181.485 68.48C182.872 67.84 184.445 67.32 186.205 66.92C187.992 66.52 189.698 66.08 191.325 65.6C191.832 64.72 192.298 63.72 192.725 62.6C193.152 61.4533 193.538 60.3467 193.885 59.28C194.232 58.1867 194.512 57.2933 194.725 56.6C194.405 57.1867 193.992 57.9067 193.485 58.76C193.005 59.5867 192.458 60.4 191.845 61.2C191.232 62 190.565 62.6667 189.845 63.2C189.152 63.7333 188.418 64 187.645 64C187.352 64 186.992 63.9333 186.565 63.8C186.165 63.6667 185.805 63.4267 185.485 63.08C185.192 62.7067 185.045 62.16 185.045 61.44C185.045 60.7467 185.258 59.9867 185.685 59.16C186.112 58.3067 186.538 57.4667 186.965 56.64C186.832 56.64 186.712 56.6267 186.605 56.6C186.525 56.5733 186.485 56.4667 186.485 56.28C186.565 56.12 186.725 55.7733 186.965 55.24C187.205 54.7067 187.472 54.12 187.765 53.48C188.085 52.84 188.365 52.28 188.605 51.8C188.898 51.1867 189.218 50.76 189.565 50.52C189.938 50.28 190.298 50.16 190.645 50.16H193.125C192.938 50.32 192.698 50.5067 192.405 50.72C192.138 50.9067 191.885 51.2 191.645 51.6C190.925 52.8267 190.298 54.0133 189.765 55.16C189.232 56.28 188.658 57.48 188.045 58.76C187.752 59.3733 187.538 59.9333 187.405 60.44C187.272 60.9467 187.205 61.3867 187.205 61.76C187.205 62.64 187.498 63.08 188.085 63.08C188.725 63.08 189.498 62.56 190.405 61.52C191.152 60.64 191.898 59.6 192.645 58.4C193.418 57.1733 194.152 55.92 194.845 54.64C195.565 53.3333 196.192 52.1333 196.725 51.04C197.018 50.4533 197.538 50.16 198.285 50.16H200.485C199.712 50.6933 199.112 51.3867 198.685 52.24C198.285 53.0933 197.832 54.1867 197.325 55.52C196.765 56.9867 196.232 58.5067 195.725 60.08C195.218 61.6533 194.658 63.2667 194.045 64.92C195.352 64.4667 196.445 63.88 197.325 63.16C198.205 62.44 198.978 61.52 199.645 60.4C200.338 59.2533 201.032 57.88 201.725 56.28C202.045 56.28 202.205 56.4 202.205 56.64C201.618 57.8667 201.085 58.9467 200.605 59.88C200.125 60.8133 199.592 61.64 199.005 62.36C198.418 63.0533 197.685 63.6933 196.805 64.28C195.925 64.8933 194.792 65.48 193.405 66.04C192.765 67.1867 192.032 68.3733 191.205 69.6C190.405 70.8533 189.485 72.0133 188.445 73.08C187.432 74.1733 186.298 75.0533 185.045 75.72C183.818 76.4133 182.458 76.76 180.965 76.76ZM180.005 75.96C180.885 75.96 181.792 75.6933 182.725 75.16C183.658 74.6267 184.565 73.9467 185.445 73.12C186.325 72.32 187.125 71.4933 187.845 70.64C188.592 69.8133 189.192 69.08 189.645 68.44C189.778 68.2533 189.925 68.0133 190.085 67.72C190.245 67.4267 190.405 67.1467 190.565 66.88C189.258 67.2267 187.818 67.6 186.245 68C184.698 68.4267 183.352 68.8933 182.205 69.4C180.925 69.9333 179.925 70.6933 179.205 71.68C178.458 72.6667 178.085 73.5467 178.085 74.32C178.085 74.8 178.245 75.1867 178.565 75.48C178.858 75.8 179.338 75.96 180.005 75.96Z" fill="#5C4F45"/>
<path d="M177.564 8.82227H182.418V16H180.543V14.2422C179.365 15.4792 177.984 16.0977 176.402 16.0977C175.484 16.0977 174.609 15.8991 173.775 15.502C172.949 15.1048 172.239 14.5775 171.646 13.9199C171.061 13.2624 170.592 12.4909 170.24 11.6055C169.895 10.7135 169.723 9.79232 169.723 8.8418C169.723 7.89128 169.895 6.97982 170.24 6.10742C170.585 5.22852 171.051 4.4668 171.637 3.82227C172.229 3.17773 172.945 2.66341 173.785 2.2793C174.632 1.89518 175.53 1.70312 176.48 1.70312C177.789 1.70312 178.909 1.97982 179.84 2.5332C180.777 3.08008 181.49 3.83529 181.979 4.79883L180.26 6.03906C179.876 5.28385 179.348 4.71094 178.678 4.32031C178.007 3.92318 177.255 3.72461 176.422 3.72461C175.556 3.72461 174.781 3.96875 174.098 4.45703C173.414 4.9388 172.893 5.57357 172.535 6.36133C172.177 7.14258 171.998 7.98893 171.998 8.90039C171.998 10.3392 172.438 11.5632 173.316 12.5723C174.195 13.5749 175.283 14.0762 176.578 14.0762C178.049 14.0762 179.371 13.3828 180.543 11.9961V10.4824H177.564V8.82227ZM184.977 16V1.80078H187.213V16H184.977ZM198.824 5.14062C198.518 4.80208 197.997 4.47656 197.262 4.16406C196.526 3.85156 195.768 3.69531 194.986 3.69531C194.062 3.69531 193.368 3.86784 192.906 4.21289C192.451 4.55143 192.223 5.0332 192.223 5.6582C192.223 5.85352 192.249 6.0293 192.301 6.18555C192.353 6.3418 192.418 6.48177 192.496 6.60547C192.581 6.72266 192.704 6.83659 192.867 6.94727C193.03 7.05794 193.189 7.15234 193.346 7.23047C193.508 7.30859 193.727 7.39323 194 7.48438C194.28 7.56901 194.54 7.64388 194.781 7.70898C195.022 7.76758 195.338 7.8457 195.729 7.94336C196.354 8.0931 196.887 8.24284 197.33 8.39258C197.773 8.53581 198.199 8.72135 198.609 8.94922C199.02 9.17057 199.348 9.42122 199.596 9.70117C199.843 9.97461 200.038 10.3099 200.182 10.707C200.331 11.1042 200.406 11.5566 200.406 12.0645C200.406 12.6309 200.315 13.1419 200.133 13.5977C199.957 14.0534 199.713 14.4375 199.4 14.75C199.088 15.0625 198.71 15.3262 198.268 15.541C197.825 15.7493 197.35 15.9023 196.842 16C196.334 16.0911 195.787 16.1367 195.201 16.1367C194.12 16.1367 193.076 15.974 192.066 15.6484C191.057 15.3164 190.149 14.8411 189.342 14.2227L190.367 12.2988C190.777 12.722 191.445 13.1322 192.369 13.5293C193.3 13.9199 194.257 14.1152 195.24 14.1152C196.126 14.1152 196.806 13.959 197.281 13.6465C197.763 13.334 198.004 12.8848 198.004 12.2988C198.004 12.0645 197.968 11.8529 197.896 11.6641C197.825 11.4753 197.701 11.306 197.525 11.1562C197.35 11 197.167 10.8665 196.979 10.7559C196.796 10.6452 196.533 10.5312 196.188 10.4141C195.849 10.2969 195.536 10.1992 195.25 10.1211C194.97 10.043 194.589 9.94206 194.107 9.81836C193.359 9.62305 192.74 9.42448 192.252 9.22266C191.764 9.02083 191.331 8.77344 190.953 8.48047C190.582 8.1875 190.312 7.84245 190.143 7.44531C189.973 7.04167 189.889 6.56641 189.889 6.01953C189.889 5.33594 190.019 4.7207 190.279 4.17383C190.546 3.62044 190.911 3.16471 191.373 2.80664C191.835 2.44857 192.379 2.17513 193.004 1.98633C193.629 1.79753 194.309 1.70312 195.045 1.70312C196.79 1.70312 198.388 2.23698 199.84 3.30469L198.824 5.14062Z" fill="#A9896A"/>
</svg>
