<svg width="48" height="48" viewBox="0 0 48 48" fill="none" xmlns="http://www.w3.org/2000/svg">
<path d="M9.9988 32L12.9288 35.276C13.4516 35.8381 13.8017 36.5387 13.9372 37.2943C14.0727 38.0499 13.9879 38.8285 13.693 39.5372C13.398 40.246 12.9054 40.8548 12.2738 41.2912C11.6423 41.7276 10.8985 41.973 10.1313 41.9982C9.36404 42.0234 8.60577 41.8273 7.94695 41.4333C7.28814 41.0393 6.75661 40.464 6.41581 39.7762C6.07501 39.0883 5.93933 38.317 6.02497 37.5541C6.11062 36.7913 6.41396 36.0692 6.8988 35.474L9.9988 32Z" stroke="#5C4F45" stroke-linecap="round" stroke-linejoin="round"/>
<path d="M27.4744 19.4739C32.0724 14.8739 33.9344 9.28392 31.6364 6.98392C29.3364 4.68392 23.7464 6.54992 19.1484 11.1479C14.5484 15.7459 12.6864 21.3379 14.9844 23.6359C17.2844 25.9359 22.8764 24.0719 27.4744 19.4739Z" stroke="#5C4F45" stroke-linecap="round" stroke-linejoin="round"/>
<path d="M14.9844 23.6359C15.7084 24.3599 16.5204 24.9879 17.4004 25.5039L31.1904 33.5979C33.3464 34.7119 35.7004 33.4479 38.5744 30.5739C41.4484 27.6999 42.7144 25.3459 41.5984 23.1899C40.8544 21.7539 38.1584 17.1559 33.5044 9.39989C32.9869 8.51847 32.3591 7.70659 31.6364 6.98389" stroke="#5C4F45" stroke-linecap="round" stroke-linejoin="round"/>
</svg>
