<svg width="24" height="24" viewBox="0 0 24 24" fill="none" xmlns="http://www.w3.org/2000/svg">
<path d="M12 18.5L9 17L3 20V7L9 4L15 7L21 4V11.5" stroke="#5C4F45" stroke-linecap="round" stroke-linejoin="round"/>
<path d="M9 4V17" stroke="#5C4F45" stroke-linecap="round" stroke-linejoin="round"/>
<path d="M15 7V12.5" stroke="#5C4F45" stroke-linecap="round" stroke-linejoin="round"/>
<path d="M21.121 20.1207C21.5406 19.7011 21.8265 19.1666 21.9423 18.5846C22.0581 18.0027 21.9988 17.3994 21.7717 16.8512C21.5447 16.303 21.1602 15.8344 20.6668 15.5047C20.1734 15.175 19.5934 14.999 19 14.999C18.4066 14.999 17.8266 15.175 17.3332 15.5047C16.8398 15.8344 16.4553 16.303 16.2283 16.8512C16.0012 17.3994 15.9419 18.0027 16.0577 18.5846C16.1735 19.1666 16.4594 19.7011 16.879 20.1207C17.297 20.5397 18.004 21.1657 19 21.9997C20.051 21.1097 20.759 20.4837 21.121 20.1207Z" stroke="#5C4F45" stroke-linecap="round" stroke-linejoin="round"/>
<path d="M19 18V18.01" stroke="#5C4F45" stroke-linecap="round" stroke-linejoin="round"/>
</svg>
