<svg width="133" height="133" viewBox="0 0 133 133" fill="none" xmlns="http://www.w3.org/2000/svg">
<circle cx="66.5" cy="66.5" r="66" stroke="#5C4F45" stroke-dasharray="4 4"/>
<g clip-path="url(#clip0_2231_17239)">
<path opacity="0.3" d="M76.1926 92.9552C74.0207 93.2445 67.0008 94 67.0008 94C67.0008 94 59.9797 93.2444 57.8074 92.9552C55.9894 92.7131 54.7513 92.4047 54.2497 92.0689C53.7482 91.733 54.0057 91.385 54.9896 91.0686C55.9736 90.7523 57.6398 90.482 59.7777 90.2917C61.9155 90.1015 64.4289 90 67 90C69.5711 90 72.0845 90.1015 74.2223 90.2917C76.3602 90.482 78.0264 90.7523 79.0104 91.0686C79.9943 91.385 80.2518 91.733 79.7503 92.0689C79.2487 92.4047 78.0106 92.7131 76.1926 92.9552Z" fill="#5C4F45"/>
<path d="M83.971 78.9701C79.9614 82.9798 67.0015 93.4543 67.0015 93.4543C67.0015 93.4543 54.0395 82.9796 50.029 78.9701C46.6727 75.6136 44.387 71.3372 43.4611 66.6817C42.5351 62.0262 43.0105 57.2007 44.827 52.8153C46.6436 48.43 49.7197 44.6817 53.6665 42.0446C57.6132 39.4075 62.2533 38 67 38C71.7467 38 76.3868 39.4075 80.3336 42.0446C84.2803 44.6817 87.3565 48.43 89.173 52.8153C90.9895 57.2007 91.4649 62.0262 90.539 66.6817C89.613 71.3372 87.3274 75.6136 83.971 78.9701Z" fill="white"/>
<circle cx="67" cy="62" r="10" fill="#5C4F45"/>
</g>
<defs>
<clipPath id="clip0_2231_17239">
<rect width="48" height="56" fill="white" transform="translate(43 38)"/>
</clipPath>
</defs>
</svg>
