<svg width="12" height="104" viewBox="0 0 12 104" fill="none" xmlns="http://www.w3.org/2000/svg">
<mask id="path-1-inside-1_2231_13486" fill="white">
<path d="M0 0H6V104H0V0Z"/>
</mask>
<path d="M6 0H7V-1H6V0ZM6 104V105H7V104H6ZM0 1H6V-1H0V1ZM5 0V104H7V0H5ZM6 103H0V105H6V103Z" fill="#5C4F45" mask="url(#path-1-inside-1_2231_13486)"/>
<mask id="path-3-inside-2_2231_13486" fill="white">
<path d="M6 7H12V97H6V7Z"/>
</mask>
<path d="M12 7H13V6H12V7ZM12 97V98H13V97H12ZM6 8H12V6H6V8ZM11 7V97H13V7H11ZM12 96H6V98H12V96Z" fill="#5C4F45" mask="url(#path-3-inside-2_2231_13486)"/>
</svg>
