<svg width="48" height="48" viewBox="0 0 48 48" fill="none" xmlns="http://www.w3.org/2000/svg">
<path d="M23 40H10C8.93913 40 7.92172 39.5786 7.17157 38.8284C6.42143 38.0783 6 37.0609 6 36V18C6 16.9391 6.42143 15.9217 7.17157 15.1716C7.92172 14.4214 8.93913 14 10 14H12C13.0609 14 14.0783 13.5786 14.8284 12.8284C15.5786 12.0783 16 11.0609 16 10C16 9.46957 16.2107 8.96086 16.5858 8.58579C16.9609 8.21071 17.4696 8 18 8H30C30.5304 8 31.0391 8.21071 31.4142 8.58579C31.7893 8.96086 32 9.46957 32 10C32 11.0609 32.4214 12.0783 33.1716 12.8284C33.9217 13.5786 34.9391 14 36 14H38C39.0609 14 40.0783 14.4214 40.8284 15.1716C41.5786 15.9217 42 16.9391 42 18V24" stroke="#5C4F45" stroke-linecap="round" stroke-linejoin="round"/>
<path d="M18 26C18 27.5913 18.6321 29.1174 19.7574 30.2426C20.8826 31.3679 22.4087 32 24 32C25.5913 32 27.1174 31.3679 28.2426 30.2426C29.3679 29.1174 30 27.5913 30 26C30 24.4087 29.3679 22.8826 28.2426 21.7574C27.1174 20.6321 25.5913 20 24 20C22.4087 20 20.8826 20.6321 19.7574 21.7574C18.6321 22.8826 18 24.4087 18 26Z" stroke="#5C4F45" stroke-linecap="round" stroke-linejoin="round"/>
<path d="M38 45C38.4106 43.3025 39.2812 41.7511 40.5162 40.5162C41.7511 39.2812 43.3025 38.4106 45 38C43.3025 37.5894 41.7511 36.7188 40.5162 35.4838C39.2812 34.2489 38.4106 32.6975 38 31C37.5894 32.6975 36.7188 34.2489 35.4838 35.4838C34.2489 36.7188 32.6975 37.5894 31 38C32.6975 38.4106 34.2489 39.2812 35.4838 40.5162C36.7188 41.7511 37.5894 43.3025 38 45Z" stroke="#5C4F45" stroke-linecap="round" stroke-linejoin="round"/>
</svg>
