<svg width="48" height="48" viewBox="0 0 48 48" fill="none" xmlns="http://www.w3.org/2000/svg">
<path d="M10 10C10 8.93913 10.4214 7.92172 11.1716 7.17157C11.9217 6.42143 12.9391 6 14 6H34C35.0609 6 36.0783 6.42143 36.8284 7.17157C37.5786 7.92172 38 8.93913 38 10V14C38 15.0609 37.5786 16.0783 36.8284 16.8284C36.0783 17.5786 35.0609 18 34 18H14C12.9391 18 11.9217 17.5786 11.1716 16.8284C10.4214 16.0783 10 15.0609 10 14V10Z" stroke="#5C4F45" stroke-linecap="round" stroke-linejoin="round"/>
<path d="M38 12H40C41.0609 12 42.0783 12.4214 42.8284 13.1716C43.5786 13.9217 44 14.9391 44 16C44 18.6522 42.9464 21.1957 41.0711 23.0711C39.1957 24.9464 36.6522 26 34 26H24V30" stroke="#5C4F45" stroke-linecap="round" stroke-linejoin="round"/>
<path d="M20 32C20 31.4696 20.2107 30.9609 20.5858 30.5858C20.9609 30.2107 21.4696 30 22 30H26C26.5304 30 27.0391 30.2107 27.4142 30.5858C27.7893 30.9609 28 31.4696 28 32V40C28 40.5304 27.7893 41.0391 27.4142 41.4142C27.0391 41.7893 26.5304 42 26 42H22C21.4696 42 20.9609 41.7893 20.5858 41.4142C20.2107 41.0391 20 40.5304 20 40V32Z" stroke="#5C4F45" stroke-linecap="round" stroke-linejoin="round"/>
</svg>
