<svg width="89" height="88" viewBox="0 0 89 88" fill="none" xmlns="http://www.w3.org/2000/svg">
<path d="M18.8359 43.9997C18.8359 47.3703 19.4998 50.7079 20.7897 53.8219C22.0796 56.9359 23.9702 59.7654 26.3535 62.1487C28.7369 64.5321 31.5664 66.4227 34.6804 67.7126C37.7944 69.0025 41.132 69.6663 44.5026 69.6663C47.8732 69.6663 51.2108 69.0025 54.3248 67.7126C57.4388 66.4227 60.2683 64.5321 62.6517 62.1487C65.035 59.7654 66.9256 56.9359 68.2155 53.8219C69.5054 50.7079 70.1693 47.3703 70.1693 43.9997C70.1693 40.6291 69.5054 37.2915 68.2155 34.1775C66.9256 31.0634 65.035 28.234 62.6517 25.8506C60.2683 23.4672 57.4388 21.5766 54.3248 20.2868C51.2108 18.9969 47.8732 18.333 44.5026 18.333C41.132 18.333 37.7944 18.9969 34.6804 20.2868C31.5664 21.5766 28.7369 23.4672 26.3535 25.8506C23.9702 28.234 22.0796 31.0634 20.7897 34.1775C19.4998 37.2915 18.8359 40.6291 18.8359 43.9997Z" stroke="#5C4F45" stroke-linecap="round" stroke-linejoin="round"/>
<path d="M77.5026 76.9997L62.8359 62.333" stroke="#5C4F45" stroke-linecap="round" stroke-linejoin="round"/>
</svg>
