<svg width="48" height="48" viewBox="0 0 48 48" fill="none" xmlns="http://www.w3.org/2000/svg">
<path d="M20 8L24 10L28 8" stroke="#5C4F45" stroke-linecap="round" stroke-linejoin="round"/>
<path d="M24 4V17L30 20.44" stroke="#5C4F45" stroke-linecap="round" stroke-linejoin="round"/>
<path d="M35.8594 12.5361L36.1274 17.0001L39.8594 19.4641" stroke="#5C4F45" stroke-linecap="round" stroke-linejoin="round"/>
<path d="M41.3205 14L30.0625 20.5L30.0825 27.416" stroke="#5C4F45" stroke-linecap="round" stroke-linejoin="round"/>
<path d="M39.8594 28.5361L36.1274 31.0001L35.8594 35.4641" stroke="#5C4F45" stroke-linecap="round" stroke-linejoin="round"/>
<path d="M41.3161 34L30.0581 27.5L24.0781 30.976" stroke="#5C4F45" stroke-linecap="round" stroke-linejoin="round"/>
<path d="M28 40L24 38L20 40" stroke="#5C4F45" stroke-linecap="round" stroke-linejoin="round"/>
<path d="M24 44.0001V31.0001L18 27.5601" stroke="#5C4F45" stroke-linecap="round" stroke-linejoin="round"/>
<path d="M12.1406 35.4641L11.8726 31.0001L8.14062 28.5361" stroke="#5C4F45" stroke-linecap="round" stroke-linejoin="round"/>
<path d="M6.67969 34L17.9377 27.5L17.9177 20.584" stroke="#5C4F45" stroke-linecap="round" stroke-linejoin="round"/>
<path d="M8.14062 19.4641L11.8726 17.0001L12.1406 12.5361" stroke="#5C4F45" stroke-linecap="round" stroke-linejoin="round"/>
<path d="M6.67969 14L17.9377 20.5L23.9177 17.024" stroke="#5C4F45" stroke-linecap="round" stroke-linejoin="round"/>
</svg>
