<svg width="24" height="24" viewBox="0 0 24 24" fill="none" xmlns="http://www.w3.org/2000/svg">
<path d="M4.99655 7.19997C4.99655 6.6165 5.22834 6.05692 5.64092 5.64434C6.0535 5.23176 6.61308 4.99997 7.19655 4.99997H8.19655C8.77745 4.99964 9.33464 4.76957 9.74655 4.35997L10.4466 3.65997C10.651 3.45437 10.8941 3.29121 11.1618 3.17988C11.4295 3.06855 11.7166 3.01123 12.0066 3.01123C12.2965 3.01123 12.5836 3.06855 12.8513 3.17988C13.119 3.29121 13.3621 3.45437 13.5666 3.65997L14.2666 4.35997C14.6786 4.76997 15.2366 4.99997 15.8166 4.99997H16.8166C17.4 4.99997 17.9596 5.23176 18.3722 5.64434C18.7848 6.05692 19.0166 6.6165 19.0166 7.19997V8.19997C19.0166 8.77997 19.2466 9.33797 19.6566 9.74997L20.3566 10.45C20.5622 10.6544 20.7253 10.8975 20.8366 11.1652C20.948 11.4329 21.0053 11.72 21.0053 12.01C21.0053 12.2999 20.948 12.587 20.8366 12.8547C20.7253 13.1225 20.5622 13.3655 20.3566 13.57L19.6566 14.27C19.247 14.6819 19.0169 15.2391 19.0166 15.82V16.82C19.0166 17.4034 18.7848 17.963 18.3722 18.3756C17.9596 18.7882 17.4 19.02 16.8166 19.02H15.8166C15.2357 19.0203 14.6785 19.2504 14.2666 19.66L13.5666 20.36C13.3621 20.5656 13.119 20.7287 12.8513 20.8401C12.5836 20.9514 12.2965 21.0087 12.0066 21.0087C11.7166 21.0087 11.4295 20.9514 11.1618 20.8401C10.8941 20.7287 10.651 20.5656 10.4466 20.36L9.74655 19.66C9.33464 19.2504 8.77745 19.0203 8.19655 19.02H7.19655C6.61308 19.02 6.0535 18.7882 5.64092 18.3756C5.22834 17.963 4.99655 17.4034 4.99655 16.82V15.82C4.99622 15.2391 4.76616 14.6819 4.35655 14.27L3.65655 13.57C3.45096 13.3655 3.2878 13.1225 3.17646 12.8547C3.06513 12.587 3.00781 12.2999 3.00781 12.01C3.00781 11.72 3.06513 11.4329 3.17646 11.1652C3.2878 10.8975 3.45096 10.6544 3.65655 10.45L4.35655 9.74997C4.76616 9.33806 4.99622 8.78087 4.99655 8.19997V7.19997Z" stroke="white" stroke-linecap="round" stroke-linejoin="round"/>
<path d="M9 12L11 14L15 10" stroke="white" stroke-linecap="round" stroke-linejoin="round"/>
</svg>
