<svg width="46" height="46" viewBox="0 0 46 46" fill="none" xmlns="http://www.w3.org/2000/svg">
<path d="M23.0025 0.262695C10.4517 0.262695 0.265625 10.4488 0.265625 22.9995C0.265625 35.5503 10.4517 45.7364 23.0025 45.7364C35.5532 45.7364 45.7393 35.5503 45.7393 22.9995C45.7393 10.4488 35.5532 0.262695 23.0025 0.262695ZM33.5524 15.7237C33.2113 19.3162 31.7334 28.0471 30.9831 32.0715C30.6648 33.7768 30.0282 34.3452 29.437 34.4134C28.1183 34.5271 27.1178 33.5494 25.8446 32.7082C23.8437 31.3894 22.7069 30.5709 20.7743 29.2976C18.5233 27.8197 19.9785 27.0012 21.2745 25.6825C21.6155 25.3414 27.4362 20.0437 27.5498 19.5663C27.5656 19.494 27.5635 19.4189 27.5437 19.3476C27.5239 19.2762 27.487 19.2108 27.4362 19.157C27.2997 19.0433 27.1178 19.0888 26.9587 19.1115C26.754 19.157 23.5709 21.2715 17.3637 25.4551C16.4543 26.069 15.6357 26.3873 14.9082 26.3646C14.0896 26.3419 12.5435 25.9099 11.3839 25.5233C9.95152 25.0686 8.83741 24.8185 8.92836 24.0227C8.97384 23.6134 9.54226 23.2042 10.6109 22.7722C17.25 19.8846 21.661 17.9747 23.8665 17.0652C30.1873 14.4277 31.4833 13.973 32.3473 13.973C32.5292 13.973 32.9612 14.0185 33.234 14.2459C33.4614 14.4277 33.5296 14.6779 33.5524 14.8597C33.5296 14.9962 33.5751 15.4054 33.5524 15.7237Z" fill="#5C4F45"/>
</svg>
