<svg width="46" height="46" viewBox="0 0 46 46" fill="none" xmlns="http://www.w3.org/2000/svg">
<path fill-rule="evenodd" clip-rule="evenodd" d="M23.0025 45.7364C35.5597 45.7364 45.7393 35.5568 45.7393 22.9995C45.7393 10.4423 35.5597 0.262695 23.0025 0.262695C10.4453 0.262695 0.265625 10.4423 0.265625 22.9995C0.265625 35.5568 10.4453 45.7364 23.0025 45.7364ZM22.2165 15.4975C21.7012 15.4614 21.0308 15.4144 20.3505 15.4213C19.0394 15.4346 17.6911 15.6485 17.3477 16.5306C19.0453 17.074 19.1631 18.2519 19.1568 19.2341C19.1558 19.4013 19.155 19.5749 19.1543 19.7511C19.1484 21.0822 19.1419 22.5626 19.0008 22.5753C18.7255 23.7204 18.1739 23.5133 17.5499 22.9501C16.1172 21.1238 15.0344 19.0583 14.0415 16.955C13.787 16.416 13.4618 16.1453 12.9797 16.1557C12.5298 16.1654 12.0238 16.1566 11.5071 16.1476C9.99953 16.1212 8.4015 16.0932 7.84457 16.5198C7.9049 17.2502 8.14054 17.9393 8.5854 18.8787C10.0716 22.0168 11.8652 24.6365 13.7447 27.2413L13.7495 27.2465C16.3113 30.0478 18.0465 31.9452 23.1357 31.7306C23.172 31.7291 23.2088 31.7277 23.2459 31.7263C23.9611 31.6994 24.8098 31.6675 24.9448 30.492L25.1405 28.7622C25.2805 27.5229 26.7666 28.1307 27.075 28.6157C27.4563 29.2037 29.8451 31.9025 31.3814 31.8406L36.0109 31.6532C36.8804 31.6181 37.1628 30.6919 36.4792 29.6972C35.6192 28.4459 34.2356 27.0892 32.8037 25.7808C32.7886 25.7671 32.7717 25.7521 32.7532 25.7359C32.3929 25.4181 31.4685 24.603 33.2938 22.6486C34.3336 21.5354 37.5528 17.5093 36.7781 16.5415C36.6558 16.3886 36.5838 16.2967 36.4902 16.2416C36.329 16.1469 36.1036 16.1615 35.4459 16.1623L31.1285 16.1688C30.1314 16.17 30.112 16.2118 29.7512 16.9882C29.7188 17.0579 29.6836 17.1336 29.6447 17.2157C29.5507 17.4144 29.4531 17.6246 29.3517 17.843C28.4478 19.7904 27.2396 22.3932 25.523 23.2927C24.447 22.9278 24.7316 19.7897 24.8864 18.0831C24.9201 17.7118 24.9476 17.4082 24.9536 17.2157C24.9767 16.4804 24.6582 15.5863 22.8543 15.5354C22.6923 15.5309 22.4737 15.5155 22.2165 15.4975Z" fill="#5C4F45"/>
</svg>
