<svg xmlns="http://www.w3.org/2000/svg" version="1.1" xmlns:xlink="http://www.w3.org/1999/xlink" xmlns:svgjs="http://svgjs.dev/svgjs" width="84" height="64"><svg width="84" height="64" viewBox="0 0 84 64" fill="none" xmlns="http://www.w3.org/2000/svg">
<path fill-rule="evenodd" clip-rule="evenodd" d="M34.5938 0.126465C35.9021 1.05966 37.6066 0.962282 39.0014 1.69291C41.1261 2.67977 41.8844 5.19725 41.396 7.33533C40.0842 7.56468 38.6302 7.41586 37.5439 6.60026C35.5649 5.07974 34.7349 2.51082 34.5938 0.126465Z" fill="#A9896A"></path>
<path fill-rule="evenodd" clip-rule="evenodd" d="M35.2891 1.21631C36.6792 1.88983 38.2983 2.18303 39.4564 3.25708C40.3868 4.14097 40.6896 5.47577 40.6223 6.70883C37.58 6.8196 35.6875 3.85459 35.2891 1.21631Z" fill="#A9896A"></path>
<path fill-rule="evenodd" clip-rule="evenodd" d="M31.161 2.41357C33.3313 3.4015 35.2374 5.31367 35.6645 7.69014C35.899 9.11894 35.316 10.6384 34.2479 11.6185C32.0708 10.9001 30.5998 8.49687 30.9607 6.23792C31.1508 4.97018 31.5812 3.69018 31.161 2.41357Z" fill="#A9896A"></path>
<path fill-rule="evenodd" clip-rule="evenodd" d="M37.3125 3.02441C38.5571 3.77296 39.9848 4.75752 40.2832 6.24894C38.8792 5.66047 38.0264 4.28648 37.3125 3.02441Z" fill="#A9896A"></path>
<path fill-rule="evenodd" clip-rule="evenodd" d="M23.4375 3.0625C24.7482 3.58613 26.2807 3.01443 27.5162 3.80546C28.5718 4.3839 28.9749 5.66051 28.91 6.78502C26.3036 7.793 23.827 5.49944 23.4375 3.0625Z" fill="#A9896A"></path>
<path fill-rule="evenodd" clip-rule="evenodd" d="M32.0005 3.45508C34.3699 4.94428 35.9515 8.28525 34.0262 10.7233C33.0742 9.9702 32.2919 8.96107 32.0176 7.77395C31.6463 6.35073 32.0517 4.89399 32.0005 3.45508Z" fill="#A9896A"></path>
<path fill-rule="evenodd" clip-rule="evenodd" d="M24.0547 3.66455C24.9576 3.90056 25.8947 4.00468 26.7793 4.30348C27.7039 4.59989 28.2426 5.54648 28.3235 6.45724C26.3876 6.84775 24.6388 5.38648 24.0547 3.66455Z" fill="#A9896A"></path>
<path fill-rule="evenodd" clip-rule="evenodd" d="M46.8907 3.76172C48.2515 5.0316 48.9961 6.8251 49.356 8.60529C49.7829 10.844 48.3516 13.1702 46.2145 13.9768C45.9433 14.0373 45.5301 14.3886 45.3524 14.0272C44.4314 12.5615 44.0237 10.7266 44.4927 9.04272C44.9289 7.11379 46.6971 5.77899 46.8907 3.76172Z" fill="#A9896A"></path>
<path fill-rule="evenodd" clip-rule="evenodd" d="M19.7031 9.71444C19.7669 7.55509 21.4247 5.84548 23.1009 4.6416C23.8158 6.30527 24.3784 8.23979 23.7453 10.0121C23.2488 11.2853 22.0248 12.1692 20.7176 12.5206C20.0357 11.8 19.8021 10.689 19.7031 9.71444Z" fill="#A9896A"></path>
<path fill-rule="evenodd" clip-rule="evenodd" d="M25.6953 4.68066C26.6744 4.75676 27.6456 5.3979 28.1136 6.23922C27.172 5.9853 26.3613 5.36314 25.6953 4.68066Z" fill="#A9896A"></path>
<path fill-rule="evenodd" clip-rule="evenodd" d="M47.281 4.90527C48.1077 6.18748 48.6588 7.69459 48.6667 9.22292C48.6679 10.9292 47.4198 12.3625 45.9897 13.1882C45.852 13.2553 45.6083 13.403 45.5343 13.1804C45.0708 12.132 45.0914 10.9359 45.2883 9.82832C45.5948 8.05708 46.8336 6.63057 47.281 4.90527Z" fill="#A9896A"></path>
<path fill-rule="evenodd" clip-rule="evenodd" d="M20.8355 11.8857C19.6832 9.58524 20.9028 6.89436 22.9647 5.55957C24.0044 7.81975 23.3859 10.9435 20.8355 11.8857Z" fill="#A9896A"></path>
<path fill-rule="evenodd" clip-rule="evenodd" d="M50.6797 9.11365C50.7548 7.3715 52.4308 5.68992 54.2924 5.90251C55.3582 6.05577 56.3887 6.45967 57.4875 6.34002C56.2727 8.66496 53.2677 10.5849 50.6797 9.11365Z" fill="#A9896A"></path>
<path fill-rule="evenodd" clip-rule="evenodd" d="M33.1618 6.11816C33.82 7.24596 34.5202 8.71725 34.0374 10.005C33.139 8.92984 33.1162 7.44178 33.1618 6.11816Z" fill="#A9896A"></path>
<path fill-rule="evenodd" clip-rule="evenodd" d="M52.9245 6.80507C54.0379 6.22663 55.3018 6.60924 56.4563 6.82643C55.4271 8.53143 53.184 9.55421 51.2188 8.91191C51.3474 8.06048 52.1375 7.23929 52.9245 6.80507Z" fill="#A9896A"></path>
<path fill-rule="evenodd" clip-rule="evenodd" d="M25.2126 10.2224C25.9526 9.39782 26.3911 8.38417 26.6949 7.33691C27.9953 8.70409 28.7206 10.557 28.9142 12.402C29.1237 14.614 27.4692 16.666 25.3674 17.3048C23.6355 15.3602 23.5706 12.2465 25.2126 10.2224Z" fill="#A9896A"></path>
<path fill-rule="evenodd" clip-rule="evenodd" d="M51.6484 8.39419C52.0698 7.41505 53.3212 7.54382 54.2114 7.51465C53.4885 8.02266 52.5492 8.37405 51.6484 8.39419Z" fill="#A9896A"></path>
<path fill-rule="evenodd" clip-rule="evenodd" d="M21.2711 11.2917C20.908 10.0654 21.696 8.85262 22.4132 7.90381C22.5043 9.10761 22.148 10.4145 21.2711 11.2917Z" fill="#A9896A"></path>
<path fill-rule="evenodd" clip-rule="evenodd" d="M38.9866 10.7773C39.886 9.72781 40.8927 8.73092 42.0963 8.02051C41.7567 9.72675 42.3512 11.3893 42.5618 13.0643C42.7748 15.6153 40.6022 17.8184 38.1679 18.3208C36.7036 15.9576 37.1853 12.8316 38.9866 10.7773Z" fill="#A9896A"></path>
<path fill-rule="evenodd" clip-rule="evenodd" d="M27.0045 8.45312C27.8778 9.94224 28.4369 11.7683 28.0681 13.4846C27.6411 14.7803 26.5433 15.7862 25.3842 16.4731C24.5258 14.9089 24.7649 12.9588 25.4857 11.389C26.0242 10.4268 26.6652 9.51156 27.0045 8.45312Z" fill="#A9896A"></path>
<path fill-rule="evenodd" clip-rule="evenodd" d="M12.6569 8.64233C13.7934 8.50025 14.9787 8.58974 16.041 9.03177C17.4552 9.60782 18.4515 11.1139 18.4254 12.6009C16.9816 13.3292 15.0674 13.3405 13.8036 12.2484C12.7117 11.36 12.3256 9.93456 11.3828 8.93546C11.6811 8.73749 12.2493 8.73519 12.6569 8.64233Z" fill="#A9896A"></path>
<path fill-rule="evenodd" clip-rule="evenodd" d="M46.2296 12.7375C46.0326 11.2774 46.7193 9.76579 47.4162 8.57422C47.5117 10.0075 47.4547 11.7474 46.2296 12.7375Z" fill="#A9896A"></path>
<path fill-rule="evenodd" clip-rule="evenodd" d="M12.2422 9.15836C14.4556 8.68954 17.2682 9.64731 17.7223 12.0684C16.5269 12.4421 15.0966 12.3236 14.1449 11.461C13.4276 10.7639 12.8661 9.93254 12.2422 9.15836Z" fill="#A9896A"></path>
<path fill-rule="evenodd" clip-rule="evenodd" d="M34.3854 16.0785C34.6734 13.2779 36.0647 10.4013 38.628 8.97363C36.3166 11.6119 35.1973 15.2191 35.9829 18.6563C36.5625 20.7375 36.14 22.8845 35.837 24.9667C37.6271 20.6645 41.1397 16.7363 45.766 15.3634C43.1461 17.4647 40.6421 19.8031 38.9218 22.6965C36.4271 26.8811 35.0229 31.6284 34.1383 36.3711C35.3829 33.1287 37.7024 30.467 40.1196 28.0087C42.2193 25.8448 43.7325 22.4861 42.2603 19.5996C44.8393 20.4129 44.4122 23.8792 43.1746 25.6592C44.5568 24.3883 46.1795 23.4216 47.9067 22.6729C50.6315 21.3974 52.3555 18.4181 51.9046 15.4541C53.5749 18.2155 52.0457 21.9065 49.345 23.4215C48.7254 23.8187 47.9945 23.9821 47.3466 24.3143C50.2388 23.624 53.2163 24.3512 55.8852 25.488C57.1252 26.0654 58.5553 25.9502 59.8043 25.4633C58.7933 26.9906 56.6788 27.0052 55.0871 26.5063C52.9886 25.9066 50.8115 25.2978 48.6038 25.5853C46.7067 25.8093 44.9873 26.7424 43.4877 27.8623C40.3781 30.1582 37.9152 33.2195 36.057 36.5603C34.5368 39.3239 33.3709 42.4109 33.2137 45.5413C33.7534 41.7763 35.925 38.355 39.0241 36.1028C42.4584 33.5875 46.5085 31.7894 50.7546 31.154C53.7481 30.6773 57.6683 31.5914 58.6806 34.7692C57.0091 32.7663 54.2466 31.8287 51.669 32.3343C47.7917 33.0985 44.1266 34.8037 40.9486 37.1007C39.507 38.196 38.0609 39.4359 37.3129 41.1073C40.5659 37.3591 46.0076 35.3229 50.9515 36.3801C52.7142 36.9172 54.3822 37.7811 56.2472 37.9656C54.1739 38.7946 52.048 37.9275 50.0043 37.5157C46.2285 37.1196 42.2079 38.5361 39.6345 41.3019C36.0228 45.6834 36.0262 52.4851 39.4523 56.9717C40.7902 58.7418 42.7168 59.9981 44.7903 60.7948C49.8198 62.6432 55.2474 62.9553 60.516 63.7172C60.516 63.7362 60.5149 63.7767 60.5149 63.7957C57.6637 63.8226 54.8126 63.8191 51.9614 63.827C49.3107 63.7888 46.6144 63.7229 44.0593 62.9542C40.2267 61.9573 36.9258 59.4343 34.8579 56.1314C36.7708 60.6013 41.5076 63.2026 46.2386 63.8067C44.8996 63.8181 43.5594 63.8045 42.2215 63.8291C40.0819 64.0137 38.2157 62.6992 36.6661 61.4102C37.1876 62.4429 38.1259 63.1948 39.0596 63.8571C38.4503 63.8124 37.7523 64.0273 37.2262 63.6278C35.7746 62.6623 34.7043 61.2256 33.9242 59.7018C33.7877 61.1361 33.5315 62.5806 32.8642 63.8796C32.1662 63.9121 31.4683 63.9086 30.7713 63.9155C32.8632 60.6863 33.158 56.693 33.1911 52.965C32.7389 55.9894 32.1435 59.0953 30.4868 61.7347C29.7341 62.8736 28.6101 64.2566 27.0446 63.8416C28.1423 63.1926 29.1135 62.2213 29.43 60.9694C28.2368 62.2372 26.7531 63.3425 25.0201 63.7532C23.3803 63.8705 21.7249 63.8527 20.0828 63.7789C24.7 63.0571 29.3889 60.6403 31.4124 56.3059C29.315 59.3648 26.0335 61.5031 22.4717 62.5828C19.6548 63.4365 16.6909 63.705 13.7555 63.7832C11.074 63.8416 8.39251 63.8181 5.71094 63.7934C5.71094 63.7755 5.71094 63.7408 5.71211 63.7241C9.37742 63.338 13.0473 62.9151 16.6738 62.2493C20.1696 61.5791 23.8028 60.4647 26.3648 57.9083C30.5664 53.6889 30.9682 46.5775 27.6138 41.753C26.4024 40.0533 24.4553 38.4904 22.2167 38.7365C19.0604 39.4974 15.7447 38.572 12.9083 37.1846C10.68 35.9874 8.44603 34.0394 8.24792 31.3912C10.7085 35.4951 15.7435 37.2472 20.3607 37.499C21.6908 37.4619 23.041 37.1913 24.3585 37.5338C25.8911 37.8211 27.147 38.7879 28.3335 39.7188C25.1341 35.5958 20.5508 32.8133 16.9323 29.084C21.7853 30.7074 26.1473 33.7407 29.4472 37.584C31.2736 39.6919 32.4349 42.2766 33.1376 44.9293C32.5933 40.1798 29.9709 35.8207 26.3922 32.6465C22.6699 29.3256 17.9081 26.6202 12.7341 26.7545C11.3165 26.7947 9.82716 26.0744 9.41721 24.6578C10.3452 25.3 11.5044 25.4568 12.6134 25.4052C18.343 25.0058 23.7926 27.7446 28.1012 31.2367C26.1723 28.4116 23.6117 25.9647 20.4815 24.4597C18.7109 23.5693 16.7444 23.1787 14.9089 22.4549C13.8841 22.0552 12.8799 21.2464 12.7922 20.0941C13.8899 21.299 15.5489 21.6123 17.093 21.8652C21.2945 22.7345 25.2227 24.9218 28.0886 28.0715C30.5458 30.7623 32.0967 34.1503 32.9838 37.6333C32.7685 31.3093 30.3181 24.7832 25.2535 20.6644C23.6458 19.2235 21.6475 18.1863 20.3505 16.4264C19.2484 14.9225 18.3136 12.8068 19.2893 11.0255C19.7334 13.4188 21.1066 15.6431 23.0856 17.1101C25.0634 18.4884 27.229 19.6699 28.8357 21.4948C27.9669 20.0156 28.0374 18.1416 28.9485 16.697C30.0802 14.9729 31.8156 13.6247 32.3985 11.5715C32.5192 13.317 31.4592 14.7558 30.5198 16.1231C29.0486 18.7245 29.8672 21.9076 31.3316 24.3288C32.5282 26.3741 33.437 28.5884 33.9072 30.9065C34.629 27.8443 34.957 24.6757 34.7566 21.5351C34.6416 19.7159 34.1452 17.9089 34.3854 16.0785Z" fill="#A9896A"></path>
<path fill-rule="evenodd" clip-rule="evenodd" d="M38.0392 15.4115C38.0211 13.0495 39.5103 11.0311 41.2866 9.58105C41.4507 10.9774 41.9004 12.3648 41.7091 13.7813C41.4711 15.5032 40.0227 16.8403 38.4605 17.4892C37.914 16.9934 38.0768 16.0884 38.0392 15.4115Z" fill="#A9896A"></path>
<path fill-rule="evenodd" clip-rule="evenodd" d="M14.4141 10.0352C15.4799 10.2086 16.7597 10.6943 17.2084 11.7337C16.1357 11.464 15.2146 10.7614 14.4141 10.0352Z" fill="#A9896A"></path>
<path fill-rule="evenodd" clip-rule="evenodd" d="M55.227 10.418C56.5956 10.9025 57.8959 12.0168 58.0531 13.5117C58.1352 14.7961 57.7115 16.0671 57.1183 17.1971C55.9113 16.5717 54.5984 15.7975 54.1498 14.447C53.7262 13.0372 54.299 11.5112 55.227 10.418Z" fill="#A9896A"></path>
<path fill-rule="evenodd" clip-rule="evenodd" d="M55.4485 11.2539C57.6414 12.0796 58.0137 14.7794 56.9014 16.5997C54.9475 15.5839 54.27 13.0944 55.4485 11.2539Z" fill="#A9896A"></path>
<path fill-rule="evenodd" clip-rule="evenodd" d="M72.4312 20.6386C74.0011 18.899 76.6503 19.5391 77.9382 21.2397C76.2786 22.6871 73.7137 22.4081 72.4312 20.6386Z" fill="#A9896A"></path>
<path fill-rule="evenodd" clip-rule="evenodd" d="M65.0142 16.0959C65.308 12.8866 68.7518 11.4066 71.5718 12.2166C70.9385 15.1784 67.8851 16.9862 65.0142 16.0959Z" fill="#A9896A"></path>
<path fill-rule="evenodd" clip-rule="evenodd" d="M55.563 11.7026C56.5832 12.5272 56.3807 13.9885 56.1733 15.1218C55.8045 14.0254 55.5495 12.8618 55.563 11.7026Z" fill="#A9896A"></path>
<path fill-rule="evenodd" clip-rule="evenodd" d="M25.9774 15.7603C25.6395 14.374 26.3509 12.9777 27.033 11.813C27.1379 13.1757 26.9317 14.7018 25.9774 15.7603Z" fill="#A9896A"></path>
<path fill-rule="evenodd" clip-rule="evenodd" d="M8.97664 11.9014C10.9648 13.479 12.2445 16.162 11.7265 18.6772C11.3666 20.2412 10.0367 21.3692 8.60432 22.0047C6.80528 20.1015 6.75628 17.0796 8.14653 14.9368C8.7853 14.0507 8.96066 12.9632 8.97664 11.9014Z" fill="#A9896A"></path>
<path fill-rule="evenodd" clip-rule="evenodd" d="M45.4308 17.5621C46.3497 15.1979 48.5825 13.6304 50.7677 12.4712C50.3053 14.1462 50.7812 15.858 50.6354 17.5531C50.3099 19.9966 47.8571 21.7577 45.4398 21.8093C45.0493 20.4275 44.9355 18.9338 45.4308 17.5621Z" fill="#A9896A"></path>
<path fill-rule="evenodd" clip-rule="evenodd" d="M75.8102 1.74664C78.0918 0.638353 80.7947 1.00779 83.1851 1.64416C81.7069 2.55763 80.8915 4.13626 79.6318 5.27977C77.7313 6.84968 74.7354 6.47259 72.9281 4.86635C73.5817 3.58773 74.5142 2.41533 75.8102 1.74664Z" fill="#A9896A"></path>
<path fill-rule="evenodd" clip-rule="evenodd" d="M38.9453 16.9006C38.9942 15.4181 39.7231 14.053 40.4881 12.811C40.6396 14.2745 40.2662 16.0412 38.9453 16.9006Z" fill="#A9896A"></path>
<path fill-rule="evenodd" clip-rule="evenodd" d="M9.47089 13.0381C10.5901 14.2733 11.1298 16.0143 11.0604 17.6534C10.893 19.0901 9.77488 20.2212 8.63852 21.0357C7.9132 20.0634 7.88594 18.7119 8.05328 17.5483C8.22757 15.9572 9.3012 14.6302 9.47089 13.0381Z" fill="#A9896A"></path>
<path fill-rule="evenodd" clip-rule="evenodd" d="M45.8524 21.1714C45.0631 18.1371 47.3805 15.4462 49.8534 13.9648C49.956 15.1486 50.0015 16.3547 49.8126 17.5318C49.4209 19.4148 47.6445 20.6871 45.8524 21.1714Z" fill="#A9896A"></path>
<path fill-rule="evenodd" clip-rule="evenodd" d="M11.9766 14.1641C13.615 15.3377 15.8183 14.6104 17.5172 15.6297C19.1421 16.5416 19.8036 18.4694 19.7842 20.2227C18.4815 20.6826 16.9433 20.7776 15.6965 20.1075C13.5832 18.8633 12.3968 16.4812 11.9766 14.1641Z" fill="#A9896A"></path>
<path fill-rule="evenodd" clip-rule="evenodd" d="M12.8906 15.2427C14.0987 15.7137 15.4161 15.8077 16.6151 16.2967C17.9939 16.836 18.8194 18.2715 18.9139 19.6813C18.6703 19.9766 18.2057 19.8189 17.8665 19.8456C15.3534 19.707 13.6318 17.4033 12.8906 15.2427Z" fill="#A9896A"></path>
<path fill-rule="evenodd" clip-rule="evenodd" d="M9.84102 16.1855C10.2556 17.5213 10.153 19.2377 9.10324 20.2705C8.68869 18.8697 9.46185 17.5056 9.84102 16.1855Z" fill="#A9896A"></path>
<path fill-rule="evenodd" clip-rule="evenodd" d="M15.3281 16.8584C16.5693 17.2892 17.9982 17.9907 18.4856 19.2684C17.1045 19.0132 16.1775 17.8598 15.3281 16.8584Z" fill="#A9896A"></path>
<path fill-rule="evenodd" clip-rule="evenodd" d="M46.4609 20.5705C46.7363 19.1729 47.6689 18.005 48.6162 16.9722C48.5788 18.4055 47.7668 19.8825 46.4609 20.5705Z" fill="#A9896A"></path>
<path fill-rule="evenodd" clip-rule="evenodd" d="M53.6562 22.8651C53.851 20.4776 56.1614 17.9847 58.8042 18.496C60.2411 18.8371 61.6873 19.1651 63.18 18.9994C62.2017 20.6284 60.8195 22.0528 59.1139 22.9502C57.4469 23.8643 55.3039 23.7525 53.6562 22.8651Z" fill="#A9896A"></path>
<path fill-rule="evenodd" clip-rule="evenodd" d="M57.3522 19.5321C58.8882 18.919 60.4777 19.652 62.0411 19.6921C60.3161 21.9769 57.1824 23.7333 54.2812 22.5777C55.0031 21.3245 55.8639 19.9764 57.3522 19.5321Z" fill="#A9896A"></path>
<path fill-rule="evenodd" clip-rule="evenodd" d="M55.6999 21.178C56.7519 20.8949 57.903 20.7417 58.9802 20.9364C57.7256 21.3873 56.4959 22.0854 55.127 22.0865C54.8174 21.7978 55.4015 21.3158 55.6999 21.178Z" fill="#A9896A"></path>
<path fill-rule="evenodd" clip-rule="evenodd" d="M2.79688 21.562C4.68356 21.6884 6.63864 22.3059 7.9799 23.6699C9.01389 24.7215 9.27005 26.2723 9.17095 27.6799C7.49486 28.1555 5.4226 27.7951 4.36811 26.3272C3.27282 24.9532 3.55523 23.0792 2.79688 21.562Z" fill="#A9896A"></path>
<path fill-rule="evenodd" clip-rule="evenodd" d="M3.6875 22.2207C6.12413 22.4534 8.6075 24.4474 8.37418 27.0273C7.04531 27.1806 5.57418 26.6379 4.89896 25.4566C4.33078 24.4462 4.07914 23.3006 3.6875 22.2207Z" fill="#A9896A"></path>
<path fill-rule="evenodd" clip-rule="evenodd" d="M59.375 23.7237C60.7811 23.0368 62.5609 22.6731 63.9432 23.6142C65.2594 24.4868 66.0816 25.8831 66.6942 27.2874C65.2093 26.6083 63.5844 27.3377 62.0644 26.908C60.6662 26.4359 59.6654 25.1202 59.375 23.7237Z" fill="#A9896A"></path>
<path fill-rule="evenodd" clip-rule="evenodd" d="M5.625 23.8521C6.68057 24.4483 7.66548 25.4061 8.02533 26.5686C6.82174 26.1692 6.15914 24.907 5.625 23.8521Z" fill="#A9896A"></path>
<path fill-rule="evenodd" clip-rule="evenodd" d="M60.2031 24.1811C62.4564 23.1382 64.7167 24.7225 65.8006 26.6201C64.6039 26.4378 63.3536 26.6124 62.1946 26.2128C61.2972 25.8336 60.4786 25.1286 60.2031 24.1811Z" fill="#A9896A"></path>
<path fill-rule="evenodd" clip-rule="evenodd" d="M60.3906 24.2339C61.4962 24.0873 62.6771 24.7318 63.4376 25.4678C62.7977 25.4366 62.1737 25.2766 61.5691 25.0798C61.4894 25.1345 61.4119 25.1905 61.3346 25.2474C60.9769 24.9532 60.592 24.659 60.3906 24.2339Z" fill="#A9896A"></path>
<path fill-rule="evenodd" clip-rule="evenodd" d="M45.6797 29.2888C46.3889 27.7951 47.8614 26.4805 49.6263 26.5286C51.3035 26.5912 52.6927 27.6452 54.2413 28.1543C53.0832 29.3336 51.5939 30.2386 49.9634 30.6214C48.4263 30.9917 46.7397 30.4255 45.6797 29.2888Z" fill="#A9896A"></path>
<path fill-rule="evenodd" clip-rule="evenodd" d="M0.09375 26.7378C1.90534 27.9796 4.48212 27.4627 6.07159 29.1187C7.37538 30.3383 7.63956 32.2827 7.3344 33.9534C5.5934 34.2307 3.5985 33.8861 2.4404 32.4696C1.00465 30.9077 0.307764 28.8022 0.09375 26.7378Z" fill="#A9896A"></path>
<path fill-rule="evenodd" clip-rule="evenodd" d="M46.4141 29.1935C47.3466 28.0444 48.7743 27.1751 50.3161 27.306C51.3534 27.4894 52.3087 27.9616 53.2868 28.3319C51.7143 29.7327 49.3484 30.6883 47.2759 29.8155C46.9777 29.6588 46.454 29.5739 46.4141 29.1935Z" fill="#A9896A"></path>
<path fill-rule="evenodd" clip-rule="evenodd" d="M0.890625 27.937C2.25587 28.5837 3.85571 28.728 5.07737 29.6577C6.20469 30.4981 6.60211 31.9682 6.56222 33.302C3.47186 33.5727 1.42468 30.5843 0.890625 27.937Z" fill="#A9896A"></path>
<path fill-rule="evenodd" clip-rule="evenodd" d="M7.60938 28.8501C9.99925 29.2305 12.2652 27.2905 14.6188 28.3411C15.9942 28.9207 16.8152 30.2544 17.3617 31.5599C16.0603 32.7181 14.1542 33.3882 12.4325 32.8221C10.3842 32.1832 8.6489 30.684 7.60938 28.8501Z" fill="#A9896A"></path>
<path fill-rule="evenodd" clip-rule="evenodd" d="M47.0156 28.9675C48.0814 28.1451 49.7061 28.3767 50.9029 28.7807C49.6356 28.9071 48.2316 29.4744 47.0156 28.9675Z" fill="#A9896A"></path>
<path fill-rule="evenodd" clip-rule="evenodd" d="M57.9688 31.0969C59.2566 29.2272 61.674 27.945 63.9682 28.7271C65.2106 29.2248 66.4915 29.696 67.8635 29.5225C66.4403 31.4974 64.2291 33.1644 61.6945 33.2932C60.1744 33.2898 58.7431 32.3532 57.9688 31.0969Z" fill="#A9896A"></path>
<path fill-rule="evenodd" clip-rule="evenodd" d="M8.8125 29.5192C10.361 29.5741 11.8753 29.1041 13.4227 29.1802C14.73 29.2452 15.6363 30.3384 16.3002 31.332C13.9454 33.386 10.468 31.6171 8.8125 29.5192Z" fill="#A9896A"></path>
<path fill-rule="evenodd" clip-rule="evenodd" d="M58.9297 31.1095C60.1948 30.0062 61.9335 29.3236 63.6335 29.6436C64.631 29.8373 65.6147 30.1091 66.6327 30.2009C65.394 31.4561 63.7416 32.4351 61.9279 32.5191C60.7664 32.5874 59.6221 32.0156 58.9297 31.1095Z" fill="#A9896A"></path>
<path fill-rule="evenodd" clip-rule="evenodd" d="M3.03125 29.7451C4.35209 30.3997 5.69226 31.3384 6.25701 32.7325C4.77116 32.3264 3.75548 31.0073 3.03125 29.7451Z" fill="#A9896A"></path>
<path fill-rule="evenodd" clip-rule="evenodd" d="M11.6719 30.1845C13.0451 30.0503 14.6289 30.2842 15.7073 31.1771C14.3021 31.458 12.8231 30.9724 11.6719 30.1845Z" fill="#A9896A"></path>
<path fill-rule="evenodd" clip-rule="evenodd" d="M59.5156 31.0708C60.552 30.1164 62.4717 30.6166 63.6649 31.1323C62.3179 31.4368 60.8182 31.6167 59.5156 31.0708Z" fill="#A9896A"></path>
<path fill-rule="evenodd" clip-rule="evenodd" d="M49.8438 34.7712C50.1877 33.5794 51.4014 32.5848 52.6962 32.5738C53.9714 32.567 55.0281 33.3715 56.1724 33.8077C54.7537 35.6852 51.6372 36.7816 49.8438 34.7712Z" fill="#A9896A"></path>
<path fill-rule="evenodd" clip-rule="evenodd" d="M50.3516 34.6592C51.4515 32.8768 53.8518 33.0525 55.4151 34.1031C54.0693 35.2779 51.857 35.9213 50.3516 34.6592Z" fill="#A9896A"></path>
<path fill-rule="evenodd" clip-rule="evenodd" d="M50.7344 34.5205C51.4641 33.7091 52.6084 34.2038 53.5114 34.3784C52.6131 34.5831 51.6213 34.9635 50.7344 34.5205Z" fill="#A9896A"></path>
<path fill-rule="evenodd" clip-rule="evenodd" d="M59.3565 34.4968C60.6706 34.0313 62.3182 34.0258 63.3942 35.0126C64.4144 35.9625 64.9165 37.3264 65.207 38.6489C63.9133 38.6365 62.5549 38.5951 61.3845 37.9921C60.1091 37.3421 59.2793 35.8764 59.3565 34.4968Z" fill="#A9896A"></path>
<path fill-rule="evenodd" clip-rule="evenodd" d="M59.8594 34.8863C62.1071 34.1356 64.0802 36.0555 64.447 38.1109C62.3029 38.3212 60.438 36.8667 59.8594 34.8863Z" fill="#A9896A"></path>
<path fill-rule="evenodd" clip-rule="evenodd" d="M60.1094 35.0005C61.2106 35.2266 62.2148 35.9493 62.864 36.8356C61.8469 36.4472 60.5592 36.0847 60.1094 35.0005Z" fill="#A9896A"></path>
<path fill-rule="evenodd" clip-rule="evenodd" d="M0.734375 37.8278C2.79074 37.8064 4.3654 36.0342 6.45145 36.1673C8.12755 36.2423 9.38919 37.5614 10.1419 38.9243C9.19442 39.8629 7.98513 40.6428 6.61419 40.7547C4.31765 40.8363 2.15649 39.5261 0.734375 37.8278Z" fill="#A9896A"></path>
<path fill-rule="evenodd" clip-rule="evenodd" d="M1.98438 38.264C3.93487 37.9832 6.06868 36.3732 7.95878 37.67C8.35962 38.0448 9.57 38.7039 8.69205 39.1916C6.64254 40.7334 3.68782 39.9233 1.98438 38.264Z" fill="#A9896A"></path>
<path fill-rule="evenodd" clip-rule="evenodd" d="M4.70312 38.4541C5.8736 37.9451 7.44157 37.9517 8.51538 38.6981C7.29355 39.2003 5.90671 38.8457 4.70312 38.4541Z" fill="#A9896A"></path>
<path fill-rule="evenodd" clip-rule="evenodd" d="M47.859 38.8707C51.4535 37.7564 55.317 40.5458 55.8305 44.0869C54.0667 43.1672 51.983 44.1642 50.2351 43.2366C48.599 42.45 47.7631 40.6039 47.859 38.8707Z" fill="#A9896A"></path>
<path fill-rule="evenodd" clip-rule="evenodd" d="M56.2031 39.6137C57.5559 38.5351 59.7614 38.2106 61.0743 39.5231C61.8415 40.2907 62.2448 41.3447 63.1032 42.0384C61.5557 42.5218 59.751 42.845 58.2332 42.1044C57.2551 41.5795 56.5834 40.623 56.2031 39.6137Z" fill="#A9896A"></path>
<path fill-rule="evenodd" clip-rule="evenodd" d="M57.1651 39.5968C58.0749 39.1873 59.2079 39.0709 60.0981 39.5934C60.943 40.0891 61.4783 40.9372 62.0226 41.7148C60.4694 42.0123 58.6284 41.9362 57.5147 40.6754C57.2916 40.3945 56.5935 39.8497 57.1651 39.5968Z" fill="#A9896A"></path>
<path fill-rule="evenodd" clip-rule="evenodd" d="M43.6948 39.3384C45.332 39.4659 46.9512 40.588 47.2848 42.2271C47.5354 43.5374 47.229 44.9226 47.7972 46.1779C46.2145 45.7807 44.6853 44.9158 43.7334 43.5878C42.8589 42.3257 43.0217 40.6463 43.6948 39.3384Z" fill="#A9896A"></path>
<path fill-rule="evenodd" clip-rule="evenodd" d="M48.625 39.3661C51.4396 38.9522 53.9195 40.8476 55.1379 43.2005C53.7022 42.7967 52.0943 43.15 50.7598 42.3883C49.6087 41.7795 48.8857 40.6015 48.625 39.3661Z" fill="#A9896A"></path>
<path fill-rule="evenodd" clip-rule="evenodd" d="M48.8984 39.6216C50.3844 39.8365 51.4479 40.9731 52.5934 41.8168C51.1621 41.5729 49.346 41.2149 48.8984 39.6216Z" fill="#A9896A"></path>
<path fill-rule="evenodd" clip-rule="evenodd" d="M11.884 40.4303C13.2584 39.5072 15.0699 39.6918 16.5718 40.1818C16.4591 41.7314 15.7166 43.3997 14.1682 44.0195C12.5467 44.8049 10.6897 43.855 9.0625 44.6193C9.51795 42.98 10.4584 41.4238 11.884 40.4303Z" fill="#A9896A"></path>
<path fill-rule="evenodd" clip-rule="evenodd" d="M57.125 39.9314C58.0872 39.7255 59.1961 39.8721 59.9727 40.5019C59.0243 40.5793 57.9016 40.5389 57.125 39.9314Z" fill="#A9896A"></path>
<path fill-rule="evenodd" clip-rule="evenodd" d="M20.0159 40.3611C21.3947 39.569 23.1028 40.0391 24.3678 40.8243C24.0821 42.5283 22.8841 44.2571 21.0418 44.5322C19.738 44.6958 18.3341 44.4137 17.1328 45.0928C17.3525 43.2266 18.3512 41.3535 20.0159 40.3611Z" fill="#A9896A"></path>
<path fill-rule="evenodd" clip-rule="evenodd" d="M43.9667 40.0308C45.3411 40.3453 46.4124 41.5592 46.589 42.9299C46.6811 43.7689 46.7917 44.607 47.0306 45.4215C44.8114 44.7446 43.1353 42.2998 43.9667 40.0308Z" fill="#A9896A"></path>
<path fill-rule="evenodd" clip-rule="evenodd" d="M44.0391 40.1396C45.1594 40.8635 45.3234 42.2329 45.476 43.4323C44.6185 42.5687 44.0924 41.3501 44.0391 40.1396Z" fill="#A9896A"></path>
<path fill-rule="evenodd" clip-rule="evenodd" d="M9.96875 43.7218C10.7521 41.4875 13.2298 39.8572 15.6506 40.553C15.5084 42.0502 14.1646 43.3962 12.6183 43.5104C11.7337 43.5673 10.8466 43.5886 9.96875 43.7218Z" fill="#A9896A"></path>
<path fill-rule="evenodd" clip-rule="evenodd" d="M17.75 44.2077C18.365 41.9465 20.961 39.8935 23.3431 41.1432C23.3293 41.8658 22.7055 42.5551 22.1886 43.0687C20.9416 44.1025 19.2051 43.721 17.75 44.2077Z" fill="#A9896A"></path>
<path fill-rule="evenodd" clip-rule="evenodd" d="M12.0078 42.3727C12.8493 41.4618 14.1144 40.8534 15.376 40.9138C14.5607 41.8783 13.2194 42.1947 12.0078 42.3727Z" fill="#A9896A"></path>
<path fill-rule="evenodd" clip-rule="evenodd" d="M19.6406 42.7777C20.3967 41.7674 21.7859 41.4699 23.0009 41.5292C22.255 42.4948 20.745 42.4153 19.6406 42.7777Z" fill="#A9896A"></path>
</svg><style>@media (prefers-color-scheme: light) { :root { filter: none; } }
@media (prefers-color-scheme: dark) { :root { filter: none; } }
</style></svg>