<svg width="280" height="318" viewBox="0 0 280 318" fill="none" xmlns="http://www.w3.org/2000/svg">
<path fill-rule="evenodd" clip-rule="evenodd" d="M77.4291 47.2433C102.795 54.681 123.864 72.6923 140.023 92.9878C160.021 118.676 157.299 157.323 135.788 181.187C132.784 183.684 129.902 190.777 125.311 187.323C104.175 174.597 87.0589 153.912 81.9207 129.552C74.7682 102.292 88.2009 74.0774 77.4291 47.2433Z" fill="#DACBB7"/>
<path fill-rule="evenodd" clip-rule="evenodd" d="M274.977 126.859C270.253 150.646 255.1 173.122 237.327 191.85C214.79 215.158 177.864 221.667 153.239 208.426C150.593 206.385 143.597 205.506 146.451 200.717C156.584 179.396 174.639 159.746 197.282 149.678C222.493 137.19 250.504 142.4 274.977 126.859Z" fill="#DACBB7"/>
<path fill-rule="evenodd" clip-rule="evenodd" d="M174.816 4.24653C191.611 15.7816 202.686 34.0406 209.605 52.7978C218.03 76.4298 206.644 104.118 185.07 116.462C182.261 117.573 178.425 122.084 175.897 118.451C163.489 104.052 155.962 84.7791 158.113 65.6836C159.49 43.9781 176.196 26.5072 174.816 4.24653Z" fill="#DACBB7"/>
<path fill-rule="evenodd" clip-rule="evenodd" d="M20.6855 152.188C41.0033 154.201 59.5949 164.848 74.794 177.93C93.6867 194.553 97.2251 224.255 84.3694 245.433C82.453 247.756 81.296 253.549 77.3129 251.586C59.4365 244.957 43.4552 231.716 36.0261 213.975C26.6487 194.322 32.7463 171 20.6855 152.188Z" fill="#DACBB7"/>
<path fill-rule="evenodd" clip-rule="evenodd" d="M172.648 248.316C168.133 268.096 155.204 285.11 140.261 298.48C121.326 315.055 91.2157 314.882 71.6425 299.599C69.5573 297.423 63.9132 295.569 66.365 291.885C75.1909 275.08 90.389 260.959 109.029 255.822C129.819 249.001 152.367 257.886 172.648 248.316Z" fill="#DACBB7"/>
<path d="M66.5471 263.838C55.7266 270.641 19.2112 283.679 6.54707 286.824C16.7227 291.877 16.8769 296.754 15.5671 299.858C14.5178 302.345 10.3167 303.732 15.5671 302.897C20.5433 302.106 31.8477 298.041 36.5471 296.136C56.3694 288.099 69.9863 278.202 85.3954 263.838C107.298 243.421 124.888 221.103 141.059 196.117C161.624 164.341 160.157 160.038 174.047 124.868C174.451 123.846 175.501 120.719 175.096 121.742C174.41 123.473 173.777 125.224 173.085 126.953C168.865 137.501 164.118 147.806 158.832 157.873C146.203 181.926 142.142 191.353 124.047 211.704C103.537 234.771 92.5051 247.519 66.5471 263.838Z" fill="#DACBB7"/>
</svg>
