<svg width="280" height="320" viewBox="0 0 280 320" fill="none" xmlns="http://www.w3.org/2000/svg">
<path fill-rule="evenodd" clip-rule="evenodd" d="M202.571 47.5613C177.205 55.0489 156.136 73.1814 139.977 93.6134C119.979 119.474 122.701 158.381 144.212 182.406C147.216 184.92 150.098 192.06 154.689 188.584C175.825 175.772 192.941 154.947 198.079 130.424C205.232 102.98 191.799 74.5758 202.571 47.5613Z" fill="#DACBB7"/>
<path fill-rule="evenodd" clip-rule="evenodd" d="M5.02257 127.712C9.74679 151.659 24.9005 174.286 42.6734 193.14C65.2105 216.605 102.136 223.157 126.761 209.827C129.407 207.772 136.403 206.888 133.549 202.066C123.417 180.602 105.361 160.82 82.7179 150.684C57.507 138.112 29.4961 143.357 5.02257 127.712Z" fill="#DACBB7"/>
<path fill-rule="evenodd" clip-rule="evenodd" d="M105.184 4.27498C88.3889 15.8876 77.3143 34.2695 70.3949 53.1529C61.9705 76.9438 73.3565 104.819 94.9296 117.246C97.7392 118.364 101.575 122.905 104.103 119.248C116.511 104.751 124.038 85.3493 121.887 66.1253C120.51 44.2738 103.804 26.6854 105.184 4.27498Z" fill="#DACBB7"/>
<path fill-rule="evenodd" clip-rule="evenodd" d="M259.315 153.212C238.997 155.238 220.405 165.957 205.206 179.127C186.313 195.862 182.775 225.764 195.631 247.084C197.547 249.423 198.704 255.254 202.687 253.278C220.563 246.605 236.545 233.275 243.974 215.415C253.351 195.63 247.254 172.151 259.315 153.212Z" fill="#DACBB7"/>
<path fill-rule="evenodd" clip-rule="evenodd" d="M107.352 249.987C111.867 269.9 124.796 287.028 139.739 300.488C158.674 317.174 188.784 317 208.358 301.615C210.443 299.424 216.087 297.558 213.635 293.848C204.809 276.931 189.611 262.714 170.971 257.543C150.181 250.676 127.633 259.621 107.352 249.987Z" fill="#DACBB7"/>
<path d="M213.453 265.613C224.273 272.461 260.789 285.587 273.453 288.753C263.277 293.841 263.123 298.75 264.433 301.875C265.482 304.379 269.683 305.775 264.433 304.935C259.457 304.138 248.152 300.046 243.453 298.128C223.631 290.037 210.014 280.074 194.605 265.613C172.702 245.058 155.112 222.59 138.941 197.436C118.376 165.446 119.843 161.115 105.953 125.708C105.549 124.679 104.499 121.531 104.904 122.56C105.59 124.303 106.223 126.066 106.915 127.807C111.135 138.426 115.882 148.8 121.168 158.935C133.797 183.149 137.858 192.64 155.953 213.128C176.463 236.35 187.495 249.184 213.453 265.613Z" fill="#DACBB7"/>
</svg>
