<svg width="800" height="720" viewBox="0 0 800 720" fill="none" xmlns="http://www.w3.org/2000/svg">
<g clip-path="url(#clip0_2231_1032)">
<path fill-rule="evenodd" clip-rule="evenodd" d="M406.953 1.51758C422.345 12.7014 442.398 11.5343 458.807 20.2905C483.805 32.1174 492.725 62.2878 486.98 87.9113C471.546 90.66 454.441 88.8764 441.66 79.102C418.378 60.8796 408.614 30.0926 406.953 1.51758Z" fill="#DACBB7"/>
<path fill-rule="evenodd" clip-rule="evenodd" d="M415.156 14.5781C431.511 22.6498 450.559 26.1637 464.184 39.0355C475.129 49.6283 478.692 65.6251 477.9 80.4026C442.109 81.7301 419.844 46.1963 415.156 14.5781Z" fill="#DACBB7"/>
<path fill-rule="evenodd" clip-rule="evenodd" d="M366.552 28.9253C392.085 40.765 414.51 63.6812 419.535 92.1616C422.293 109.285 415.434 127.495 402.869 139.241C377.255 130.631 359.949 101.83 364.195 74.7576C366.432 59.5646 371.496 44.2246 366.552 28.9253Z" fill="#DACBB7"/>
<path fill-rule="evenodd" clip-rule="evenodd" d="M439.008 36.2466C453.65 45.2174 470.447 57.0167 473.957 74.8905C457.44 67.8381 447.406 51.3716 439.008 36.2466Z" fill="#DACBB7"/>
<path fill-rule="evenodd" clip-rule="evenodd" d="M275.711 36.7026C291.131 42.978 309.161 36.1265 323.696 45.6065C336.114 52.5388 340.856 67.8382 340.093 81.3147C309.429 93.3947 280.293 65.9078 275.711 36.7026Z" fill="#DACBB7"/>
<path fill-rule="evenodd" clip-rule="evenodd" d="M376.465 41.4092C404.341 59.2564 422.947 99.2958 400.296 128.514C389.097 119.489 379.893 107.395 376.667 93.1681C372.298 76.1118 377.068 58.6536 376.465 41.4092Z" fill="#DACBB7"/>
<path fill-rule="evenodd" clip-rule="evenodd" d="M283.016 43.9175C293.638 46.7459 304.663 47.9937 315.07 51.5746C325.948 55.1269 332.285 66.4712 333.237 77.3862C310.462 82.0661 289.887 64.5537 283.016 43.9175Z" fill="#DACBB7"/>
<path fill-rule="evenodd" clip-rule="evenodd" d="M551.664 45.0835C567.673 60.3022 576.433 81.7962 580.668 103.131C585.69 129.961 568.851 157.838 543.709 167.505C540.518 168.23 535.657 172.44 533.567 168.109C522.731 150.544 517.934 128.553 523.452 108.373C528.584 85.2559 549.387 69.2593 551.664 45.0835Z" fill="#DACBB7"/>
<path fill-rule="evenodd" clip-rule="evenodd" d="M231.766 116.418C232.515 90.5399 252.02 70.0513 271.74 55.6235C280.15 75.5616 286.769 98.7456 279.32 119.986C273.48 135.245 259.08 145.837 243.701 150.049C235.678 141.413 232.93 128.097 231.766 116.418Z" fill="#DACBB7"/>
<path fill-rule="evenodd" clip-rule="evenodd" d="M302.32 56.0923C313.84 57.0042 325.265 64.6879 330.771 74.7706C319.694 71.7275 310.155 64.2713 302.32 56.0923Z" fill="#DACBB7"/>
<path fill-rule="evenodd" clip-rule="evenodd" d="M556.2 58.7881C565.926 74.1545 572.409 92.2163 572.503 110.532C572.517 130.981 557.833 148.158 541.008 158.054C539.389 158.858 536.522 160.628 535.651 157.96C530.198 145.396 530.44 131.061 532.757 117.788C536.362 96.5605 550.936 79.4647 556.2 58.7881Z" fill="#DACBB7"/>
<path fill-rule="evenodd" clip-rule="evenodd" d="M245.093 142.445C231.536 114.876 245.885 82.6275 270.142 66.6309C282.374 93.7177 275.098 131.154 245.093 142.445Z" fill="#DACBB7"/>
<path fill-rule="evenodd" clip-rule="evenodd" d="M596.266 109.219C597.149 88.3405 616.867 68.1879 638.768 70.7356C651.307 72.5723 663.43 77.4128 676.358 75.9788C662.066 103.842 626.713 126.852 596.266 109.219Z" fill="#DACBB7"/>
<path fill-rule="evenodd" clip-rule="evenodd" d="M390.134 73.3223C397.877 86.8381 406.115 104.471 400.435 119.904C389.866 107.018 389.597 89.185 390.134 73.3223Z" fill="#DACBB7"/>
<path fill-rule="evenodd" clip-rule="evenodd" d="M622.645 81.5545C635.745 74.6222 650.614 79.2076 664.196 81.8105C652.088 102.244 625.698 114.501 602.578 106.804C604.091 96.5998 613.387 86.7583 622.645 81.5545Z" fill="#DACBB7"/>
<path fill-rule="evenodd" clip-rule="evenodd" d="M296.63 122.506C305.337 112.624 310.495 100.476 314.07 87.9253C329.369 104.31 337.901 126.516 340.179 148.627C342.643 175.136 323.179 199.729 298.452 207.384C278.077 184.08 277.313 146.763 296.63 122.506Z" fill="#DACBB7"/>
<path fill-rule="evenodd" clip-rule="evenodd" d="M607.648 100.596C612.606 88.8621 627.328 90.4053 637.801 90.0557C629.296 96.1439 618.246 100.355 607.648 100.596Z" fill="#DACBB7"/>
<path fill-rule="evenodd" clip-rule="evenodd" d="M250.216 135.325C245.944 120.628 255.214 106.094 263.652 94.7231C264.725 109.15 260.532 124.812 250.216 135.325Z" fill="#DACBB7"/>
<path fill-rule="evenodd" clip-rule="evenodd" d="M458.646 129.156C469.228 116.579 481.071 104.632 495.231 96.1182C491.236 116.566 498.23 136.491 500.708 156.565C503.214 187.137 477.654 213.539 449.014 219.56C431.788 191.24 437.455 153.776 458.646 129.156Z" fill="#DACBB7"/>
<path fill-rule="evenodd" clip-rule="evenodd" d="M317.708 101.308C327.982 119.154 334.559 141.038 330.221 161.607C325.198 177.135 312.282 189.189 298.646 197.422C288.546 178.676 291.359 155.305 299.84 136.492C306.175 124.96 313.716 113.992 317.708 101.308Z" fill="#DACBB7"/>
<path fill-rule="evenodd" clip-rule="evenodd" d="M148.904 103.573C162.273 101.87 176.219 102.942 188.716 108.24C205.354 115.144 217.075 133.193 216.768 151.013C199.782 159.742 177.263 159.877 162.394 146.789C149.548 136.142 145.005 119.059 133.914 107.086C137.424 104.713 144.108 104.686 148.904 103.573Z" fill="#DACBB7"/>
<path fill-rule="evenodd" clip-rule="evenodd" d="M543.856 152.65C541.539 135.151 549.618 117.035 557.816 102.755C558.94 119.931 558.27 140.783 543.856 152.65Z" fill="#DACBB7"/>
<path fill-rule="evenodd" clip-rule="evenodd" d="M144.039 109.755C170.079 104.136 203.168 115.615 208.512 144.63C194.447 149.109 177.621 147.689 166.423 137.35C157.985 128.997 151.38 119.033 144.039 109.755Z" fill="#DACBB7"/>
<path fill-rule="evenodd" clip-rule="evenodd" d="M404.565 192.688C407.954 159.125 424.322 124.651 454.478 107.542C427.286 139.16 414.117 182.389 423.359 223.582C430.178 248.524 425.208 274.254 421.643 299.208C442.703 247.649 484.028 200.572 538.455 184.119C507.632 209.302 478.174 237.326 457.935 272.001C428.585 322.151 412.065 379.045 401.658 435.883C416.3 397.025 443.589 365.125 472.027 335.665C496.729 309.732 514.531 269.48 497.211 234.887C527.553 244.634 522.528 286.175 507.968 307.508C524.229 292.276 543.319 280.691 563.639 271.719C595.696 256.432 615.978 220.727 610.674 185.206C630.324 218.299 612.333 262.534 580.56 280.691C573.272 285.45 564.673 287.408 557.05 291.39C591.076 283.117 626.106 291.832 657.504 305.456C672.092 312.376 688.917 310.995 703.612 305.16C691.717 323.464 666.84 323.638 648.114 317.659C623.427 310.473 597.814 303.176 571.84 306.622C549.522 309.306 529.294 320.489 511.651 333.91C475.068 361.426 446.092 398.113 424.231 438.151C406.346 471.271 392.63 508.266 390.78 545.783C397.13 500.661 422.678 459.659 459.138 432.668C499.542 402.523 547.19 380.975 597.144 373.359C632.362 367.647 678.482 378.601 690.391 416.685C670.727 392.681 638.226 381.445 607.901 387.504C562.287 396.663 519.167 417.099 481.779 444.626C464.82 457.753 447.807 472.612 439.007 492.643C477.277 447.724 541.297 423.32 599.461 435.991C620.198 442.427 639.822 452.781 661.763 454.992C637.371 464.928 612.361 454.536 588.317 449.601C543.896 444.854 496.595 461.829 466.319 494.976C423.829 547.485 423.869 628.999 464.176 682.768C479.915 703.982 502.582 719.038 526.976 728.586C586.147 750.738 650.001 754.478 711.984 763.609C711.984 763.837 711.971 764.322 711.971 764.55C678.427 764.872 644.886 764.83 611.342 764.924C580.157 764.467 548.436 763.677 518.376 754.464C473.287 742.517 434.453 712.281 410.124 672.698C432.629 726.266 488.356 757.441 544.015 764.682C528.262 764.818 512.494 764.655 496.755 764.95C471.583 767.163 449.628 751.408 431.398 735.961C437.533 748.337 448.571 757.348 459.556 765.286C452.387 764.75 444.176 767.325 437.987 762.537C420.908 750.966 408.317 733.748 399.139 715.487C397.534 732.676 394.519 749.987 386.669 765.555C378.457 765.945 370.247 765.902 362.046 765.985C386.657 727.285 390.125 679.428 390.515 634.751C385.195 670.996 378.189 708.219 358.7 739.851C349.844 753.499 336.621 770.073 318.202 765.1C331.117 757.322 342.543 745.682 346.267 730.679C332.229 745.872 314.774 759.119 294.386 764.04C275.094 765.446 255.618 765.233 236.3 764.348C290.62 755.698 345.783 726.734 369.589 674.789C344.914 711.448 306.308 737.074 264.404 750.014C231.264 760.245 196.395 763.463 161.861 764.399C130.314 765.1 98.7667 764.818 67.2188 764.522C67.2188 764.308 67.2188 763.891 67.2325 763.691C110.354 759.065 153.528 753.996 196.193 746.018C237.32 737.985 280.065 724.63 310.206 693.993C359.636 643.426 364.363 558.201 324.9 500.381C310.647 480.012 287.741 461.281 261.404 464.231C224.271 473.35 185.263 462.259 151.894 445.632C125.679 431.284 99.3963 407.939 97.0657 376.201C126.013 425.385 185.249 446.383 239.569 449.4C255.217 448.956 271.102 445.712 286.602 449.817C304.632 453.261 319.408 464.847 333.366 476.004C295.726 426.592 241.806 393.245 199.234 348.552C256.329 368.007 307.647 404.359 346.468 450.419C367.956 475.681 381.618 506.657 389.885 538.448C383.482 481.529 352.63 429.287 310.527 391.246C266.736 351.448 210.715 319.025 149.844 320.634C133.167 321.116 115.645 312.484 110.822 295.506C121.739 303.202 135.377 305.082 148.425 304.463C215.831 299.677 279.944 332.5 330.633 374.35C307.941 340.493 277.816 311.169 240.99 293.133C220.16 282.461 197.024 277.78 175.43 269.106C163.374 264.316 151.56 254.623 150.528 240.813C163.442 255.253 182.959 259.008 201.125 262.039C250.555 272.457 296.769 298.67 330.485 336.417C359.394 368.664 377.64 409.268 388.076 451.009C385.543 375.22 356.715 297.009 297.131 247.649C278.217 230.38 254.707 217.95 239.449 196.858C226.483 178.835 215.485 153.48 226.964 132.132C232.188 160.814 248.344 187.471 271.626 205.052C294.895 221.57 320.372 235.73 339.275 257.6C329.054 239.872 329.883 217.414 340.602 200.102C353.916 179.439 374.332 163.282 381.191 138.676C382.61 159.594 370.14 176.837 359.088 193.224C341.779 224.4 351.411 262.547 368.638 291.564C382.717 316.075 393.407 342.612 398.94 370.394C407.432 333.695 411.29 295.721 408.933 258.083C407.58 236.281 401.74 214.625 404.565 192.688Z" fill="#DACBB7"/>
<path fill-rule="evenodd" clip-rule="evenodd" d="M447.541 184.698C447.327 156.391 464.847 132.202 485.745 114.824C487.676 131.558 492.967 148.185 490.716 165.161C487.916 185.797 470.876 201.821 452.497 209.597C446.068 203.656 447.983 192.81 447.541 184.698Z" fill="#DACBB7"/>
<path fill-rule="evenodd" clip-rule="evenodd" d="M169.562 120.267C182.102 122.346 197.158 128.166 202.437 140.622C189.817 137.39 178.98 128.971 169.562 120.267Z" fill="#DACBB7"/>
<path fill-rule="evenodd" clip-rule="evenodd" d="M649.711 124.852C665.812 130.659 681.109 144.013 682.959 161.928C683.925 177.321 678.941 192.554 671.961 206.096C657.761 198.6 642.316 189.322 637.037 173.138C632.054 156.242 638.792 137.953 649.711 124.852Z" fill="#DACBB7"/>
<path fill-rule="evenodd" clip-rule="evenodd" d="M652.347 134.869C678.146 144.764 682.526 177.12 669.44 198.935C646.453 186.761 638.482 156.926 652.347 134.869Z" fill="#DACBB7"/>
<path fill-rule="evenodd" clip-rule="evenodd" d="M653.709 140.247C665.711 150.128 663.329 167.641 660.89 181.224C656.55 168.083 653.551 154.139 653.709 140.247Z" fill="#DACBB7"/>
<path fill-rule="evenodd" clip-rule="evenodd" d="M305.576 188.879C301.6 172.266 309.97 155.532 317.994 141.574C319.228 157.905 316.803 176.195 305.576 188.879Z" fill="#DACBB7"/>
<path fill-rule="evenodd" clip-rule="evenodd" d="M105.615 142.633C129.005 161.54 144.06 193.694 137.966 223.836C133.733 242.581 118.087 256.099 101.235 263.715C80.07 240.907 79.4935 204.69 95.8494 179.011C103.364 168.391 105.427 155.358 105.615 142.633Z" fill="#DACBB7"/>
<path fill-rule="evenodd" clip-rule="evenodd" d="M534.468 210.47C545.278 182.136 571.546 163.35 597.254 149.458C591.814 169.532 597.413 190.047 595.698 210.361C591.868 239.645 563.012 260.751 534.573 261.37C529.979 244.809 528.64 226.908 534.468 210.47Z" fill="#DACBB7"/>
<path fill-rule="evenodd" clip-rule="evenodd" d="M458.188 202.545C458.763 184.778 467.338 168.419 476.338 153.534C478.12 171.073 473.727 192.246 458.188 202.545Z" fill="#DACBB7"/>
<path fill-rule="evenodd" clip-rule="evenodd" d="M111.36 156.256C124.527 171.059 130.877 191.924 130.06 211.568C128.09 228.785 114.936 242.342 101.567 252.102C93.034 240.45 92.7133 224.253 94.682 210.309C96.7324 191.24 109.363 175.337 111.36 156.256Z" fill="#DACBB7"/>
<path fill-rule="evenodd" clip-rule="evenodd" d="M539.465 253.725C530.18 217.36 557.443 185.112 586.536 167.358C587.743 181.545 588.278 195.999 586.055 210.106C581.448 232.673 560.549 247.92 539.465 253.725Z" fill="#DACBB7"/>
<path fill-rule="evenodd" clip-rule="evenodd" d="M140.93 169.746C160.206 183.812 186.127 175.096 206.113 187.311C225.23 198.239 233.013 221.343 232.784 242.355C217.459 247.866 199.362 249.005 184.693 240.974C159.831 226.063 145.874 197.515 140.93 169.746Z" fill="#DACBB7"/>
<path fill-rule="evenodd" clip-rule="evenodd" d="M151.695 182.672C165.908 188.317 181.406 189.444 195.512 195.303C211.734 201.767 221.446 218.971 222.558 235.866C219.691 239.405 214.226 237.515 210.235 237.835C180.67 236.174 160.415 208.565 151.695 182.672Z" fill="#DACBB7"/>
<path fill-rule="evenodd" clip-rule="evenodd" d="M115.711 193.976C120.588 209.985 119.381 230.555 107.031 242.931C102.154 226.144 111.25 209.796 115.711 193.976Z" fill="#DACBB7"/>
<path fill-rule="evenodd" clip-rule="evenodd" d="M180.352 202.034C194.953 207.197 211.765 215.604 217.499 230.916C201.25 227.858 190.344 214.035 180.352 202.034Z" fill="#DACBB7"/>
<path fill-rule="evenodd" clip-rule="evenodd" d="M546.594 246.525C549.834 229.776 560.805 215.778 571.95 203.401C571.509 220.578 561.957 238.279 546.594 246.525Z" fill="#DACBB7"/>
<path fill-rule="evenodd" clip-rule="evenodd" d="M631.203 274.027C633.495 245.413 660.675 215.539 691.767 221.666C708.672 225.753 725.686 229.685 743.247 227.699C731.738 247.222 715.476 264.292 695.411 275.046C675.799 286.002 650.587 284.661 631.203 274.027Z" fill="#DACBB7"/>
<path fill-rule="evenodd" clip-rule="evenodd" d="M674.699 234.081C692.77 226.734 711.47 235.518 729.862 236C709.569 263.381 672.702 284.431 638.57 270.581C647.063 255.562 657.19 239.406 674.699 234.081Z" fill="#DACBB7"/>
<path fill-rule="evenodd" clip-rule="evenodd" d="M655.313 253.806C667.691 250.414 681.233 248.577 693.906 250.91C679.146 256.314 664.678 264.68 648.574 264.694C644.931 261.234 651.803 255.457 655.313 253.806Z" fill="#DACBB7"/>
<path fill-rule="evenodd" clip-rule="evenodd" d="M32.9141 258.406C55.1103 259.921 78.1113 267.321 93.8908 283.668C106.055 296.271 109.069 314.856 107.903 331.725C88.1844 337.424 63.8049 333.106 51.3992 315.513C38.5134 299.047 41.8358 276.588 32.9141 258.406Z" fill="#DACBB7"/>
<path fill-rule="evenodd" clip-rule="evenodd" d="M43.3984 266.302C72.0646 269.091 101.281 292.987 98.5359 323.906C82.9021 325.742 65.5947 319.24 57.6509 305.082C50.9665 292.973 48.0059 279.243 43.3984 266.302Z" fill="#DACBB7"/>
<path fill-rule="evenodd" clip-rule="evenodd" d="M698.578 284.311C715.121 276.078 736.06 271.72 752.321 282.998C767.807 293.456 777.479 310.189 784.686 327.019C767.217 318.88 748.101 327.622 730.219 322.472C713.769 316.815 701.994 301.047 698.578 284.311Z" fill="#DACBB7"/>
<path fill-rule="evenodd" clip-rule="evenodd" d="M66.1406 285.854C78.5591 292.999 90.1462 304.478 94.3798 318.41C80.2199 313.623 72.4247 298.497 66.1406 285.854Z" fill="#DACBB7"/>
<path fill-rule="evenodd" clip-rule="evenodd" d="M708.281 289.795C734.791 277.297 761.382 296.284 774.134 319.025C760.055 316.841 745.346 318.933 731.71 314.144C721.152 309.6 711.522 301.151 708.281 289.795Z" fill="#DACBB7"/>
<path fill-rule="evenodd" clip-rule="evenodd" d="M710.5 290.425C723.507 288.668 737.399 296.392 746.347 305.213C738.818 304.839 731.477 302.922 724.364 300.563C723.427 301.219 722.515 301.89 721.605 302.572C717.397 299.046 712.869 295.52 710.5 290.425Z" fill="#DACBB7"/>
<path fill-rule="evenodd" clip-rule="evenodd" d="M537.422 351.007C545.766 333.106 563.089 317.352 583.853 317.928C603.585 318.678 619.928 331.31 638.146 337.411C624.523 351.544 607.001 362.39 587.819 366.978C569.735 371.415 549.892 364.63 537.422 351.007Z" fill="#DACBB7"/>
<path fill-rule="evenodd" clip-rule="evenodd" d="M1.15625 320.435C22.469 335.317 52.7841 329.122 71.4837 348.969C86.8224 363.585 89.9304 386.888 86.3403 406.91C65.858 410.233 42.3886 406.103 28.7639 389.127C11.8727 370.409 3.67406 345.175 1.15625 320.435Z" fill="#DACBB7"/>
<path fill-rule="evenodd" clip-rule="evenodd" d="M546.047 349.868C557.018 336.096 573.815 325.678 591.954 327.247C604.157 329.445 615.395 335.103 626.903 339.542C608.403 356.329 580.568 367.782 556.187 357.322C552.678 355.444 546.516 354.425 546.047 349.868Z" fill="#DACBB7"/>
<path fill-rule="evenodd" clip-rule="evenodd" d="M10.4766 334.809C26.5383 342.56 45.3599 344.289 59.7324 355.43C72.995 365.502 77.6705 383.12 77.2012 399.105C40.844 402.349 16.7595 366.536 10.4766 334.809Z" fill="#DACBB7"/>
<path fill-rule="evenodd" clip-rule="evenodd" d="M89.5547 345.749C117.671 350.309 144.329 327.059 172.018 339.65C188.2 346.595 197.859 362.579 204.287 378.225C188.977 392.105 166.553 400.136 146.298 393.352C122.2 385.695 101.784 367.728 89.5547 345.749Z" fill="#DACBB7"/>
<path fill-rule="evenodd" clip-rule="evenodd" d="M553.172 347.157C565.71 337.302 584.824 340.077 598.904 344.918C583.995 346.433 567.477 353.232 553.172 347.157Z" fill="#DACBB7"/>
<path fill-rule="evenodd" clip-rule="evenodd" d="M681.992 372.676C697.144 350.269 725.584 334.903 752.574 344.275C767.19 350.24 782.26 355.886 798.402 353.807C781.657 377.476 755.643 397.453 725.824 398.997C707.941 398.956 691.102 387.732 681.992 372.676Z" fill="#DACBB7"/>
<path fill-rule="evenodd" clip-rule="evenodd" d="M103.617 353.768C121.835 354.426 139.651 348.793 157.855 349.706C173.234 350.484 183.897 363.586 191.707 375.493C164.004 400.11 123.094 378.91 103.617 353.768Z" fill="#DACBB7"/>
<path fill-rule="evenodd" clip-rule="evenodd" d="M693.273 372.825C708.158 359.603 728.612 351.422 748.613 355.257C760.347 357.578 771.921 360.836 783.897 361.936C769.324 376.979 749.884 388.712 728.546 389.719C714.882 390.537 701.42 383.684 693.273 372.825Z" fill="#DACBB7"/>
<path fill-rule="evenodd" clip-rule="evenodd" d="M35.6094 356.478C51.1487 364.322 66.9153 375.573 73.5595 392.279C56.0789 387.413 44.1298 371.605 35.6094 356.478Z" fill="#DACBB7"/>
<path fill-rule="evenodd" clip-rule="evenodd" d="M137.297 361.745C153.453 360.136 172.086 362.94 184.772 373.64C168.241 377.006 150.841 371.187 137.297 361.745Z" fill="#DACBB7"/>
<path fill-rule="evenodd" clip-rule="evenodd" d="M700.156 372.366C712.348 360.929 734.933 366.922 748.971 373.103C733.124 376.752 715.481 378.909 700.156 372.366Z" fill="#DACBB7"/>
<path fill-rule="evenodd" clip-rule="evenodd" d="M586.43 416.71C590.476 402.428 604.755 390.508 619.988 390.376C634.99 390.294 647.422 399.936 660.884 405.164C644.194 427.665 607.529 440.804 586.43 416.71Z" fill="#DACBB7"/>
<path fill-rule="evenodd" clip-rule="evenodd" d="M592.375 415.369C605.316 394.009 633.554 396.114 651.946 408.705C636.113 422.785 610.086 430.495 592.375 415.369Z" fill="#DACBB7"/>
<path fill-rule="evenodd" clip-rule="evenodd" d="M596.852 413.707C605.437 403.984 618.898 409.912 629.522 412.005C618.954 414.458 607.286 419.017 596.852 413.707Z" fill="#DACBB7"/>
<path fill-rule="evenodd" clip-rule="evenodd" d="M698.34 413.425C713.799 407.846 733.183 407.78 745.841 419.607C757.844 430.991 763.752 447.336 767.169 463.185C751.949 463.037 735.968 462.541 722.198 455.314C707.193 447.524 697.432 429.958 698.34 413.425Z" fill="#DACBB7"/>
<path fill-rule="evenodd" clip-rule="evenodd" d="M704.242 418.091C730.686 409.095 753.899 432.104 758.214 456.735C732.99 459.256 711.05 441.825 704.242 418.091Z" fill="#DACBB7"/>
<path fill-rule="evenodd" clip-rule="evenodd" d="M707.219 419.458C720.174 422.168 731.989 430.829 739.626 441.451C727.661 436.796 712.511 432.452 707.219 419.458Z" fill="#DACBB7"/>
<path fill-rule="evenodd" clip-rule="evenodd" d="M8.67969 453.344C32.8723 453.087 51.3976 431.849 75.9394 433.444C95.6582 434.343 110.501 450.152 119.356 466.485C108.21 477.733 93.9827 487.08 77.854 488.421C50.8358 489.399 25.4104 473.697 8.67969 453.344Z" fill="#DACBB7"/>
<path fill-rule="evenodd" clip-rule="evenodd" d="M23.3906 458.571C46.3376 455.206 71.4412 435.911 93.6778 451.452C98.3935 455.944 112.633 463.843 102.304 469.688C78.1926 488.165 43.4312 478.457 23.3906 458.571Z" fill="#DACBB7"/>
<path fill-rule="evenodd" clip-rule="evenodd" d="M55.3828 460.851C69.1531 454.751 87.5998 454.83 100.233 463.775C85.8584 469.794 69.5427 465.544 55.3828 460.851Z" fill="#DACBB7"/>
<path fill-rule="evenodd" clip-rule="evenodd" d="M563.033 465.839C605.321 452.485 650.775 485.914 656.816 528.352C636.065 517.33 611.55 529.279 590.987 518.162C571.739 508.735 561.905 486.611 563.033 465.839Z" fill="#DACBB7"/>
<path fill-rule="evenodd" clip-rule="evenodd" d="M661.219 474.743C677.134 461.816 703.081 457.928 718.527 473.657C727.553 482.856 732.297 495.488 742.396 503.802C724.191 509.595 702.959 513.468 685.102 504.592C673.595 498.302 665.692 486.839 661.219 474.743Z" fill="#DACBB7"/>
<path fill-rule="evenodd" clip-rule="evenodd" d="M672.508 474.544C683.212 469.635 696.54 468.241 707.014 474.502C716.954 480.443 723.252 490.607 729.655 499.926C711.382 503.492 689.723 502.58 676.621 487.469C673.996 484.103 665.783 477.574 672.508 474.544Z" fill="#DACBB7"/>
<path fill-rule="evenodd" clip-rule="evenodd" d="M514.057 471.446C533.318 472.974 552.367 486.422 556.293 506.066C559.24 521.768 555.636 538.369 562.321 553.414C543.7 548.653 525.71 538.287 514.511 522.373C504.223 507.247 506.138 487.12 514.057 471.446Z" fill="#DACBB7"/>
<path fill-rule="evenodd" clip-rule="evenodd" d="M572.055 471.779C605.167 466.818 634.343 489.534 648.677 517.731C631.787 512.892 612.87 517.127 597.17 507.997C583.628 500.702 575.121 486.584 572.055 471.779Z" fill="#DACBB7"/>
<path fill-rule="evenodd" clip-rule="evenodd" d="M575.297 474.838C592.778 477.413 605.29 491.035 618.766 501.147C601.928 498.223 580.563 493.933 575.297 474.838Z" fill="#DACBB7"/>
<path fill-rule="evenodd" clip-rule="evenodd" d="M139.827 484.533C155.996 473.471 177.309 475.683 194.978 481.555C193.652 500.126 184.917 520.12 166.699 527.547C147.623 536.96 125.776 525.577 106.633 534.735C111.991 515.09 123.056 496.44 139.827 484.533Z" fill="#DACBB7"/>
<path fill-rule="evenodd" clip-rule="evenodd" d="M672.07 478.551C683.39 476.084 696.436 477.841 705.572 485.389C694.415 486.315 681.207 485.832 672.07 478.551Z" fill="#DACBB7"/>
<path fill-rule="evenodd" clip-rule="evenodd" d="M235.496 483.7C251.717 474.208 271.813 479.841 286.695 489.252C283.334 509.673 269.24 530.391 247.566 533.689C232.228 535.649 215.711 532.269 201.578 540.407C204.163 518.042 215.912 495.593 235.496 483.7Z" fill="#DACBB7"/>
<path fill-rule="evenodd" clip-rule="evenodd" d="M517.307 479.744C533.476 483.514 546.081 498.061 548.158 514.488C549.242 524.543 550.543 534.588 553.353 544.348C527.245 536.236 507.526 506.937 517.307 479.744Z" fill="#DACBB7"/>
<path fill-rule="evenodd" clip-rule="evenodd" d="M518.125 481.047C531.306 489.722 533.234 506.133 535.03 520.507C524.942 510.158 518.753 495.553 518.125 481.047Z" fill="#DACBB7"/>
<path fill-rule="evenodd" clip-rule="evenodd" d="M117.312 523.981C126.528 497.204 155.678 477.667 184.158 486.005C182.484 503.948 166.676 520.079 148.484 521.448C138.076 522.13 127.64 522.384 117.312 523.981Z" fill="#DACBB7"/>
<path fill-rule="evenodd" clip-rule="evenodd" d="M208.867 529.8C216.103 502.701 246.644 478.097 274.668 493.073C274.507 501.734 267.168 509.995 261.085 516.15C246.416 528.539 225.987 523.967 208.867 529.8Z" fill="#DACBB7"/>
<path fill-rule="evenodd" clip-rule="evenodd" d="M141.312 507.809C151.212 496.893 166.095 489.601 180.938 490.325C171.346 501.884 155.566 505.676 141.312 507.809Z" fill="#DACBB7"/>
<path fill-rule="evenodd" clip-rule="evenodd" d="M231.039 512.663C239.934 500.555 256.277 496.99 270.571 497.7C261.797 509.273 244.032 508.32 231.039 512.663Z" fill="#DACBB7"/>
</g>
<defs>
<clipPath id="clip0_2231_1032">
<rect width="800" height="720" fill="white"/>
</clipPath>
</defs>
</svg>
